<svg width="120" height="120" viewBox="0 0 120 120" fill="none"
    xmlns="http://www.w3.org/2000/svg">
    <circle cx="60" cy="60" r="60" fill="#F2F2F2"/>
    <path d="M60 59.5C67.575 59.5 73.7143 53.3447 73.7143 45.75C73.7143 38.1553 67.575 32 60 32C52.425 32 46.2857 38.1553 46.2857 45.75C46.2857 53.3447 52.425 59.5 60 59.5ZM55.1036 64.6562C44.55 64.6562 36 73.2285 36 83.8096C36 85.5713 37.425 87 39.1821 87H80.8179C82.575 87 84 85.5713 84 83.8096C84 73.2285 75.45 64.6562 64.8964 64.6562H55.1036Z" fill="#C7C1C1"/>
    <circle cx="101" cy="104" r="16" fill="#FF9595"/>
    <path d="M101 113C100.872 113.004 100.745 112.981 100.626 112.934C100.507 112.887 100.399 112.817 100.309 112.726C100.219 112.636 100.148 112.528 100.101 112.409C100.054 112.29 100.032 112.163 100.036 112.035V104.964H92.9643C92.7085 104.964 92.4633 104.862 92.2824 104.682C92.1016 104.501 92 104.255 92 104C92 103.744 92.1016 103.499 92.2824 103.318C92.4633 103.137 92.7085 103.035 92.9643 103.035H100.036V95.9643C100.036 95.7085 100.137 95.4633 100.318 95.2824C100.499 95.1016 100.744 95 101 95C101.256 95 101.501 95.1016 101.682 95.2824C101.863 95.4633 101.964 95.7085 101.964 95.9643V103.035H109.036C109.291 103.035 109.537 103.137 109.718 103.318C109.898 103.499 110 103.744 110 104C110 104.255 109.898 104.501 109.718 104.682C109.537 104.862 109.291 104.964 109.036 104.964H101.964V112.035C101.968 112.163 101.946 112.29 101.899 112.409C101.852 112.528 101.781 112.636 101.691 112.726C101.601 112.817 101.493 112.887 101.374 112.934C101.255 112.981 101.128 113.004 101 113Z" fill="white" stroke="white"/>
</svg>
