<svg width="669" height="669" viewBox="0 0 669 669" fill="none" xmlns="http://www.w3.org/2000/svg">
    <path d="M418.299 261.552C396.329 223.687 388.261 185.688 353.46 153.255C326.178 127.833 293.517 104.605 245.443 105.02C199.63 105.421 156.212 120.233 135.861 155.663C115.791 190.678 119.296 237.883 137.814 268.925C147.675 285.462 164.708 297.29 179.198 311.125C195.174 326.365 202.988 343.839 207.858 363.642C216.422 398.43 221.011 433.097 258.702 454.933C295.591 476.341 344.147 473.304 391.164 470.829C434.114 468.581 495.649 475.525 526.53 441.219C555.738 408.772 548.406 355.962 521.994 329.737C492.531 300.528 439.373 297.852 418.299 261.552Z" fill="#FF9595"/>
    <path opacity="0.9" d="M418.299 261.552C396.329 223.687 388.261 185.688 353.46 153.255C326.178 127.833 293.517 104.605 245.443 105.02C199.63 105.421 156.212 120.233 135.861 155.663C115.791 190.678 119.296 237.883 137.814 268.925C147.675 285.462 164.708 297.29 179.198 311.125C195.174 326.365 202.988 343.839 207.858 363.642C216.422 398.43 221.011 433.097 258.702 454.933C295.591 476.341 344.147 473.304 391.164 470.829C434.114 468.581 495.649 475.525 526.53 441.219C555.738 408.772 548.406 355.962 521.994 329.737C492.531 300.528 439.373 297.852 418.299 261.552Z" fill="white"/>
    <path d="M334.5 572.075C477.776 572.075 593.925 565.294 593.925 556.929C593.925 548.564 477.776 541.783 334.5 541.783C191.224 541.783 75.0752 548.564 75.0752 556.929C75.0752 565.294 191.224 572.075 334.5 572.075Z" fill="#F5F5F5"/>
    <path d="M172.255 172.495H105.087V142.176L172.255 62.3374H204.367V143.955H221.025V172.562H204.393V197.368H172.281L172.255 172.495ZM172.255 143.889V102.13L136.771 143.889H172.255Z" fill="#344767"/>
    <path d="M488.25 62.3374V197.301H450.906V108.86C445.458 113.091 439.636 116.817 433.512 119.992C426.672 123.291 419.57 126.017 412.278 128.14V97.9148C424.829 93.8562 434.574 88.9948 441.514 83.3306C448.461 77.653 454.033 70.4758 457.81 62.3374H488.25Z" fill="#344767"/>
    <path d="M417.215 231.728C416.626 232.785 416.171 233.548 415.649 234.404C415.127 235.261 414.606 236.063 414.084 236.893C413.027 238.525 411.903 240.104 410.766 241.683C408.471 244.849 406.01 247.89 403.393 250.795C400.729 253.775 397.863 256.569 394.817 259.157C391.651 261.901 388.212 264.313 384.554 266.356C383.403 267.027 382.199 267.604 380.955 268.082C379.654 268.578 378.31 268.954 376.941 269.206C374.499 269.628 372.013 269.745 369.542 269.554C365.266 269.18 361.063 268.208 357.058 266.663C353.362 265.254 349.782 263.554 346.354 261.579C342.985 259.656 339.765 257.482 336.721 255.076C335.859 254.377 335.274 253.395 335.07 252.304C334.865 251.213 335.054 250.086 335.604 249.122C336.153 248.158 337.027 247.42 338.07 247.04C339.112 246.661 340.256 246.663 341.297 247.048L341.537 247.142C347.837 249.661 354.342 251.635 360.979 253.043C363.903 253.652 366.891 253.899 369.876 253.779C371.042 253.728 372.194 253.517 373.302 253.15C373.715 253.015 374.113 252.84 374.492 252.628C374.867 252.414 374.934 252.347 375.697 251.825C380.818 248.061 385.412 243.628 389.358 238.646C391.458 236.077 393.505 233.414 395.445 230.618C396.436 229.28 397.372 227.848 398.322 226.457L399.66 224.369L400.918 222.402L401.132 222.068C402.457 220.042 404.514 218.608 406.873 218.066C409.231 217.524 411.708 217.916 413.784 219.16C415.86 220.404 417.374 222.403 418.009 224.739C418.643 227.074 418.349 229.565 417.188 231.688L417.215 231.728Z" fill="#FF8B7B"/>
    <path d="M343.518 248.146L333.256 241.349L328.907 254.996C330.964 256.08 333.274 256.59 335.595 256.472C337.917 256.354 340.164 255.614 342.1 254.327L343.518 248.146Z" fill="#FF8B7B"/>
    <path d="M323.796 243.396L322.993 247.744C322.847 248.515 322.923 249.311 323.212 250.041C323.501 250.77 323.991 251.403 324.625 251.865L328.867 254.996L333.215 241.348L329.094 240.144C328.532 239.979 327.942 239.933 327.361 240.011C326.78 240.088 326.222 240.286 325.723 240.593C325.223 240.899 324.794 241.307 324.462 241.79C324.13 242.272 323.903 242.82 323.796 243.396Z" fill="#FF8B7B"/>
    <path d="M417.537 209.986C407.087 211.632 396.517 223.901 390.161 235.341C394.334 242.617 400.658 248.422 408.264 251.959C408.264 251.959 420.654 240.238 425.658 231.568C430.662 222.898 427.371 208.42 417.537 209.986Z" fill="#FF9595"/>
    <path opacity="0.2" d="M417.537 209.986C407.087 211.632 396.517 223.901 390.161 235.341C394.334 242.617 400.658 248.422 408.264 251.959C408.264 251.959 420.654 240.238 425.658 231.568C430.662 222.898 427.371 208.42 417.537 209.986Z" fill="black"/>
    <path d="M390.563 232.719C389.595 233.815 388.837 235.08 388.328 236.452C390.937 240.466 397.132 251.17 408.692 253.444C409.816 252.816 410.676 251.804 411.114 250.594C411.114 250.594 397.815 244.038 390.563 232.719Z" fill="#263238"/>
    <path d="M459.643 209.625C447.012 207.51 434.149 207.141 421.417 208.527C411.917 209.745 404.826 218.482 404.892 228.049C404.94 238.03 405.835 247.989 407.568 257.819C404.076 276.217 402.819 301.224 406.498 306.737L472.314 307.66C475.137 299.792 471.592 265.74 475.352 230.19C475.862 225.403 474.517 220.603 471.595 216.777C468.673 212.952 464.396 210.392 459.643 209.625Z" fill="#FF9595"/>
    <path opacity="0.2" d="M434.85 306.817C431.09 277.207 434.85 227.688 434.85 227.179L436.188 227.286C436.188 227.781 432.455 277.167 436.188 306.643L434.85 306.817Z" fill="black"/>
    <path d="M427.691 209.451C429.953 208.608 429.11 207.35 429.11 207.35C429.11 207.35 418.834 207.35 411.716 209.263C410.632 210.414 411.796 211.939 411.796 211.939C411.796 211.939 420.961 211.966 427.691 209.451Z" fill="#263238"/>
    <path opacity="0.2" d="M431.893 207.39C431.893 207.39 427.652 215.231 433.325 222.362C428.829 222.362 425.926 230.029 425.926 230.029C425.926 230.029 417.148 217.826 428.374 208.072C429.003 207.096 431.893 207.39 431.893 207.39Z" fill="black"/>
    <path d="M427.357 211.19C426.26 215.98 435.907 225.011 435.907 225.011C435.907 225.011 452.967 216.769 454.051 212.046L427.357 211.19Z" fill="white"/>
    <path opacity="0.2" d="M465.865 239.221C464.046 242.727 466.467 257.953 473.492 264.389C473.572 258.1 473.759 251.424 474.161 244.56L465.865 239.221Z" fill="black"/>
    <path d="M450.492 183.641L432.884 195.201C434.971 200.312 435.948 205.637 429.927 208.099C429.154 208.41 428.491 208.945 428.024 209.635C427.558 210.325 427.309 211.14 427.309 211.973C427.309 212.806 427.558 213.62 428.024 214.31C428.491 215.001 429.154 215.536 429.927 215.846C431.7 216.492 433.556 216.883 435.439 217.01C441.099 217.559 446.805 216.638 452.004 214.334C452.551 214.061 453.033 213.671 453.414 213.193C453.796 212.714 454.069 212.158 454.214 211.564C454.359 210.969 454.373 210.35 454.255 209.749C454.137 209.149 453.889 208.581 453.529 208.086C448.913 201.556 449.475 190.21 450.492 183.641Z" fill="#FF8B7B"/>
    <path opacity="0.2" d="M443.319 188.35L432.896 195.188C433.482 196.586 433.93 198.038 434.234 199.523C438.396 199.282 443.828 195.99 443.935 192.552C444.038 191.123 443.828 189.689 443.319 188.35Z" fill="black"/>
    <path d="M430.943 161.59C435.425 161.497 436.643 167.932 434.957 170.113C438.356 170.849 440.001 174.823 438.971 176.803C437.941 178.784 434.007 181.018 430.501 180.135C424.494 178.636 423.464 173.646 425.149 171.371C421.938 168.722 423.571 160.56 430.943 161.59Z" fill="#263238"/>
    <path opacity="0.2" d="M430.943 161.59C435.425 161.497 436.643 167.932 434.957 170.113C438.356 170.849 440.001 174.823 438.971 176.803C437.941 178.784 434.007 181.018 430.501 180.135C424.494 178.636 423.464 173.646 425.149 171.371C421.938 168.722 423.571 160.56 430.943 161.59Z" fill="white"/>
    <path d="M456.258 172.201C454.92 182.758 454.666 189.006 448.952 194.064C440.349 201.65 427.544 195.816 425.725 185.032C424.065 175.332 426.541 159.69 437.205 156.238C439.567 155.487 442.082 155.344 444.514 155.823C446.947 156.303 449.219 157.389 451.12 158.981C453.02 160.574 454.488 162.62 455.386 164.931C456.284 167.242 456.584 169.743 456.258 172.201Z" fill="#FF8B7B"/>
    <path d="M454.987 180.269C450.505 180.269 449.515 173.739 451.227 171.625C447.856 170.756 446.357 166.728 447.401 164.748C448.444 162.768 452.498 160.734 455.977 161.711C461.931 163.423 462.801 168.401 461.075 170.662C464.286 173.472 462.319 181.526 454.987 180.269Z" fill="#263238"/>
    <path opacity="0.2" d="M454.987 180.269C450.505 180.269 449.515 173.739 451.227 171.625C447.856 170.756 446.357 166.728 447.401 164.748C448.444 162.768 452.498 160.734 455.977 161.711C461.931 163.423 462.801 168.401 461.075 170.662C464.286 173.472 462.319 181.526 454.987 180.269Z" fill="white"/>
    <path opacity="0.2" d="M444.216 173.94C444.754 173.794 445.316 173.755 445.869 173.826C446.423 173.897 446.957 174.077 447.44 174.355C446.349 174.424 445.254 174.284 444.216 173.94Z" fill="black"/>
    <path opacity="0.2" d="M444.216 174.662C444.725 174.634 445.235 174.717 445.709 174.907C446.183 175.096 446.609 175.387 446.959 175.76C445.978 175.591 445.043 175.217 444.216 174.662Z" fill="black"/>
    <path opacity="0.2" d="M427.451 173.124C427.328 173.051 427.192 173.004 427.05 172.986C426.908 172.967 426.764 172.978 426.627 173.016C426.489 173.055 426.361 173.121 426.25 173.211C426.138 173.301 426.046 173.412 425.979 173.539C426.506 173.6 427.035 173.451 427.451 173.124Z" fill="black"/>
    <path opacity="0.2" d="M427.464 173.94C427.464 173.94 426.648 173.82 426.22 175.037C426.732 174.799 427.164 174.418 427.464 173.94Z" fill="black"/>
    <path d="M459.443 182.958C458.215 185.167 456.198 186.83 453.796 187.614C450.746 188.497 449.528 185.447 450.625 182.262C451.629 179.412 454.398 175.505 457.315 176.027C460.232 176.549 461.048 180.135 459.443 182.958Z" fill="#FF8B7B"/>
    <path d="M442.075 173.94C442.075 174.796 441.527 175.465 440.951 175.425C440.376 175.385 439.975 174.649 440.041 173.779C440.108 172.91 440.59 172.254 441.165 172.294C441.741 172.334 442.142 173.097 442.075 173.94Z" fill="#263238"/>
    <path d="M437.794 189.662C436.697 189.876 435.693 189.448 435.56 188.725C435.426 188.003 436.229 187.253 437.326 187.039C438.423 186.825 439.426 187.253 439.56 187.976C439.694 188.698 438.864 189.461 437.794 189.662Z" fill="#263238"/>
    <path d="M430.368 173.017C430.368 173.873 429.806 174.542 429.244 174.502C428.682 174.462 428.253 173.726 428.32 172.856C428.387 171.987 428.882 171.331 429.444 171.371C430.006 171.411 430.421 172.147 430.368 173.017Z" fill="#263238"/>
    <path d="M433.03 181.634C426.768 182.062 425.564 185.112 426.661 186.45C427.758 187.788 430.434 186.45 430.434 186.45C430.434 186.45 435.505 187.534 436.99 185.915C439.385 186.932 443.038 185.032 442.008 183.587C440.978 182.142 438.395 181.259 433.03 181.634Z" fill="#263238"/>
    <path opacity="0.2" d="M433.03 181.634C426.768 182.062 425.564 185.112 426.661 186.45C427.758 187.788 430.434 186.45 430.434 186.45C430.434 186.45 435.505 187.534 436.99 185.915C439.385 186.932 443.038 185.032 442.008 183.587C440.978 182.142 438.395 181.259 433.03 181.634Z" fill="white"/>
    <path d="M433.218 173.94C432.014 176.502 430.461 178.884 428.602 181.018C429.163 181.483 429.819 181.821 430.523 182.008C431.228 182.195 431.964 182.227 432.682 182.102L433.218 173.94Z" fill="#FF5652"/>
    <path d="M443.962 169.444C444.046 169.434 444.128 169.407 444.202 169.364C444.259 169.328 444.308 169.28 444.346 169.225C444.384 169.169 444.411 169.106 444.424 169.04C444.438 168.974 444.439 168.906 444.426 168.84C444.413 168.774 444.387 168.711 444.35 168.655C443.923 167.962 443.335 167.383 442.636 166.966C441.937 166.549 441.148 166.307 440.336 166.26C440.201 166.26 440.071 166.314 439.976 166.409C439.881 166.504 439.827 166.634 439.827 166.768C439.827 166.903 439.881 167.033 439.976 167.128C440.071 167.223 440.201 167.277 440.336 167.277C440.976 167.323 441.595 167.523 442.142 167.858C442.689 168.193 443.148 168.655 443.48 169.204C443.53 169.285 443.601 169.35 443.686 169.393C443.771 169.436 443.867 169.453 443.962 169.444Z" fill="#263238"/>
    <path d="M426.527 168.441C426.612 168.439 426.694 168.418 426.769 168.378C426.843 168.339 426.907 168.282 426.955 168.213C427.298 167.678 427.763 167.231 428.312 166.91C428.861 166.589 429.478 166.403 430.113 166.367C430.248 166.367 430.377 166.313 430.473 166.218C430.568 166.123 430.622 165.993 430.622 165.859C430.622 165.724 430.568 165.594 430.473 165.499C430.377 165.404 430.248 165.35 430.113 165.35C429.308 165.382 428.523 165.608 427.824 166.009C427.125 166.41 426.534 166.973 426.099 167.651C426.062 167.706 426.036 167.768 426.024 167.833C426.011 167.899 426.012 167.966 426.025 168.031C426.039 168.095 426.066 168.157 426.104 168.211C426.142 168.266 426.19 168.312 426.246 168.347C426.326 168.41 426.426 168.443 426.527 168.441Z" fill="#263238"/>
    <path d="M443.801 415.85C446.798 367.575 446.129 318.043 440.924 307.258L406.471 306.737C406.471 306.737 410.766 387.445 412.104 419.597C413.509 453.047 416.506 540.017 416.506 540.017L436.442 540.258C436.442 540.258 448.136 453.194 443.801 415.85Z" fill="#263238"/>
    <path opacity="0.2" d="M445.286 342.06C433.525 354.905 439.024 390.469 444.149 410.057C445.554 385.558 445.928 361.166 445.286 342.06Z" fill="black"/>
    <path d="M436.188 542.773L418.66 542.546C417.55 542.489 416.454 542.815 415.556 543.469C410.471 547.483 406.604 547.603 400.838 548.634C393.92 549.878 397.346 556.835 402.443 556.916C410.873 557.05 410.164 556.742 417.362 556.849L422.339 556.916L424.587 554.628L426.581 556.916H435.786C436.025 556.921 436.263 556.875 436.483 556.781C436.703 556.688 436.9 556.548 437.062 556.372C437.224 556.196 437.347 555.988 437.422 555.761C437.498 555.534 437.524 555.294 437.499 555.056L436.188 542.773Z" fill="#263238"/>
    <path d="M437.526 544.566C437.218 544.566 414.526 543.843 414.526 543.843L413.603 535.695L438.77 536.257L437.526 544.566Z" fill="#FF9595"/>
    <path d="M484.263 415.85C480.57 367.575 479.004 318.444 472.314 307.66L430.77 307.125C430.77 307.125 447.294 387.405 453.101 419.597C459.135 453.047 475.378 540.017 475.378 540.017L495.355 540.258C495.355 540.258 493.722 453.194 484.263 415.85Z" fill="#263238"/>
    <path d="M496.304 542.773L478.763 542.546C477.657 542.491 476.567 542.817 475.672 543.469C470.588 547.483 472.916 547.603 467.149 548.634C460.232 549.878 463.644 556.836 468.741 556.916C477.171 557.05 476.475 556.742 483.66 556.849L491.474 556.916L492.504 554.628L493.842 556.916H495.903C496.138 556.915 496.371 556.865 496.587 556.769C496.802 556.673 496.994 556.532 497.152 556.357C497.309 556.182 497.429 555.976 497.502 555.751C497.574 555.527 497.6 555.29 497.575 555.056L496.304 542.773Z" fill="#263238"/>
    <path d="M497.629 544.566C497.308 544.566 474.522 543.844 474.522 543.844L472.314 535.642L497.563 536.204L497.629 544.566Z" fill="#FF9595"/>
    <path d="M432.588 206.44C432.588 206.44 427.651 215.231 433.324 222.362C428.829 222.362 425.885 227.233 425.885 227.233C425.885 227.233 419.904 215.191 428.748 207.163C429.364 206.253 432.588 206.44 432.588 206.44Z" fill="#FF9595"/>
    <path d="M474.094 311.326C450.585 312.303 423.625 312.597 406.766 311.326C406.673 311.322 406.583 311.298 406.502 311.253C406.421 311.209 406.351 311.147 406.297 311.072C405.192 309.199 404.683 307.033 404.839 304.863C404.853 304.704 404.927 304.555 405.046 304.448C405.165 304.341 405.321 304.284 405.481 304.288C427.732 304.89 449.849 304.863 473.104 304.288C473.231 304.286 473.357 304.321 473.464 304.39C473.571 304.459 473.655 304.559 473.706 304.676C474.483 306.602 474.822 308.677 474.696 310.751C474.686 310.904 474.619 311.049 474.507 311.156C474.396 311.262 474.248 311.323 474.094 311.326Z" fill="#263238"/>
    <path opacity="0.2" d="M474.094 311.326C450.585 312.303 423.625 312.597 406.766 311.326C406.673 311.322 406.583 311.298 406.502 311.253C406.421 311.209 406.351 311.147 406.297 311.072C405.192 309.199 404.683 307.033 404.839 304.863C404.853 304.704 404.927 304.555 405.046 304.448C405.165 304.341 405.321 304.284 405.481 304.288C427.732 304.89 449.849 304.863 473.104 304.288C473.231 304.286 473.357 304.321 473.464 304.39C473.571 304.459 473.655 304.559 473.706 304.676C474.483 306.602 474.822 308.677 474.696 310.751C474.686 310.904 474.619 311.049 474.507 311.156C474.396 311.262 474.248 311.323 474.094 311.326Z" fill="black"/>
    <path d="M428.16 303.913C427.882 306.871 428.122 309.855 428.869 312.731C433.967 313.52 444.43 312.932 444.43 312.932C444.582 309.966 444.475 306.994 444.109 304.047C436.081 303.726 428.16 303.913 428.16 303.913Z" fill="white"/>
    <path d="M475.164 223.072L475.927 223.754L476.529 224.316L477.666 225.413C478.402 226.136 479.071 226.858 479.754 227.594C481.092 229.052 482.363 230.564 483.567 232.09C485.973 235.11 488.206 238.264 490.257 241.536C494.252 248 497.625 254.827 500.332 261.927C500.693 262.877 500.974 263.452 501.483 265.071C501.885 266.382 502.172 267.725 502.339 269.085C502.585 271.467 502.554 273.869 502.245 276.244C501.67 280.335 500.591 284.339 499.034 288.165C497.61 291.717 495.938 295.164 494.03 298.481C492.161 301.741 490.074 304.87 487.782 307.847C487.1 308.721 486.131 309.325 485.046 309.552C483.961 309.778 482.831 309.613 481.857 309.085C480.883 308.557 480.127 307.7 479.725 306.668C479.323 305.635 479.3 304.493 479.66 303.445L479.74 303.218C482.061 296.935 483.952 290.503 485.4 283.964C486.056 281.043 486.397 278.06 486.417 275.066C486.42 273.907 486.276 272.751 485.989 271.628C485.66 270.61 485.211 269.635 484.651 268.724C481.7 262.809 478.352 257.1 474.629 251.638C472.796 248.962 470.843 246.286 468.836 243.851C467.832 242.593 466.788 241.402 465.758 240.225L464.206 238.525L463.457 237.736L463.109 237.375L462.881 237.161C461.006 235.53 459.855 233.221 459.682 230.742C459.509 228.263 460.328 225.817 461.958 223.941C463.589 222.066 465.898 220.915 468.377 220.742C470.856 220.569 473.302 221.387 475.178 223.018L475.164 223.072Z" fill="#FF8B7B"/>
    <path d="M463.631 211.484C474.054 213.291 484.437 225.707 490.632 237.241C486.359 244.451 479.961 250.162 472.314 253.591C472.314 253.591 460.085 241.683 455.201 232.959C450.318 224.236 453.823 209.785 463.631 211.484Z" fill="#FF9595"/>
    <path d="M490.27 234.605C491.218 235.721 491.957 236.999 492.451 238.378C489.775 242.392 483.433 253.002 471.832 255.076C470.721 254.429 469.88 253.403 469.464 252.186C469.464 252.186 482.857 245.817 490.27 234.605Z" fill="#263238"/>
    <path d="M456.084 210.548C453.93 209.625 454.746 208.407 454.746 208.407C454.746 208.407 464.661 208.755 471.445 210.909C472.448 212.1 471.271 213.585 471.271 213.585C471.271 213.585 462.48 213.291 456.084 210.548Z" fill="#263238"/>
    <path opacity="0.2" d="M453.489 208.139C453.489 208.139 451.241 215.98 440.965 222.376C445.461 222.376 448.471 230.578 448.471 230.578C448.471 230.578 457.837 219.579 455.669 208.728C455.041 207.765 453.489 208.139 453.489 208.139Z" fill="black"/>
    <path d="M453.194 206.721C453.194 206.721 450.518 215.204 440.965 222.376C445.461 222.376 448.578 227.233 448.578 227.233C448.578 227.233 457.783 219.579 455.669 208.728C454.97 207.918 454.132 207.238 453.194 206.721Z" fill="#FF9595"/>
    <path d="M462.827 238.927C462.212 250.487 454.893 253.243 453.863 253.243C452.833 253.243 445.835 250.487 446.45 238.927L454.813 235.635L462.827 238.927Z" fill="white"/>
    <path d="M480.837 302.522L472.595 309.613L483.526 316.718C483.526 316.718 490.216 309.386 486.898 305.211L480.837 302.522Z" fill="#FF8B7B"/>
    <path d="M471.671 320.866L475.913 322.699C476.732 323.055 477.65 323.109 478.505 322.852C479.36 322.595 480.096 322.043 480.582 321.294L483.526 316.718L472.595 309.613L469.745 315.835C469.536 316.291 469.42 316.784 469.404 317.286C469.388 317.787 469.472 318.286 469.652 318.755C469.831 319.223 470.102 319.651 470.449 320.014C470.796 320.376 471.211 320.666 471.671 320.866Z" fill="#FF8B7B"/>
    <path d="M425.083 159.396C417.737 160.399 420.199 162.728 436.576 164.815C452.953 166.902 457.061 165.256 457.061 165.256C457.061 165.256 438.249 159.356 425.083 159.396Z" fill="#263238"/>
    <path d="M462.132 168.441C462.132 168.441 447.749 162.594 425.083 159.396C424.802 156.064 427.545 152.532 427.545 152.532C427.545 152.532 422.487 150.003 424.053 145.173C425.618 140.343 432.857 140.972 441.299 137.145C444.39 140.544 452.887 146.069 458.693 146.779C460.125 149.736 463.872 157.135 469.946 159.985C469.852 163.209 463.818 163.999 463.818 163.999C463.845 164.814 463.71 165.626 463.421 166.389C463.132 167.152 462.693 167.849 462.132 168.441Z" fill="#FF9595"/>
    <path opacity="0.3" d="M463.804 163.999C458.546 159.222 439.868 150.498 427.545 152.532C427.545 152.532 424.802 156.078 425.083 159.396C447.748 162.594 462.132 168.441 462.132 168.441C462.691 167.848 463.127 167.15 463.414 166.388C463.701 165.625 463.834 164.813 463.804 163.999Z" fill="black"/>
    <path d="M443.467 146.966C441.848 155.208 436.228 156.693 435.439 156.613C434.65 156.533 429.833 154.097 431.425 145.909L437.888 144.116L443.467 146.966Z" fill="white"/>
    <path d="M336.842 282.024C336.024 282.023 335.236 281.723 334.624 281.181C334.013 280.639 333.622 279.892 333.523 279.08L323.97 201.222C323.862 200.335 324.111 199.441 324.661 198.737C325.212 198.033 326.02 197.577 326.907 197.469C327.794 197.361 328.688 197.609 329.392 198.16C330.096 198.711 330.552 199.519 330.66 200.406L340.16 278.304C340.216 278.74 340.185 279.183 340.07 279.607C339.954 280.031 339.755 280.428 339.485 280.775C339.216 281.122 338.88 281.412 338.497 281.629C338.115 281.846 337.693 281.984 337.256 282.037L336.842 282.024Z" fill="#263238"/>
    <path d="M334.714 246.995C333.898 243.998 335.437 243.556 333.951 239.301C333.162 237.04 335.758 235.287 336.079 237.107C337.283 243.73 346.074 247.436 343.023 251.624C339.972 255.812 335.517 249.992 334.714 246.995Z" fill="#FF8B7B"/>
    <path d="M394.347 134.852C396.971 93.0284 365.193 56.9961 323.369 54.3721C281.545 51.7481 245.513 83.526 242.889 125.35C240.265 167.174 272.043 203.206 313.867 205.83C355.691 208.454 391.723 176.676 394.347 134.852Z" fill="#FF9595"/>
    <path d="M376.361 150.552C387.664 118.651 370.966 83.6277 339.065 72.3247C307.164 61.0217 272.14 77.7197 260.837 109.621C249.534 141.522 266.232 176.545 298.133 187.848C330.034 199.151 365.058 182.453 376.361 150.552Z" fill="white"/>
    <path d="M358.41 119.738C353.379 112.941 343.692 119.738 340.789 126.883C340 128.655 339.482 130.536 339.25 132.462L336.052 110.639L333.523 89.9537C333.257 88.1787 332.308 86.5776 330.88 85.4913C329.451 84.405 327.654 83.9191 325.873 84.137C324.091 84.3549 322.465 85.2594 321.34 86.6581C320.215 88.0568 319.68 89.8393 319.849 91.6262L319.22 86.4749C319.11 85.5779 318.823 84.7115 318.378 83.9252C317.932 83.1388 317.336 82.4479 316.624 81.8919C315.911 81.3359 315.096 80.9257 314.225 80.6847C313.354 80.4437 312.444 80.3767 311.547 80.4874C310.65 80.5981 309.783 80.8844 308.997 81.3299C308.211 81.7754 307.52 82.3715 306.964 83.084C306.408 83.7966 305.998 84.6116 305.757 85.4827C305.516 86.3538 305.449 87.2638 305.559 88.1608L306.442 95.3325C306.322 94.3618 305.997 93.4278 305.489 92.5925C304.98 91.7572 304.299 91.0398 303.491 90.488C302.684 89.9361 301.768 89.5625 300.805 89.392C299.842 89.2214 298.854 89.2578 297.906 89.4988C296.283 89.9152 294.867 90.9077 293.921 92.2913C292.976 93.6748 292.566 95.3549 292.768 97.0184L293.865 105.97C293.747 104.998 293.423 104.063 292.915 103.226C292.407 102.39 291.726 101.672 290.918 101.119C290.11 100.567 289.194 100.194 288.23 100.024C287.266 99.8546 286.277 99.8927 285.329 100.136C283.708 100.55 282.293 101.54 281.35 102.922C280.407 104.304 279.999 105.982 280.204 107.642L282.398 125.531L283.964 138.363L286.038 155.208C287.51 167.25 292.206 174.047 299.177 177.111C309.881 181.807 329.483 181.861 338.287 174.716C345.994 168.468 350.944 153.415 352.135 144.089C353.326 134.763 360.457 122.48 358.41 119.738Z" fill="#263238"/>
    <path d="M369.974 77.2617L357.481 67.498L267.235 182.966L279.728 192.73L369.974 77.2617Z" fill="#FF9595"/>
    <path d="M107.629 240.947V216.595H125.25V219.432H110.853V226.898H124.327V229.761H110.853V238.044H125.772V240.92L107.629 240.947Z" fill="#344767"/>
    <path d="M129.853 240.947V223.299H132.529V225.975C132.979 225.025 133.627 224.181 134.428 223.5C134.988 223.104 135.657 222.893 136.342 222.898C137.439 222.928 138.505 223.266 139.419 223.874L138.389 226.644C137.73 226.234 136.971 226.012 136.195 226.002C135.56 225.991 134.941 226.199 134.442 226.59C133.905 227.002 133.511 227.574 133.318 228.223C132.981 229.356 132.814 230.533 132.823 231.715V240.947H129.853Z" fill="#344767"/>
    <path d="M141.186 240.947V223.299H143.862V225.975C144.329 224.998 145.005 224.134 145.842 223.446C146.402 223.052 147.07 222.842 147.755 222.844C148.852 222.874 149.919 223.213 150.833 223.821L149.802 226.59C149.143 226.181 148.384 225.959 147.608 225.948C146.974 225.938 146.355 226.146 145.855 226.537C145.318 226.949 144.924 227.52 144.731 228.169C144.395 229.302 144.228 230.479 144.236 231.661V240.894L141.186 240.947Z" fill="#344767"/>
    <path d="M151.435 232.13C151.435 228.865 152.327 226.443 154.111 224.864C155.649 223.544 157.624 222.842 159.65 222.898C160.755 222.858 161.856 223.051 162.881 223.464C163.907 223.876 164.835 224.499 165.604 225.293C166.405 226.183 167.022 227.223 167.419 228.353C167.816 229.483 167.986 230.68 167.919 231.876C168.002 233.716 167.649 235.55 166.889 237.228C166.225 238.511 165.19 239.564 163.919 240.251C162.614 240.976 161.143 241.35 159.65 241.335C158.543 241.38 157.439 241.192 156.409 240.784C155.379 240.376 154.446 239.757 153.67 238.967C152.057 237.069 151.255 234.614 151.435 232.13ZM154.512 232.13C154.376 233.942 154.899 235.743 155.984 237.201C156.448 237.729 157.019 238.153 157.659 238.443C158.299 238.734 158.994 238.884 159.697 238.884C160.4 238.884 161.095 238.734 161.735 238.443C162.376 238.153 162.947 237.729 163.41 237.201C164.511 235.709 165.038 233.871 164.895 232.023C165.023 230.246 164.494 228.485 163.41 227.072C162.946 226.545 162.374 226.123 161.734 225.834C161.094 225.545 160.4 225.396 159.697 225.396C158.995 225.396 158.301 225.545 157.66 225.834C157.02 226.123 156.449 226.545 155.984 227.072C154.902 228.526 154.38 230.322 154.512 232.13Z" fill="#344767"/>
    <path d="M171.438 240.947V223.299H174.113V225.975C174.56 225.022 175.208 224.177 176.013 223.5C176.573 223.104 177.242 222.893 177.927 222.898C179.024 222.928 180.09 223.266 181.004 223.874L179.974 226.644C179.314 226.236 178.556 226.014 177.78 226.002C177.141 225.992 176.518 226.199 176.013 226.59C175.48 227.004 175.092 227.575 174.903 228.223C174.56 229.355 174.393 230.532 174.408 231.715V240.947H171.438Z" fill="#344767"/>
    <path d="M118.748 271.199V268.604C118.151 269.545 117.322 270.317 116.34 270.845C115.358 271.372 114.256 271.637 113.141 271.614C112.142 271.621 111.152 271.416 110.238 271.012C109.444 270.699 108.747 270.182 108.217 269.513C107.765 268.842 107.451 268.087 107.294 267.292C107.152 266.367 107.094 265.431 107.12 264.496V253.551H110.104V263.332C110.07 264.388 110.133 265.445 110.291 266.489C110.453 267.232 110.875 267.892 111.482 268.349C112.145 268.808 112.938 269.043 113.743 269.018C114.632 269.021 115.505 268.785 116.272 268.336C117.022 267.908 117.609 267.245 117.945 266.449C118.314 265.342 118.478 264.177 118.426 263.011V253.551H121.424V271.199H118.748Z" fill="#344767"/>
    <path d="M126.106 271.199V253.551H128.782V256.053C129.385 255.122 130.221 254.364 131.206 253.854C132.192 253.345 133.294 253.102 134.402 253.15C135.408 253.134 136.406 253.33 137.332 253.725C138.125 254.032 138.819 254.551 139.339 255.224C139.797 255.894 140.116 256.649 140.276 257.445C140.41 258.406 140.463 259.377 140.436 260.348V271.199H137.453V260.495C137.488 259.589 137.366 258.684 137.091 257.819C136.857 257.212 136.423 256.702 135.86 256.374C135.229 256.004 134.505 255.818 133.773 255.839C132.561 255.819 131.383 256.247 130.468 257.043C129.545 257.859 129.13 259.398 129.13 261.659V271.293L126.106 271.199Z" fill="#344767"/>
    <path d="M156.546 269.018C155.599 269.863 154.513 270.538 153.335 271.012C152.283 271.409 151.167 271.608 150.043 271.601C148.426 271.705 146.83 271.194 145.574 270.169C145.064 269.716 144.659 269.157 144.388 268.53C144.118 267.903 143.988 267.225 144.009 266.543C144.001 265.739 144.193 264.945 144.566 264.233C144.94 263.521 145.484 262.913 146.15 262.462C146.807 262.013 147.535 261.678 148.304 261.472C149.187 261.274 150.08 261.126 150.98 261.03C152.794 260.865 154.586 260.52 156.332 260C156.332 259.585 156.332 259.331 156.332 259.211C156.381 258.747 156.332 258.279 156.186 257.836C156.041 257.393 155.803 256.986 155.489 256.642C154.516 255.894 153.301 255.532 152.077 255.625C150.987 255.546 149.899 255.803 148.96 256.361C148.169 257.053 147.643 257.999 147.474 259.037L144.558 258.635C144.755 257.535 145.214 256.498 145.896 255.611C146.597 254.772 147.526 254.154 148.572 253.832C149.863 253.392 151.221 253.179 152.586 253.203C153.834 253.16 155.08 253.341 156.265 253.738C157.061 253.996 157.776 254.457 158.339 255.076C158.811 255.669 159.132 256.366 159.276 257.11C159.396 258.024 159.446 258.945 159.423 259.866V263.88C159.378 265.666 159.44 267.454 159.61 269.232C159.748 269.974 160.005 270.688 160.373 271.346H157.242C156.861 270.623 156.624 269.832 156.546 269.018ZM156.292 262.328C154.712 262.888 153.074 263.265 151.408 263.452C150.495 263.545 149.597 263.747 148.732 264.054C148.25 264.253 147.84 264.594 147.555 265.031C147.278 265.452 147.133 265.946 147.14 266.449C147.133 266.827 147.209 267.202 147.364 267.547C147.519 267.891 147.749 268.198 148.036 268.443C148.797 269.035 149.751 269.321 150.712 269.246C151.787 269.265 152.848 269.002 153.79 268.483C154.65 268.015 155.342 267.29 155.77 266.409C156.14 265.46 156.304 264.443 156.252 263.425L156.292 262.328Z" fill="#344767"/>
    <path d="M175.532 271.199V268.604C174.936 269.545 174.106 270.317 173.124 270.845C172.142 271.372 171.04 271.637 169.926 271.614C168.922 271.62 167.928 271.415 167.009 271.012C166.221 270.695 165.529 270.179 165.002 269.513C164.538 268.848 164.223 268.09 164.079 267.292C163.931 266.368 163.868 265.432 163.891 264.496V253.551H166.889V263.332C166.855 264.388 166.918 265.445 167.076 266.489C167.237 267.232 167.66 267.892 168.267 268.349C168.93 268.808 169.722 269.043 170.528 269.018C171.417 269.021 172.29 268.785 173.057 268.336C173.806 267.908 174.394 267.245 174.729 266.449C175.099 265.342 175.262 264.177 175.211 263.011V253.551H178.208V271.199H175.532Z" fill="#344767"/>
    <path d="M189.42 268.523L189.862 271.199C189.12 271.37 188.362 271.46 187.601 271.467C186.728 271.512 185.859 271.337 185.072 270.958C184.517 270.659 184.072 270.19 183.801 269.62C183.486 268.476 183.364 267.286 183.439 266.101V255.946H181.245V253.551H183.439V249.176L186.41 247.383V253.551H189.42V255.879H186.41V266.262C186.374 266.816 186.428 267.372 186.57 267.908C186.676 268.152 186.859 268.354 187.092 268.483C187.404 268.65 187.756 268.729 188.109 268.711C188.55 268.679 188.988 268.617 189.42 268.523Z" fill="#344767"/>
    <path d="M192.351 271.199V246.834H195.348V255.558C195.99 254.783 196.798 254.162 197.713 253.743C198.629 253.324 199.626 253.116 200.633 253.136C201.817 253.105 202.99 253.372 204.045 253.912C204.952 254.373 205.681 255.121 206.119 256.04C206.599 257.321 206.808 258.688 206.734 260.054V271.239H203.75V260.054C203.85 258.881 203.501 257.714 202.774 256.789C202.411 256.437 201.978 256.164 201.503 255.989C201.028 255.814 200.522 255.74 200.017 255.772C199.137 255.772 198.273 256.007 197.515 256.454C196.771 256.878 196.187 257.537 195.856 258.328C195.477 259.368 195.304 260.472 195.348 261.579V271.239L192.351 271.199Z" fill="#344767"/>
    <path d="M210.16 262.368C210.16 259.104 211.052 256.686 212.836 255.116C214.378 253.795 216.357 253.094 218.388 253.15C219.5 253.109 220.608 253.302 221.641 253.717C222.674 254.132 223.608 254.759 224.382 255.558C225.185 256.45 225.802 257.492 226.2 258.625C226.597 259.757 226.766 260.956 226.697 262.154C226.779 263.993 226.431 265.826 225.68 267.506C225.016 268.797 223.976 269.857 222.697 270.544C221.396 271.267 219.93 271.64 218.442 271.627C217.331 271.674 216.224 271.486 215.191 271.075C214.158 270.665 213.223 270.042 212.448 269.246C210.805 267.346 209.982 264.873 210.16 262.368ZM213.237 262.368C213.101 264.185 213.624 265.99 214.709 267.453C215.166 267.994 215.739 268.426 216.385 268.717C217.031 269.009 217.733 269.153 218.442 269.139C219.147 269.152 219.847 269.006 220.489 268.712C221.131 268.418 221.698 267.983 222.148 267.439C223.241 265.949 223.763 264.117 223.62 262.275C223.748 260.494 223.22 258.728 222.135 257.311C221.671 256.782 221.1 256.358 220.46 256.068C219.82 255.778 219.125 255.628 218.422 255.628C217.719 255.628 217.024 255.778 216.383 256.068C215.743 256.358 215.172 256.782 214.709 257.311C213.621 258.762 213.098 260.56 213.237 262.368Z" fill="#344767"/>
    <path d="M230.136 271.199V253.551H232.812V256.227C233.254 255.272 233.903 254.426 234.712 253.752C235.271 253.356 235.94 253.146 236.625 253.15C237.721 253.175 238.788 253.509 239.702 254.113L238.672 256.896C238.016 256.477 237.256 256.25 236.478 256.24C235.844 256.234 235.227 256.442 234.725 256.829C234.191 257.244 233.798 257.815 233.601 258.462C233.266 259.595 233.099 260.772 233.106 261.954V271.199H230.136Z" fill="#344767"/>
    <path d="M241.549 250.273V246.834H244.546V250.273H241.549ZM241.549 271.199V253.551H244.546V271.199H241.549Z" fill="#344767"/>
    <path d="M247.53 271.199V268.777L258.769 255.879C257.431 255.879 256.361 255.973 255.398 255.973H248.199V253.551H262.623V255.558L253.07 266.757L251.223 268.804C252.561 268.697 253.819 268.644 254.996 268.644H263.158V271.226L247.53 271.199Z" fill="#344767"/>
    <path d="M278.197 265.513L281.287 265.901C280.895 267.563 279.952 269.044 278.611 270.102C277.142 271.145 275.368 271.672 273.567 271.601C272.432 271.659 271.298 271.475 270.239 271.063C269.181 270.65 268.222 270.017 267.426 269.206C265.816 267.363 264.998 264.958 265.151 262.516C264.997 259.999 265.821 257.521 267.453 255.598C268.208 254.785 269.129 254.144 270.154 253.719C271.18 253.294 272.284 253.096 273.393 253.136C274.475 253.1 275.552 253.296 276.552 253.711C277.551 254.127 278.45 254.752 279.187 255.545C280.774 257.435 281.574 259.864 281.421 262.328C281.421 262.502 281.421 262.77 281.421 263.131H268.255C268.261 264.76 268.844 266.334 269.901 267.573C270.373 268.076 270.946 268.474 271.583 268.742C272.219 269.009 272.904 269.14 273.594 269.125C274.601 269.152 275.588 268.846 276.404 268.256C277.255 267.535 277.878 266.582 278.197 265.513ZM268.376 260.683H278.223C278.191 259.48 277.8 258.315 277.1 257.338C276.657 256.783 276.092 256.339 275.449 256.039C274.806 255.74 274.102 255.593 273.393 255.612C272.755 255.59 272.119 255.697 271.524 255.927C270.928 256.157 270.385 256.505 269.928 256.95C268.951 257.949 268.395 259.285 268.376 260.683Z" fill="#344767"/>
    <path d="M296.488 271.199V268.938C295.983 269.789 295.258 270.486 294.389 270.958C293.519 271.429 292.538 271.656 291.551 271.614C290.17 271.62 288.819 271.215 287.67 270.45C286.47 269.644 285.519 268.518 284.927 267.199C284.261 265.691 283.932 264.056 283.964 262.409C283.942 260.765 284.242 259.133 284.847 257.605C285.368 256.252 286.305 255.099 287.523 254.314C288.693 253.551 290.061 253.151 291.457 253.163C292.448 253.146 293.427 253.376 294.307 253.832C295.101 254.26 295.791 254.859 296.327 255.585V246.848H299.311V271.213L296.488 271.199ZM287.041 262.395C286.9 264.196 287.403 265.988 288.46 267.453C288.859 267.97 289.369 268.39 289.953 268.681C290.537 268.973 291.179 269.13 291.832 269.139C292.472 269.142 293.106 268.999 293.683 268.721C294.26 268.443 294.766 268.036 295.163 267.533C296.177 266.112 296.651 264.376 296.501 262.636C296.677 260.752 296.205 258.864 295.163 257.284C294.761 256.754 294.241 256.324 293.644 256.029C293.047 255.734 292.39 255.582 291.724 255.585C291.08 255.579 290.444 255.723 289.865 256.006C289.287 256.29 288.783 256.704 288.393 257.217C287.363 258.738 286.886 260.565 287.041 262.395Z" fill="#344767"/>
    </svg>
