<svg width="603" height="603" viewBox="0 0 603 603" fill="none" xmlns="http://www.w3.org/2000/svg">
<path d="M257.698 387.994L256.589 394.784L255.407 402.08L244.553 468.615H226.812L237.654 402.08L238.848 394.784L239.958 387.994H257.698Z" fill="#EBEBEB"/>
<path d="M255.129 387.994C254.189 394.736 253.188 401.465 252.175 408.183L249.039 428.359L245.759 448.499L244.07 458.557L242.31 468.615L243.757 458.509L245.264 448.415L248.436 428.25L251.716 408.11C252.79 401.393 253.923 394.687 255.129 387.994Z" fill="#C7C7C7"/>
<path d="M256.588 394.784L255.407 402.08H237.654L238.848 394.784H256.588Z" fill="#C7C7C7"/>
<path d="M345.302 387.994L346.411 394.784L347.593 402.08L358.447 468.615H376.187L365.345 402.08L364.152 394.784L363.042 387.994H345.302Z" fill="#EBEBEB"/>
<path d="M347.931 387.994C348.859 394.736 349.872 401.465 350.885 408.183L354.009 428.359L357.289 448.499L358.99 458.557L360.75 468.615L359.303 458.509L357.796 448.415L354.66 428.25L351.38 408.11C350.258 401.393 349.125 394.687 347.931 387.994Z" fill="#C7C7C7"/>
<path d="M346.411 394.784H364.151L365.345 402.08H347.593L346.411 394.784Z" fill="#C7C7C7"/>
<path d="M257.046 369.277H242.984L244.733 356.156H255.298L257.046 369.277Z" fill="#C7C7C7"/>
<path d="M262.934 349.085C264.192 341.955 259.433 335.155 252.303 333.897C245.173 332.638 238.373 337.398 237.115 344.528C235.856 351.658 240.616 358.458 247.746 359.716C254.875 360.975 261.675 356.215 262.934 349.085Z" fill="#DBDBDB"/>
<path d="M259.721 349.088C260.991 343.728 257.676 338.354 252.316 337.084C246.956 335.814 241.581 339.129 240.311 344.489C239.041 349.849 242.357 355.223 247.717 356.493C253.076 357.763 258.451 354.448 259.721 349.088Z" fill="white"/>
<path d="M258.349 346.206C258.256 345.018 257.919 343.861 257.359 342.809C256.799 341.757 256.027 340.832 255.093 340.092C254.152 339.361 253.072 338.83 251.92 338.529C250.767 338.228 249.565 338.165 248.388 338.343C247.218 338.527 246.101 338.955 245.108 339.599C244.115 340.243 243.268 341.089 242.623 342.082C241.942 343.143 241.496 344.338 241.315 345.586C241.134 346.834 241.222 348.107 241.574 349.318C242.173 351.41 243.572 353.182 245.469 354.25C247.319 355.301 249.491 355.636 251.571 355.191C253.584 354.76 255.389 353.654 256.685 352.055C257.965 350.476 258.705 348.527 258.795 346.496C258.795 346.411 258.795 346.327 258.711 346.327C258.627 346.327 258.627 346.399 258.627 346.496C258.581 347.317 258.422 348.129 258.156 348.908C257.878 349.672 257.51 350.401 257.059 351.078C256.583 351.735 256.033 352.334 255.419 352.863C254.787 353.391 254.095 353.84 253.356 354.202C252.295 354.702 251.14 354.976 249.967 355.005C248.794 355.034 247.628 354.818 246.542 354.371C245.454 353.91 244.479 353.218 243.683 352.344C242.888 351.469 242.292 350.433 241.935 349.306C241.569 348.148 241.458 346.925 241.607 345.719C241.757 344.514 242.165 343.356 242.804 342.323C243.421 341.343 244.24 340.506 245.208 339.87C246.175 339.233 247.268 338.811 248.412 338.633C249.958 338.387 251.541 338.563 252.995 339.143C254.449 339.722 255.72 340.683 256.673 341.925C257.131 342.565 257.504 343.262 257.782 343.999C258.051 344.747 258.229 345.524 258.313 346.315C258.313 346.315 258.349 346.242 258.349 346.206Z" fill="#EBEBEB"/>
<path d="M257.18 346.218C257.094 345.201 256.798 344.212 256.313 343.313C255.827 342.415 255.162 341.626 254.358 340.996C253.551 340.376 252.629 339.923 251.646 339.662C250.663 339.401 249.637 339.338 248.629 339.477C247.622 339.627 246.657 339.988 245.799 340.537C244.941 341.085 244.208 341.809 243.648 342.661C243.054 343.569 242.66 344.594 242.493 345.668C242.327 346.741 242.392 347.837 242.684 348.884C242.933 349.789 243.36 350.636 243.939 351.376C244.519 352.115 245.24 352.731 246.06 353.189C247.671 354.11 249.569 354.394 251.379 353.985C253.125 353.609 254.688 352.642 255.805 351.247C256.911 349.875 257.549 348.184 257.626 346.423C257.626 346.351 257.626 346.279 257.554 346.279C257.481 346.279 257.457 346.339 257.457 346.423C257.359 347.837 256.884 349.198 256.082 350.366C255.281 351.535 254.182 352.468 252.898 353.068C251.986 353.513 250.989 353.757 249.974 353.787C248.959 353.816 247.95 353.628 247.013 353.237C246.071 352.839 245.226 352.239 244.539 351.481C243.852 350.723 243.338 349.824 243.033 348.847C242.72 347.845 242.63 346.786 242.767 345.745C242.904 344.703 243.267 343.704 243.829 342.817C244.36 341.981 245.067 341.269 245.9 340.732C246.733 340.195 247.672 339.845 248.653 339.706C249.966 339.511 251.307 339.667 252.54 340.158C253.773 340.65 254.854 341.459 255.672 342.504C256.066 343.048 256.39 343.64 256.637 344.265C256.863 344.905 257.021 345.568 257.107 346.242L257.18 346.218Z" fill="#EBEBEB"/>
<path d="M256.009 346.23C255.923 345.383 255.664 344.562 255.249 343.817C254.834 343.073 254.272 342.421 253.597 341.901C252.242 340.87 250.536 340.411 248.846 340.623C248 340.734 247.187 341.024 246.462 341.473C245.736 341.922 245.114 342.52 244.637 343.227C244.121 343.991 243.775 344.857 243.623 345.767C243.471 346.676 243.517 347.607 243.756 348.498C243.959 349.274 244.317 350.001 244.808 350.635C245.299 351.269 245.914 351.798 246.615 352.188C247.997 352.961 249.617 353.193 251.161 352.839C252.65 352.493 253.971 351.641 254.9 350.427C255.819 349.263 256.358 347.844 256.443 346.363C256.443 346.291 256.444 346.23 256.359 346.23C256.345 346.232 256.331 346.236 256.318 346.243C256.306 346.25 256.295 346.259 256.286 346.271C256.277 346.282 256.27 346.295 256.266 346.308C256.262 346.322 256.261 346.337 256.263 346.351C256.169 347.538 255.765 348.679 255.092 349.661C254.419 350.643 253.501 351.431 252.428 351.947C251.659 352.327 250.818 352.538 249.961 352.567C249.105 352.596 248.251 352.442 247.459 352.116C246.658 351.785 245.94 351.28 245.358 350.637C244.777 349.995 244.345 349.231 244.094 348.401C243.844 347.556 243.78 346.668 243.904 345.796C244.029 344.924 244.341 344.089 244.818 343.348C245.273 342.658 245.872 342.075 246.573 341.638C247.275 341.201 248.062 340.92 248.882 340.815C249.966 340.688 251.064 340.816 252.09 341.189C253.122 341.581 254.028 342.248 254.707 343.119C255.043 343.563 255.319 344.05 255.527 344.566C255.73 345.095 255.871 345.645 255.949 346.206C255.949 346.206 256.021 346.242 256.009 346.23Z" fill="#EBEBEB"/>
<path d="M254.851 346.242C254.674 344.883 253.968 343.648 252.886 342.805C251.803 341.996 250.455 341.625 249.111 341.768C248.427 341.848 247.768 342.07 247.176 342.422C246.583 342.773 246.072 343.244 245.674 343.806C245.242 344.426 244.947 345.13 244.81 345.873C244.673 346.615 244.696 347.379 244.878 348.112C245.038 348.757 245.329 349.362 245.734 349.889C246.138 350.416 246.648 350.854 247.23 351.175C248.376 351.809 249.717 351.994 250.992 351.694C252.205 351.4 253.281 350.703 254.043 349.716C254.769 348.752 255.19 347.592 255.249 346.387C255.251 346.374 255.25 346.362 255.247 346.349C255.244 346.337 255.238 346.325 255.23 346.315C255.222 346.305 255.212 346.297 255.201 346.29C255.19 346.284 255.178 346.28 255.165 346.279C255.165 346.279 255.081 346.279 255.069 346.375C254.996 347.33 254.681 348.252 254.154 349.051C253.626 349.851 252.903 350.503 252.054 350.946C251.433 351.27 250.749 351.456 250.049 351.489C249.349 351.522 248.65 351.403 248.001 351.139C247.344 350.868 246.756 350.451 246.281 349.921C245.807 349.39 245.459 348.76 245.264 348.076C245.071 347.389 245.029 346.67 245.141 345.966C245.254 345.262 245.518 344.591 245.915 343.999C246.288 343.455 246.774 342.997 247.34 342.658C247.906 342.319 248.539 342.106 249.195 342.033C250.053 341.956 250.918 342.067 251.728 342.359C252.542 342.66 253.262 343.172 253.814 343.842C254.079 344.197 254.302 344.582 254.478 344.988C254.649 345.412 254.774 345.852 254.851 346.303V346.242Z" fill="#EBEBEB"/>
<path d="M359.714 369.277H345.64L347.388 356.156H357.965L359.714 369.277Z" fill="#C7C7C7"/>
<path d="M365.854 347.94C366.94 340.772 362.01 334.081 354.843 332.995C347.675 331.909 340.984 336.839 339.898 344.007C338.812 351.175 343.742 357.865 350.91 358.951C358.077 360.037 364.768 355.107 365.854 347.94Z" fill="#DBDBDB"/>
<path d="M362.527 348.286C363.358 342.841 359.617 337.753 354.171 336.923C348.726 336.093 343.638 339.834 342.808 345.279C341.978 350.725 345.719 355.812 351.164 356.642C356.61 357.473 361.697 353.732 362.527 348.286Z" fill="white"/>
<path d="M361.016 346.206C360.921 345.018 360.583 343.863 360.023 342.811C359.463 341.759 358.692 340.834 357.76 340.092C356.818 339.362 355.739 338.831 354.586 338.53C353.434 338.229 352.232 338.166 351.054 338.343C349.885 338.527 348.767 338.955 347.774 339.599C346.781 340.244 345.935 341.089 345.29 342.082C344.603 343.141 344.155 344.336 343.973 345.585C343.792 346.834 343.883 348.107 344.24 349.318C344.835 351.413 346.235 353.187 348.136 354.25C349.985 355.302 352.157 355.637 354.238 355.191C356.251 354.761 358.055 353.654 359.351 352.055C360.632 350.476 361.371 348.527 361.462 346.496C361.462 346.411 361.462 346.327 361.378 346.327C361.293 346.327 361.293 346.399 361.281 346.496C361.233 347.316 361.079 348.127 360.823 348.908C360.546 349.675 360.173 350.405 359.713 351.079C358.77 352.422 357.494 353.499 356.011 354.202C354.952 354.706 353.8 354.981 352.628 355.01C351.456 355.039 350.291 354.821 349.209 354.371C348.119 353.911 347.141 353.219 346.344 352.345C345.547 351.47 344.948 350.434 344.59 349.306C344.226 348.147 344.116 346.923 344.268 345.718C344.42 344.513 344.83 343.355 345.47 342.323C346.087 341.343 346.907 340.506 347.874 339.87C348.842 339.233 349.934 338.811 351.078 338.633C352.624 338.387 354.208 338.563 355.662 339.143C357.116 339.722 358.386 340.683 359.339 341.925C359.794 342.568 360.166 343.265 360.449 343.999C360.714 344.748 360.888 345.525 360.968 346.315C360.968 346.315 361.016 346.242 361.016 346.206Z" fill="#EBEBEB"/>
<path d="M359.846 346.218C359.754 345.202 359.457 344.215 358.972 343.317C358.487 342.42 357.824 341.63 357.024 340.996C356.217 340.376 355.296 339.923 354.312 339.662C353.329 339.401 352.303 339.338 351.296 339.477C350.286 339.625 349.319 339.986 348.459 340.535C347.598 341.083 346.863 341.808 346.303 342.661C345.708 343.569 345.314 344.594 345.148 345.668C344.981 346.741 345.046 347.837 345.338 348.884C345.587 349.789 346.014 350.636 346.594 351.376C347.173 352.115 347.894 352.731 348.715 353.189C350.326 354.108 352.223 354.392 354.033 353.985C355.784 353.611 357.352 352.644 358.471 351.247C359.572 349.872 360.21 348.183 360.292 346.423C360.292 346.351 360.292 346.279 360.208 346.279C360.123 346.279 360.124 346.339 360.111 346.423C360.015 347.836 359.543 349.197 358.744 350.365C357.944 351.534 356.847 352.467 355.565 353.068C354.652 353.513 353.655 353.757 352.64 353.787C351.626 353.816 350.616 353.628 349.68 353.237C348.734 352.841 347.887 352.242 347.198 351.484C346.508 350.726 345.993 349.826 345.688 348.847C345.379 347.844 345.29 346.786 345.427 345.745C345.565 344.705 345.925 343.706 346.484 342.817C347.017 341.983 347.724 341.273 348.557 340.736C349.389 340.199 350.327 339.848 351.308 339.706C352.624 339.505 353.971 339.658 355.208 340.15C356.446 340.642 357.531 341.454 358.351 342.504C358.749 343.045 359.073 343.637 359.315 344.265C359.553 344.902 359.711 345.566 359.786 346.242C359.797 346.243 359.808 346.24 359.818 346.236C359.829 346.232 359.838 346.226 359.846 346.218Z" fill="#EBEBEB"/>
<path d="M358.676 346.23C358.584 345.384 358.323 344.565 357.909 343.821C357.495 343.078 356.935 342.425 356.264 341.901C354.907 340.872 353.203 340.413 351.513 340.622C350.671 340.737 349.863 341.029 349.142 341.478C348.421 341.927 347.803 342.523 347.328 343.227C346.813 343.992 346.466 344.857 346.313 345.766C346.159 346.675 346.201 347.606 346.435 348.498C346.644 349.273 347.006 349.999 347.498 350.632C347.991 351.266 348.606 351.795 349.306 352.188C350.684 352.96 352.3 353.192 353.84 352.839C355.332 352.493 356.657 351.641 357.591 350.427C358.513 349.265 359.048 347.844 359.123 346.363C359.123 346.291 359.123 346.23 359.05 346.23C359.036 346.232 359.022 346.236 359.009 346.243C358.997 346.25 358.986 346.259 358.977 346.271C358.968 346.282 358.961 346.295 358.957 346.308C358.953 346.322 358.952 346.337 358.954 346.351C358.858 347.537 358.453 348.677 357.781 349.659C357.108 350.641 356.19 351.429 355.119 351.947C354.35 352.327 353.509 352.538 352.653 352.567C351.796 352.596 350.943 352.442 350.15 352.116C349.349 351.785 348.631 351.279 348.05 350.637C347.468 349.995 347.036 349.231 346.785 348.401C346.535 347.556 346.471 346.668 346.596 345.796C346.721 344.924 347.032 344.089 347.509 343.348C347.96 342.657 348.557 342.073 349.256 341.636C349.956 341.199 350.742 340.919 351.561 340.815C352.649 340.687 353.752 340.815 354.781 341.189C355.814 341.581 356.719 342.248 357.398 343.119C357.734 343.563 358.01 344.05 358.218 344.566C358.41 345.098 358.551 345.648 358.64 346.206C358.649 346.218 358.662 346.226 358.676 346.23Z" fill="#EBEBEB"/>
<path d="M357.506 346.242C357.423 345.569 357.208 344.919 356.873 344.329C356.537 343.739 356.089 343.221 355.553 342.805C354.47 341.997 353.122 341.626 351.778 341.768C351.093 341.843 350.431 342.063 349.838 342.415C349.246 342.766 348.735 343.241 348.341 343.806C347.909 344.426 347.614 345.13 347.477 345.873C347.34 346.615 347.363 347.379 347.545 348.112C347.705 348.757 347.996 349.362 348.401 349.889C348.805 350.416 349.315 350.854 349.897 351.175C351.039 351.809 352.376 351.994 353.647 351.694C354.862 351.397 355.941 350.701 356.71 349.716C357.436 348.752 357.857 347.592 357.916 346.387C357.92 346.375 357.921 346.363 357.919 346.35C357.917 346.338 357.913 346.326 357.906 346.316C357.899 346.305 357.89 346.297 357.879 346.29C357.868 346.284 357.856 346.28 357.844 346.279C357.818 346.279 357.794 346.289 357.776 346.307C357.758 346.325 357.748 346.35 357.748 346.375C357.66 347.335 357.326 348.257 356.779 349.051C356.232 349.845 355.49 350.485 354.624 350.91C354.005 351.232 353.323 351.417 352.625 351.45C351.928 351.483 351.231 351.365 350.584 351.103C349.926 350.832 349.338 350.415 348.864 349.885C348.39 349.354 348.042 348.723 347.846 348.039C347.653 347.353 347.611 346.633 347.724 345.93C347.836 345.226 348.1 344.555 348.498 343.963C348.87 343.418 349.356 342.96 349.922 342.621C350.489 342.281 351.122 342.069 351.778 341.997C352.632 341.92 353.492 342.031 354.298 342.323C355.115 342.62 355.836 343.133 356.385 343.806C356.658 344.158 356.885 344.543 357.06 344.952C357.231 345.376 357.357 345.816 357.434 346.267C357.434 346.267 357.518 346.255 357.506 346.242Z" fill="#EBEBEB"/>
<path d="M389.9 362.596H213.088V396.412H389.9V362.596Z" fill="#DBDBDB"/>
<path d="M249.437 362.596L236.605 396.412H213.764L226.596 362.596H249.437Z" fill="#EBEBEB"/>
<path d="M296.242 362.596L283.41 396.412H260.568L273.4 362.596H296.242Z" fill="#EBEBEB"/>
<path d="M343.034 362.596L330.215 396.412H307.373L320.205 362.596H343.034Z" fill="#EBEBEB"/>
<path d="M389.851 362.596L377.019 396.412H354.178L367.01 362.596H389.851Z" fill="#EBEBEB"/>
<path d="M386.33 427.684H216.67V449.09H386.33V427.684Z" fill="#DBDBDB"/>
<path d="M251.536 427.684L239.234 449.078H217.321L229.635 427.684H251.536Z" fill="#EBEBEB"/>
<path d="M296.459 427.684L284.146 449.078H262.221L274.534 427.684H296.459Z" fill="#EBEBEB"/>
<path d="M341.358 427.684L329.045 449.078H307.132L319.445 427.684H341.358Z" fill="#EBEBEB"/>
<path d="M386.269 427.684L373.956 449.078H352.043L364.356 427.684H386.269Z" fill="#EBEBEB"/>
<path d="M564.167 201.534H427.672C427.672 201.534 441.203 164.571 462.031 164.571C482.858 164.571 489.383 190.077 489.383 190.077C489.383 190.077 503.433 176.221 514.986 176.221C526.54 176.221 536.562 194.54 536.562 194.54C536.562 194.54 552.879 184.687 564.167 201.534Z" fill="#EBEBEB"/>
<path d="M198.351 114.835H134.565C134.565 114.835 148.808 94.1885 160.048 94.1885C171.288 94.1885 174.593 107.949 174.593 107.949C174.593 107.949 182.516 101.533 189.861 102.679C197.205 103.824 198.351 114.835 198.351 114.835Z" fill="#EBEBEB"/>
<path d="M542.435 263.523H478.649C478.649 263.523 492.904 242.876 504.132 242.876C515.36 242.876 518.677 256.637 518.677 256.637C518.677 256.637 526.6 250.209 533.944 251.366C541.289 252.524 542.435 263.523 542.435 263.523Z" fill="#EBEBEB"/>
<path d="M163.087 166.585H38.833C38.833 166.585 55.8497 128.596 74.0482 126.22C92.2467 123.844 100.954 154.44 100.954 154.44C100.954 154.44 112.701 143.586 121.926 143.586C131.152 143.586 138.28 157.829 138.28 157.829C138.28 157.829 156.78 148.109 163.087 166.585Z" fill="#EBEBEB"/>
<path d="M43.3076 468.917L107.25 468.627L171.204 468.519L299.088 468.314L426.984 468.519L490.927 468.627L554.869 468.917L490.927 469.206L426.984 469.315L299.088 469.52L171.204 469.315L107.25 469.206L43.3076 468.917Z" fill="#263238"/>
<path d="M301.5 563.962C441.432 563.962 554.869 550.739 554.869 534.427C554.869 518.115 441.432 504.892 301.5 504.892C161.569 504.892 48.1318 518.115 48.1318 534.427C48.1318 550.739 161.569 563.962 301.5 563.962Z" fill="#EBEBEB"/>
<path d="M334.629 539.938C337.138 540.782 408.943 541.036 411.693 539.311C412.742 538.66 413.381 528.204 413.803 515.553C413.9 512.815 413.972 509.993 414.044 507.111L419.857 468.82L371.858 468.507L367.324 506.821L367.505 515.263C367.505 515.263 339.972 527.468 337.162 529.675C334.352 531.882 332.133 539.082 334.629 539.938Z" fill="#EB9481"/>
<path d="M334.629 539.938C337.138 540.782 408.943 541.036 411.693 539.311C412.959 538.515 413.658 523.247 414.044 507.123L367.324 506.833L367.505 515.275C367.505 515.275 339.972 527.48 337.162 529.687C334.352 531.894 332.133 539.082 334.629 539.938Z" fill="white"/>
<path d="M334.629 539.938C337.138 540.782 408.943 541.036 411.693 539.311C412.742 538.66 413.381 528.204 413.803 515.553L367.505 515.251C367.505 515.251 339.972 527.456 337.162 529.663C334.352 531.87 332.133 539.082 334.629 539.938Z" fill="#FF9595"/>
<path d="M335.679 537.068C347.739 536.815 396.292 536.923 408.207 537.587C408.304 537.587 408.304 537.659 408.207 537.671C396.28 538.178 347.702 537.671 335.666 537.261C335.413 537.249 335.425 537.068 335.679 537.068Z" fill="#263238"/>
<path d="M341.792 527.094C343.138 527.056 344.478 527.301 345.724 527.812C346.97 528.323 348.096 529.089 349.028 530.061C350.713 531.785 351.671 534.091 351.705 536.501C351.705 536.574 351.561 536.574 351.549 536.501C351.155 534.124 350.002 531.939 348.263 530.271C346.524 528.604 344.292 527.544 341.901 527.251C341.88 527.266 341.854 527.271 341.829 527.267C341.804 527.262 341.782 527.248 341.768 527.227C341.754 527.206 341.748 527.181 341.753 527.156C341.757 527.131 341.771 527.109 341.792 527.094Z" fill="#263238"/>
<path d="M362.837 516.433C367.661 516.433 373.233 518.11 376.211 522.053C376.332 522.21 376.115 522.367 375.97 522.295C371.748 520.073 367.301 518.306 362.704 517.024C362.626 517.007 362.558 516.959 362.515 516.891C362.472 516.823 362.458 516.741 362.475 516.663C362.493 516.584 362.541 516.516 362.609 516.473C362.676 516.43 362.759 516.416 362.837 516.433Z" fill="#263238"/>
<path d="M359.11 517.868C363.934 517.868 369.506 519.545 372.485 523.5C372.606 523.645 372.388 523.814 372.244 523.73C368.024 521.504 363.576 519.741 358.978 518.471C358.91 518.443 358.854 518.392 358.82 518.327C358.786 518.261 358.776 518.186 358.792 518.114C358.807 518.042 358.848 517.978 358.906 517.933C358.965 517.888 359.037 517.865 359.11 517.868Z" fill="#263238"/>
<path d="M355.384 519.316C360.208 519.255 365.78 520.98 368.77 524.936C368.879 525.08 368.662 525.249 368.517 525.177C364.3 522.943 359.852 521.175 355.251 519.907C355.173 519.889 355.105 519.841 355.062 519.773C355.019 519.705 355.004 519.623 355.022 519.545C355.04 519.466 355.088 519.398 355.155 519.355C355.223 519.312 355.305 519.298 355.384 519.316Z" fill="#263238"/>
<path d="M351.657 520.751C356.481 520.751 362.065 522.415 365.044 526.371C365.152 526.515 364.935 526.684 364.791 526.612C360.574 524.378 356.125 522.61 351.525 521.342C351.446 521.324 351.378 521.276 351.335 521.208C351.292 521.14 351.278 521.058 351.295 520.98C351.313 520.902 351.361 520.833 351.429 520.79C351.497 520.747 351.579 520.733 351.657 520.751Z" fill="#263238"/>
<path d="M405.216 526.142C410.631 526.142 410.583 534.584 405.216 534.584C399.849 534.584 399.765 526.106 405.216 526.142Z" fill="#263238"/>
<path d="M358.037 510.62C360.618 513.985 364.574 516.12 367.999 518.496C368.079 518.541 368.169 518.567 368.262 518.572C368.354 518.576 368.446 518.559 368.53 518.522C368.615 518.484 368.689 518.427 368.748 518.356C368.806 518.284 368.847 518.2 368.867 518.11C368.886 518.114 368.906 518.113 368.924 518.108C368.943 518.103 368.96 518.094 368.974 518.081C368.988 518.068 368.999 518.052 369.005 518.034C369.012 518.016 369.014 517.996 369.012 517.977C368.677 513.556 367.184 509.301 364.683 505.64C363.187 503.529 360.124 501.551 357.676 503.565C355.227 505.579 356.518 508.667 358.037 510.62ZM357.82 506.629C358.327 501.395 363.042 505.423 364.08 507.027C364.733 508.073 365.317 509.16 365.828 510.283C366.844 512.62 367.741 515.007 368.518 517.434C366.914 516.156 365.201 515.022 363.549 513.816C361.583 512.381 357.555 509.523 357.82 506.629Z" fill="#263238"/>
<path d="M386.137 514.962C385.775 511.814 382.181 511.127 379.649 511.597C375.31 512.507 371.286 514.536 367.975 517.483C367.957 517.493 367.943 517.508 367.933 517.526C367.923 517.544 367.918 517.565 367.918 517.585C367.918 517.606 367.923 517.626 367.933 517.644C367.943 517.662 367.957 517.677 367.975 517.688C367.924 517.765 367.892 517.854 367.883 517.947C367.873 518.039 367.886 518.132 367.921 518.219C367.955 518.305 368.01 518.382 368.08 518.443C368.15 518.503 368.234 518.546 368.324 518.568C372.449 519.219 376.766 520.437 380.975 519.774C383.436 519.436 386.487 517.941 386.137 514.962ZM374.788 518.279C372.75 518.013 370.748 517.639 368.758 517.446C371.038 516.301 373.257 515.034 375.645 514.154C376.792 513.698 377.969 513.32 379.166 513.02C381.024 512.598 387.222 512.948 383.99 517.073C382.097 519.34 377.213 518.58 374.788 518.279Z" fill="#263238"/>
<path d="M490.408 291.78C490.408 291.78 434.655 386.619 433.159 393.277C430.868 403.515 418.687 504.554 418.687 504.554L360.679 503.517C360.679 503.517 370.676 414.418 380.144 385.076C386.969 363.935 436.162 293.818 436.162 293.818L490.408 291.78Z" fill="#37474F"/>
<path d="M365.973 494.617C374.306 494.556 403.829 494.231 414.912 495.256C414.935 495.256 414.956 495.265 414.972 495.281C414.988 495.296 414.997 495.318 414.997 495.34C414.997 495.363 414.988 495.384 414.972 495.4C414.956 495.416 414.935 495.425 414.912 495.425C411.101 495.967 374.306 495.111 365.973 494.846C365.955 494.852 365.935 494.853 365.917 494.85C365.898 494.847 365.88 494.84 365.864 494.829C365.849 494.818 365.836 494.803 365.828 494.786C365.819 494.769 365.814 494.75 365.814 494.731C365.814 494.712 365.819 494.693 365.828 494.676C365.836 494.659 365.849 494.645 365.864 494.634C365.88 494.622 365.898 494.615 365.917 494.612C365.935 494.609 365.955 494.611 365.973 494.617Z" fill="#263238"/>
<path d="M480.893 300.487C477.275 306.216 473.379 311.823 469.641 317.504C465.902 323.184 462.188 328.876 458.509 334.605C451.169 346.038 443.997 357.575 436.994 369.217C433.599 374.575 430.69 380.226 428.299 386.101C426.122 392.006 424.487 398.098 423.415 404.299C422.269 410.535 421.521 416.818 420.822 423.101C420.066 429.79 419.318 436.48 418.579 443.169C417.051 456.837 415.523 470.529 413.996 484.245C413.803 485.922 413.622 487.61 413.453 489.286C413.453 489.54 413.863 489.588 413.899 489.286C415.6 475.683 417.023 462.043 418.579 448.415L420.894 428.13C421.606 421.823 422.293 415.515 423.306 409.232C424.211 403.052 425.578 396.949 427.395 390.973C429.383 384.781 432.056 378.831 435.366 373.233C442.084 361.643 449.199 350.247 456.314 338.886C463.43 327.526 470.726 315.972 478.239 304.72C479.156 303.333 480.097 301.946 481.062 300.584C481.194 300.475 480.965 300.378 480.893 300.487Z" fill="#263238"/>
<path d="M441.119 547.91C443.76 548.079 515.011 529.301 517.23 526.938C517.327 526.794 517.385 526.628 517.398 526.455C517.676 524.115 514.034 515.372 511.477 504.168C511.32 503.457 509.982 500.056 508.1 495.461C502.926 482.858 493.701 461.198 493.701 461.198L447.185 473.138L464.31 507.569L466.626 515.661C466.626 515.661 443.097 534.487 440.95 537.369C438.803 540.252 438.49 547.717 441.119 547.91Z" fill="#EB9481"/>
<path d="M441.119 547.91C443.76 548.079 515.011 529.301 517.23 526.938C517.327 526.794 517.385 526.628 517.398 526.455C517.676 524.116 514.034 515.372 511.477 504.168C511.32 503.457 509.981 500.056 508.1 495.461L464.322 507.521L466.638 515.613C466.638 515.613 443.109 534.439 440.962 537.321C438.815 540.204 438.49 547.717 441.119 547.91Z" fill="white"/>
<path d="M441.119 547.898C443.76 548.091 515.011 529.301 517.23 526.937C518.074 526.045 516.229 516.409 511.477 504.168L466.638 515.673C466.638 515.673 443.109 534.475 440.962 537.381C438.815 540.288 438.49 547.717 441.119 547.898Z" fill="#FF9595"/>
<path d="M441.396 544.859C452.974 541.554 499.984 529.301 511.682 526.901C511.778 526.901 511.79 526.901 511.682 526.986C500.285 530.507 453.179 542.386 441.432 545.076C441.203 545.112 441.155 544.931 441.396 544.859Z" fill="#263238"/>
<path d="M444.785 533.667C446.071 533.296 447.42 533.196 448.747 533.375C450.074 533.553 451.349 534.006 452.491 534.704C454.556 535.945 456.066 537.931 456.712 540.252C456.712 540.324 456.592 540.36 456.567 540.252C455.575 538.046 453.893 536.221 451.775 535.054C449.656 533.886 447.216 533.437 444.821 533.775C444.813 533.787 444.803 533.796 444.791 533.801C444.778 533.807 444.765 533.809 444.751 533.807C444.738 533.805 444.725 533.8 444.715 533.791C444.704 533.782 444.696 533.771 444.692 533.758C444.688 533.745 444.687 533.731 444.69 533.718C444.694 533.705 444.7 533.693 444.71 533.684C444.72 533.674 444.732 533.668 444.745 533.665C444.758 533.662 444.772 533.662 444.785 533.667Z" fill="#263238"/>
<path d="M462.416 518.001C467.059 516.723 472.896 516.964 476.78 520.027C476.936 520.148 476.78 520.365 476.611 520.329C471.98 519.241 467.245 518.655 462.489 518.58C462.422 518.571 462.361 518.541 462.314 518.494C462.267 518.446 462.237 518.385 462.229 518.319C462.221 518.252 462.235 518.185 462.268 518.128C462.302 518.07 462.354 518.026 462.416 518.001Z" fill="#263238"/>
<path d="M459.185 520.341C463.828 519.062 469.665 519.304 473.548 522.367C473.705 522.487 473.548 522.704 473.367 522.668C468.734 521.604 463.999 521.042 459.245 520.992C459.158 521 459.072 520.973 459.006 520.918C458.939 520.862 458.897 520.783 458.889 520.696C458.881 520.61 458.908 520.524 458.963 520.457C459.019 520.391 459.098 520.349 459.185 520.341Z" fill="#263238"/>
<path d="M455.94 522.68C460.596 521.402 466.421 521.643 470.316 524.706C470.461 524.827 470.316 525.032 470.135 525.008C465.504 523.923 460.769 523.341 456.013 523.271C455.941 523.269 455.873 523.24 455.82 523.192C455.767 523.143 455.734 523.078 455.725 523.007C455.716 522.935 455.733 522.864 455.773 522.804C455.812 522.744 455.872 522.7 455.94 522.68Z" fill="#263238"/>
<path d="M452.708 525.008C457.351 523.742 463.188 523.983 467.071 527.046C467.228 527.167 467.071 527.372 466.903 527.336C462.27 526.262 457.536 525.684 452.78 525.611C452.7 525.621 452.62 525.598 452.556 525.548C452.493 525.499 452.452 525.426 452.443 525.346C452.433 525.266 452.456 525.185 452.505 525.122C452.555 525.059 452.628 525.018 452.708 525.008Z" fill="#263238"/>
<path d="M505.845 516.614C511.079 515.264 513.177 523.404 507.931 524.743C502.685 526.081 500.599 517.953 505.845 516.614Z" fill="#263238"/>
<path d="M456.29 513.599C459.655 516.192 464.02 517.217 467.928 518.676C468.017 518.701 468.111 518.704 468.202 518.686C468.293 518.668 468.378 518.628 468.451 518.57C468.524 518.513 468.582 518.439 468.621 518.355C468.66 518.27 468.679 518.178 468.675 518.086C468.695 518.085 468.715 518.08 468.732 518.07C468.749 518.061 468.764 518.047 468.775 518.03C468.786 518.013 468.792 517.994 468.794 517.975C468.795 517.955 468.792 517.935 468.784 517.917C467.334 513.718 464.805 509.975 461.451 507.063C459.474 505.41 456 504.265 454.143 506.846C452.286 509.426 454.336 512.092 456.29 513.599ZM455.084 509.8C454.24 504.602 459.823 507.316 461.234 508.594C462.136 509.436 462.978 510.338 463.755 511.296C465.338 513.291 466.816 515.368 468.181 517.519C466.3 516.699 464.358 516.047 462.452 515.288C460.161 514.395 455.542 512.659 455.072 509.8H455.084Z" fill="#263238"/>
<path d="M484.571 510.645C483.425 507.69 479.747 507.943 477.443 509.053C473.475 511.028 470.097 514.015 467.651 517.712C467.638 517.727 467.629 517.746 467.625 517.765C467.621 517.785 467.623 517.805 467.629 517.825C467.635 517.844 467.645 517.861 467.66 517.875C467.674 517.889 467.692 517.899 467.711 517.905C467.685 517.993 467.679 518.086 467.695 518.177C467.712 518.267 467.749 518.353 467.804 518.427C467.859 518.501 467.93 518.561 468.013 518.602C468.095 518.643 468.186 518.665 468.278 518.664C472.439 518.242 476.925 518.315 480.82 516.638C483.1 515.662 485.668 513.43 484.571 510.645ZM474.44 516.747C472.414 517 470.376 517.157 468.41 517.483C470.268 515.741 472.212 514.095 474.235 512.55C475.228 511.82 476.268 511.155 477.347 510.56C479.035 509.668 485.126 508.438 483.003 513.249C481.785 515.915 476.877 516.445 474.44 516.747Z" fill="#263238"/>
<path d="M461.126 505.314L513.249 491.638C513.249 491.638 463.345 393.433 463.803 386.656C464.165 380.626 500.357 327.948 502.395 318.082C505.663 301.934 497.8 287.51 490.178 278.586L436.27 293.782C436.27 293.782 440.564 303.104 448.451 308.989C448.451 308.989 414.574 365.551 413.706 384.171C412.838 402.792 461.126 505.314 461.126 505.314Z" fill="#37474F"/>
<path d="M460.137 495.666C467.687 493.507 465.492 494.026 473.078 491.939C476.792 490.926 501.189 484.257 504.807 483.907C504.892 483.907 504.928 484.028 504.807 484.064C501.479 485.56 476.973 491.807 473.246 492.747C465.624 494.677 467.783 494.038 460.137 495.895C460.053 495.907 459.992 495.666 460.137 495.666Z" fill="#263238"/>
<path d="M440.093 306.855C445.258 308.771 450.249 311.128 455.011 313.898C455.05 313.917 455.079 313.951 455.093 313.991C455.106 314.032 455.103 314.076 455.084 314.115C455.065 314.153 455.031 314.182 454.99 314.196C454.95 314.21 454.905 314.206 454.867 314.187C449.838 311.992 444.7 309.894 439.804 307.434C439.737 307.39 439.688 307.323 439.667 307.246C439.646 307.169 439.654 307.086 439.69 307.015C439.725 306.943 439.786 306.887 439.861 306.858C439.935 306.828 440.018 306.827 440.093 306.855Z" fill="#263238"/>
<path d="M446.425 305.528C446.808 306.475 447.13 307.446 447.39 308.434C447.673 309.206 447.8 310.026 447.763 310.846C447.748 310.874 447.725 310.897 447.697 310.913C447.67 310.929 447.638 310.937 447.607 310.937C447.575 310.937 447.544 310.929 447.516 310.913C447.489 310.897 447.466 310.874 447.45 310.846C446.998 310.125 446.657 309.341 446.437 308.519C446.111 307.614 445.762 306.722 445.472 305.817C445.267 305.239 446.22 304.949 446.425 305.528Z" fill="#263238"/>
<path d="M446.425 300.644C446.208 299.812 445.991 298.992 445.762 298.159C445.533 297.327 445.219 296.471 445.05 295.603C445.05 295.47 444.809 295.53 444.845 295.603C445.05 296.435 445.147 297.303 445.291 298.147C445.436 298.992 445.605 299.836 445.774 300.668C446.092 302.248 446.494 303.81 446.98 305.347C446.131 305.285 445.307 305.034 444.568 304.611C443.848 304.016 443.334 303.211 443.096 302.308C442.759 301.367 442.457 300.415 442.108 299.486C441.674 298.468 441.327 297.415 441.07 296.338C441.07 296.194 440.829 296.254 440.853 296.338C441.269 298.612 441.911 300.838 442.771 302.983C443.145 303.828 443.422 304.696 444.254 305.106C445.169 305.494 446.155 305.687 447.149 305.673C447.257 305.673 447.426 305.673 447.402 305.516C447.149 303.972 446.835 302.272 446.425 300.644Z" fill="#263238"/>
<path d="M447.317 310.871C445.267 314.573 442.927 318.107 440.732 321.725C438.537 325.343 436.56 328.864 434.558 332.482C430.53 339.791 426.791 347.292 423.378 354.914C421.69 358.685 420.082 362.5 418.554 366.359C416.965 370.199 415.655 374.149 414.634 378.178C413.675 382.199 413.495 386.366 414.104 390.455C414.867 394.647 415.947 398.776 417.336 402.804C420.13 412.031 423.53 421.064 427.515 429.843C427.647 430.132 428.13 429.915 428.021 429.613C425.175 421.582 422.232 413.574 419.663 405.493C417.191 397.606 414.249 389.43 415.611 381.048C416.373 377.027 417.52 373.09 419.036 369.289C420.5 365.382 422.059 361.519 423.716 357.7C426.996 350.162 430.662 342.842 434.425 335.545C436.523 331.457 438.73 327.417 440.865 323.341C443 319.264 445.098 315.043 447.498 311.088C447.57 310.859 447.426 310.762 447.317 310.871Z" fill="#263238"/>
<path d="M486.573 302.959C485.596 302.802 484.161 303.14 479.952 302.851C478.782 302.747 477.621 302.558 476.479 302.284C475.32 302.102 474.218 301.657 473.259 300.981C471.73 299.535 470.483 297.817 469.58 295.916C468.452 293.956 467.588 291.856 467.011 289.669C467.011 289.536 466.782 289.597 466.806 289.729C467.036 290.935 467.156 292.141 467.482 293.42C467.792 294.568 468.195 295.689 468.688 296.772C469.462 298.915 470.76 300.83 472.463 302.344C474.368 303.779 477.033 304.045 479.337 304.213C480.675 304.31 485.922 304.213 486.573 303.417C486.766 303.285 486.754 302.995 486.573 302.959Z" fill="#263238"/>
<path d="M500.309 480.422C493.733 467.06 487.301 453.613 481.013 440.081C474.726 426.55 468.624 412.918 462.706 399.186C461.07 395.962 459.764 392.58 458.811 389.092C458.003 385.269 459.185 381.856 460.801 378.395C463.808 372.118 467.17 366.018 470.871 360.124C474.489 354.19 478.396 348.389 482.219 342.564C486.173 336.859 489.797 330.931 493.073 324.812C496.04 318.89 497.692 312.583 496.848 305.95C496.004 299.317 493.146 293.191 490.095 287.366C489.287 285.834 488.454 284.314 487.683 282.771C487.622 282.662 487.441 282.771 487.514 282.879C490.915 288.982 494.183 295.386 495.775 302.175C496.595 305.559 496.848 309.056 496.523 312.523C496.099 316.023 495.113 319.431 493.604 322.617C490.77 328.84 486.814 334.581 483.088 340.285C479.361 345.989 475.393 351.923 471.679 357.832C467.905 363.748 464.439 369.854 461.295 376.127C459.92 378.937 458.413 381.868 458.075 385.015C457.713 388.477 458.956 391.781 460.294 394.905C466.083 408.484 472.186 421.955 478.384 435.354C484.583 448.753 491.011 462.199 497.536 475.514L499.948 480.543C500.104 480.82 500.406 480.627 500.309 480.422Z" fill="#263238"/>
<path d="M435.076 178.006C436.282 172.494 442.409 160.024 454.505 162.46C471.775 165.946 474.271 199.219 482.87 209.591C498.439 228.38 498.946 246.977 486.186 249.955C471.883 253.284 457.966 237.895 458.448 204.73C458.774 183.963 452.925 174.761 448.8 175.376C444.676 175.992 442.397 181.238 442.397 181.238L435.076 178.006Z" fill="#263238"/>
<path d="M435.655 175.943C436.509 173.372 437.672 170.914 439.116 168.623C440.566 166.275 442.488 164.254 444.761 162.689C447.113 161.1 449.906 160.29 452.744 160.374C455.559 160.459 458.31 161.224 460.764 162.605C463.156 164.036 465.213 165.965 466.794 168.261C468.357 170.517 469.656 172.945 470.665 175.497C472.581 180.557 473.924 185.816 474.669 191.175C473.355 185.994 471.654 180.918 469.58 175.992C468.504 173.583 467.183 171.291 465.636 169.154C464.135 167.044 462.203 165.276 459.968 163.968C457.731 162.692 455.221 161.968 452.648 161.857C450.101 161.738 447.578 162.394 445.412 163.739C443.19 165.14 441.261 166.958 439.732 169.093C438.932 170.159 438.196 171.271 437.525 172.422C436.849 173.531 436.234 174.725 435.655 175.943Z" fill="#263238"/>
<path d="M458.389 193.286C458.57 196.578 458.389 199.882 458.316 203.175C458.244 206.467 458.111 209.748 458.099 213.028C458.087 216.308 458.196 219.576 458.534 222.821C458.809 226.05 459.398 229.245 460.294 232.36C461.142 235.455 462.57 238.361 464.503 240.923C466.53 243.416 468.98 245.535 471.739 247.182C474.502 248.859 477.622 249.859 480.845 250.1C482.457 250.225 484.078 250.14 485.669 249.847C486.486 249.694 487.292 249.485 488.081 249.22C488.866 248.988 489.614 248.642 490.3 248.195C488.955 249.174 487.424 249.868 485.801 250.233C484.183 250.655 482.517 250.861 480.845 250.848C479.157 250.817 477.48 250.578 475.852 250.136C474.227 249.68 472.661 249.036 471.184 248.219C469.704 247.408 468.307 246.455 467.012 245.373L466.059 244.553L465.142 243.696C464.52 243.111 463.94 242.482 463.406 241.815C461.332 239.125 459.793 236.063 458.871 232.794C457.201 226.338 456.558 219.66 456.966 213.004C457.062 209.699 457.315 206.407 457.605 203.127C457.894 199.846 458.28 196.578 458.389 193.286Z" fill="#263238"/>
<path d="M434.087 178.102C433.894 176.57 434.823 174.484 435.788 174.11C436.752 173.736 444.447 176.209 445.255 178.054C446.063 179.899 442.951 181.865 442.951 181.865L434.087 178.102Z" fill="#FF9595"/>
<path d="M443.302 232.42C438.562 239.186 404.288 267.177 385.595 268.214C377.153 268.673 344.133 265.079 336.776 262.052C327.743 258.337 345.604 235.966 351.248 236.919C358.315 238.125 383.376 240.766 388.369 240.899C396.376 241.104 420.931 227.633 437.465 224.123C446.015 222.326 446.968 227.21 443.302 232.42Z" fill="#EB9481"/>
<path d="M442.928 233.699C437.694 242.828 419.218 258.482 419.218 258.482L416.07 252.669L405.65 233.482C405.65 233.482 423.162 226.511 434.775 223.122C436.139 222.703 437.535 222.397 438.948 222.205C446.449 221.241 447.426 225.86 442.928 233.699Z" fill="#DBDBDB"/>
<path d="M442.927 233.699C437.693 242.828 419.217 258.482 419.217 258.482L416.07 252.669L413.923 248.713L405.638 233.494C405.638 233.494 423.161 226.499 434.775 223.11C436.141 222.703 437.536 222.401 438.947 222.205C439.096 222.194 439.245 222.194 439.394 222.205C446.485 221.434 447.353 226.016 442.927 233.699Z" fill="#DBDBDB"/>
<path d="M421.087 228.766C421.488 230.431 421.488 232.167 421.087 233.831C420.684 232.167 420.684 230.43 421.087 228.766ZM416.13 238.703C415.28 238.69 414.432 238.791 413.609 239.005C414.433 239.213 415.28 239.314 416.13 239.306C416.983 239.313 417.834 239.212 418.663 239.005C417.836 238.792 416.984 238.691 416.13 238.703ZM441.745 224.545C440.892 224.532 440.04 224.634 439.213 224.847C440.04 225.06 440.892 225.161 441.745 225.148C442.595 225.154 443.442 225.053 444.266 224.847C443.442 224.64 442.595 224.539 441.745 224.545ZM431.88 237.136C432.477 237.743 433.15 238.27 433.882 238.703C433.449 237.971 432.922 237.298 432.314 236.702C431.715 236.097 431.043 235.571 430.312 235.134C430.749 235.864 431.276 236.537 431.88 237.136ZM422.148 249.196C422.744 249.806 423.417 250.338 424.15 250.776C423.72 250.04 423.193 249.367 422.582 248.774C421.986 248.163 421.313 247.632 420.58 247.194C420.996 247.925 421.507 248.598 422.1 249.196H422.148Z" fill="white"/>
<path d="M422.438 254.201C420.689 250.667 412.971 236.436 411.102 233.47C410.969 233.265 410.812 233.289 410.909 233.47C414.328 240.58 418.128 247.5 422.293 254.201C422.342 254.345 422.486 254.297 422.438 254.201Z" fill="#263238"/>
<path d="M442.927 233.699C437.693 242.828 419.217 258.482 419.217 258.482L416.07 252.669L413.923 248.713C423.945 238.824 436.017 226.656 439.394 222.181C446.485 221.434 447.353 226.016 442.927 233.699Z" fill="#A6A6A6"/>
<path d="M425.838 275.752L428.576 305.902C432.264 305.732 435.939 305.361 439.587 304.792C449.206 303.349 458.737 301.364 468.133 298.847C477.455 296.435 488.382 293.106 500.876 288.668C500.876 288.668 472.619 237.703 453.118 223.641C452.672 223.315 452.238 223.013 451.792 222.736C451.707 222.664 451.623 222.628 451.538 222.567C442.674 216.959 434.654 221.361 430.216 227.608C429.095 229.176 418.241 253.851 418.783 262.124C419.278 269.396 425.838 275.752 425.838 275.752Z" fill="#DBDBDB"/>
<path d="M441.517 243.479C441.73 244.302 441.832 245.15 441.818 246C441.831 246.854 441.73 247.705 441.517 248.532C441.304 247.705 441.202 246.854 441.215 246C441.208 245.15 441.309 244.303 441.517 243.479ZM448.089 275.052C448.082 275.906 448.184 276.757 448.391 277.585C448.61 276.759 448.711 275.907 448.692 275.052C448.705 274.198 448.604 273.347 448.391 272.52C448.184 273.348 448.082 274.199 448.089 275.052ZM469.134 257.083C469.121 257.937 469.223 258.789 469.436 259.616C469.838 257.951 469.838 256.215 469.436 254.55C469.223 255.377 469.121 256.229 469.134 257.083ZM430.542 271.205C430.529 272.059 430.631 272.911 430.844 273.738C431.246 272.073 431.246 270.337 430.844 268.673C430.631 269.5 430.529 270.351 430.542 271.205ZM454.855 248.979C454.002 248.972 453.151 249.073 452.322 249.28C453.987 249.682 455.723 249.682 457.388 249.28C456.564 249.074 455.717 248.973 454.867 248.979H454.855ZM472.8 271.471C471.946 271.452 471.094 271.553 470.268 271.772C471.932 272.174 473.668 272.174 475.333 271.772C474.51 271.56 473.662 271.459 472.812 271.471H472.8ZM445.521 289.295C444.671 289.282 443.823 289.383 443 289.597C443.823 289.811 444.671 289.912 445.521 289.898C446.375 289.911 447.226 289.81 448.053 289.597C447.229 289.391 446.382 289.289 445.533 289.295H445.521ZM477.299 285.822C476.449 285.815 475.602 285.916 474.778 286.123C476.439 286.526 478.171 286.526 479.831 286.123C479.003 285.916 478.152 285.815 477.299 285.822ZM441.746 224.509C440.892 224.496 440.04 224.597 439.213 224.81C440.04 225.023 440.892 225.125 441.746 225.112C442.595 225.118 443.442 225.017 444.266 224.81C443.441 224.616 442.594 224.527 441.746 224.545V224.509ZM454.65 230.093C455.246 230.703 455.919 231.235 456.652 231.673C456.225 230.935 455.698 230.262 455.084 229.671C454.488 229.06 453.815 228.529 453.082 228.091C453.517 228.837 454.048 229.522 454.662 230.129L454.65 230.093ZM481.001 258.301C481.597 258.912 482.27 259.443 483.003 259.881C482.572 259.146 482.045 258.473 481.435 257.879C480.837 257.271 480.164 256.74 479.433 256.299C479.864 257.044 480.392 257.729 481.001 258.337V258.301ZM438.863 261.316C439.46 261.927 440.133 262.458 440.865 262.896C439.965 261.419 438.725 260.178 437.247 259.278C437.691 260.038 438.235 260.736 438.863 261.352V261.316ZM463.104 281.734C463.7 282.344 464.373 282.875 465.106 283.313C464.206 281.836 462.965 280.596 461.488 279.695C461.935 280.443 462.478 281.128 463.104 281.734ZM431.941 237.112C432.538 237.719 433.211 238.246 433.943 238.679C433.509 237.947 432.982 237.274 432.375 236.677C431.776 236.073 431.103 235.546 430.373 235.11C430.79 235.845 431.296 236.526 431.881 237.136L431.941 237.112ZM430.229 252.958C430.837 252.36 431.367 251.687 431.808 250.956C431.073 251.386 430.4 251.914 429.806 252.524C429.196 253.121 428.665 253.794 428.227 254.526C428.934 254.092 429.586 253.574 430.168 252.983L430.229 252.958ZM487.453 274.498C488.064 273.904 488.591 273.231 489.021 272.496C487.54 273.392 486.299 274.633 485.403 276.114C486.132 275.671 486.801 275.136 487.393 274.522L487.453 274.498ZM433.352 283.133C433.959 282.536 434.486 281.863 434.92 281.131C433.439 282.027 432.198 283.268 431.302 284.749C432.031 284.306 432.7 283.771 433.292 283.157L433.352 283.133ZM465.649 241.562C466.26 240.965 466.791 240.292 467.229 239.56C466.494 239.995 465.82 240.526 465.227 241.14C464.616 241.736 464.085 242.409 463.647 243.142C464.357 242.707 465.009 242.184 465.588 241.586L465.649 241.562ZM457.641 295.711C458.255 295.117 458.786 294.444 459.221 293.709C458.486 294.144 457.813 294.675 457.219 295.289C456.608 295.885 456.077 296.558 455.639 297.291C456.349 296.856 457.001 296.334 457.581 295.735L457.641 295.711ZM457.641 263.149C458.258 262.558 458.79 261.885 459.221 261.147C457.744 262.048 456.503 263.288 455.603 264.765C456.341 264.315 457.014 263.768 457.605 263.137L457.641 263.149Z" fill="white"/>
<path d="M446.003 222.049C445.834 223.255 441.034 231.094 435.8 231.299C434.087 231.359 433.328 222.073 433.328 222.073L433.111 221.397L430.132 211.979L440.793 203.814L442.349 202.717C442.349 202.717 442.988 205.358 443.76 208.638L443.868 209.108C443.868 209.289 443.965 209.458 444.001 209.639L444.363 211.122C444.447 211.508 444.531 211.882 444.604 212.328L444.857 213.534C445.433 216.343 445.816 219.188 446.003 222.049Z" fill="#EB9481"/>
<path d="M443.808 208.638C443.072 211.421 441.738 214.009 439.899 216.224C438.06 218.438 435.76 220.224 433.159 221.458L430.181 212.039L440.793 203.814L442.349 202.717C442.349 202.717 442.988 205.297 443.808 208.638Z" fill="#263238"/>
<path d="M416.915 197.784C416.83 215.126 427.214 217.14 430.952 217.152C434.341 217.152 445.907 216.778 447.836 199.533C449.766 182.287 441.674 176.775 433.919 176.329C426.165 175.883 416.999 180.405 416.915 197.784Z" fill="#EB9481"/>
<path d="M446.835 200.702C444.001 200.992 443.217 195.046 443.217 195.046C443.217 195.046 437.44 195.215 435.33 186.942C435.553 189.431 436.501 191.799 438.055 193.756C438.055 193.756 427.816 192.96 423.306 184.518C423.306 184.518 425.127 188.823 426.767 190.331C424.163 189.596 421.883 188.008 420.291 185.82C420.291 185.82 418.626 190.789 417.288 192.176C417.288 192.176 415.31 183.445 418.94 178.91C426.586 169.262 439.141 177.704 439.141 177.704C439.141 177.704 446.159 178.765 448.668 184.023C452.539 192.068 446.835 200.702 446.835 200.702Z" fill="#263238"/>
<path d="M445.014 200.811C445.014 200.811 448.342 195.107 450.911 196.252C453.48 197.398 451.273 205.454 448.499 206.757C448.156 206.95 447.778 207.072 447.387 207.115C446.996 207.159 446.6 207.124 446.223 207.011C445.846 206.899 445.496 206.711 445.192 206.46C444.889 206.209 444.64 205.9 444.459 205.551L445.014 200.811Z" fill="#EB9481"/>
<path d="M419.085 194.274C419.493 194.204 419.896 194.107 420.291 193.985C420.717 193.937 421.115 193.751 421.425 193.454C421.51 193.346 421.556 193.212 421.556 193.075C421.556 192.937 421.51 192.803 421.425 192.695C421.218 192.514 420.968 192.391 420.699 192.338C420.43 192.285 420.152 192.304 419.893 192.393C419.341 192.498 418.847 192.803 418.506 193.249C418.44 193.351 418.403 193.469 418.399 193.591C418.395 193.712 418.424 193.832 418.484 193.938C418.544 194.043 418.632 194.131 418.737 194.19C418.843 194.25 418.964 194.279 419.085 194.274Z" fill="#263238"/>
<path d="M430.397 195.625C429.992 195.585 429.589 195.52 429.191 195.432C428.75 195.424 428.325 195.267 427.985 194.986C427.898 194.879 427.851 194.744 427.851 194.606C427.851 194.468 427.898 194.334 427.985 194.226C428.174 194.029 428.413 193.886 428.676 193.814C428.94 193.742 429.218 193.743 429.481 193.816C430.04 193.878 430.558 194.139 430.94 194.552C431.018 194.651 431.066 194.771 431.079 194.896C431.091 195.022 431.068 195.149 431.011 195.261C430.954 195.374 430.866 195.468 430.757 195.533C430.648 195.597 430.524 195.629 430.397 195.625Z" fill="#263238"/>
<path d="M428.13 199.171C428.13 199.171 428.214 199.171 428.214 199.279C428.214 200.485 428.371 201.836 429.42 202.21V202.282C428.13 202.114 427.877 200.305 428.13 199.171Z" fill="#263238"/>
<path d="M429.13 197.917C431.036 197.736 431.253 201.535 429.48 201.74C427.707 201.945 427.527 198.061 429.13 197.917Z" fill="#263238"/>
<path d="M429.891 198.074C430.24 198.279 430.59 198.64 431 198.664C431.41 198.689 431.796 198.254 432.086 197.856H432.146C432.146 198.592 431.953 199.364 431.181 199.521C430.409 199.678 429.975 199.038 429.686 198.315C429.65 198.206 429.758 198.001 429.891 198.074Z" fill="#263238"/>
<path d="M421.485 199.231C421.485 199.231 421.389 199.291 421.401 199.34C421.509 200.546 421.401 201.909 420.388 202.367C420.388 202.367 420.388 202.439 420.388 202.367C421.702 202.162 421.775 200.341 421.485 199.231Z" fill="#263238"/>
<path d="M420.34 198.061C418.422 198.061 418.519 201.872 420.34 201.896C422.161 201.92 421.956 198.085 420.34 198.061Z" fill="#263238"/>
<path d="M419.556 198.327C419.254 198.544 418.965 198.918 418.603 198.954C418.241 198.99 417.855 198.58 417.578 198.182H417.518C417.518 198.918 417.783 199.677 418.494 199.798C419.206 199.919 419.592 199.267 419.7 198.532C419.785 198.447 419.688 198.242 419.556 198.327Z" fill="#263238"/>
<path d="M423.474 204.489C423.474 204.489 423.306 206.226 423.306 207.106C424.929 207.057 426.552 207.227 428.13 207.613C428.503 207.721 428.479 207.408 428.057 207.179C426.799 206.501 425.368 206.212 423.945 206.347C423.884 206.117 424.258 203.609 424.126 203.609C423.478 203.69 422.845 203.861 422.244 204.115C422.485 200.389 423.33 196.723 423.511 193.008C423.511 192.979 423.499 192.952 423.479 192.931C423.458 192.911 423.431 192.9 423.402 192.9C423.373 192.9 423.346 192.911 423.325 192.931C423.305 192.952 423.293 192.979 423.293 193.008C422.274 196.9 421.644 200.883 421.412 204.899C421.448 205.346 423.149 204.646 423.474 204.489Z" fill="#263238"/>
<path d="M425.271 207.106C425.876 207.9 426.723 208.476 427.683 208.746C429.143 208.891 429.239 207.54 427.611 206.925C426.829 206.77 426.02 206.833 425.271 207.106Z" fill="#263238"/>
<path d="M427.708 208.746C427.159 208.654 426.645 208.412 426.225 208.047C426.49 207.577 427.165 207.046 428.757 207.806C429.01 208.36 428.637 208.843 427.708 208.746Z" fill="#FF99BA"/>
<path d="M443.459 219.974C445.581 219.974 449.151 220.505 453.975 224.171C453.975 224.171 443.917 232.264 434.558 232.264C431.218 232.264 430.217 227.596 430.217 227.596C430.217 227.596 434.715 220.047 443.459 219.974Z" fill="#EB9481"/>
<path d="M602.349 567.206H562.949C534.318 567.206 516.807 547.416 513.66 511.489C512.104 493.773 511.151 472.33 510.15 449.633C507.063 379.89 502.83 284.411 475.683 284.411H444.483V277.175H475.683C509.74 277.175 513.623 364.694 517.374 449.332C518.375 471.956 519.328 493.326 520.871 510.838C522.837 533.245 531.725 559.958 562.949 559.958H602.349V567.206Z" fill="#FF9595"/>
<path opacity="0.2" d="M467.397 277.151L465.854 284.387H444.483V277.151H467.397Z" fill="black"/>
<path d="M385.679 237.461H373.064V325.608H385.679V237.461Z" fill="#FF9595"/>
<path d="M373.076 243.974H325.113V318.191H373.076V243.974Z" fill="#FF9595"/>
<path opacity="0.2" d="M373.064 243.986V318.203H361.149L355.807 243.986H373.064Z" fill="black"/>
<path d="M288.306 257.3H325.101V268.395H288.306C287.046 268.395 285.838 267.895 284.946 267.004C284.055 266.112 283.555 264.904 283.555 263.644V262.064C283.553 261.439 283.675 260.82 283.913 260.242C284.151 259.664 284.501 259.139 284.942 258.696C285.384 258.254 285.908 257.902 286.485 257.663C287.062 257.423 287.681 257.3 288.306 257.3Z" fill="#DBDBDB"/>
<path d="M325.102 257.3H312.186V268.383H325.102V257.3Z" fill="#A6A6A6"/>
<path d="M288.306 293.781H325.101V304.877H288.306C287.046 304.877 285.838 304.376 284.946 303.485C284.055 302.594 283.555 301.385 283.555 300.125V298.545C283.553 297.92 283.675 297.301 283.913 296.723C284.151 296.145 284.501 295.62 284.942 295.177C285.384 294.735 285.908 294.384 286.485 294.144C287.062 293.905 287.681 293.781 288.306 293.781Z" fill="#DBDBDB"/>
<path d="M325.102 293.781H312.186V304.865H325.102V293.781Z" fill="#A6A6A6"/>
<path d="M460.221 274.003H422.751V288.801H460.221V274.003Z" fill="#FF9595"/>
<path d="M460.221 274.015H422.751V288.813H460.221V274.015Z" fill="#FF9595"/>
<path opacity="0.2" d="M435.908 274.015L434.678 288.813H422.751V274.015H435.908Z" fill="black"/>
<path d="M385.679 246.772H415.334C417.301 246.772 419.188 247.553 420.579 248.944C421.97 250.335 422.751 252.222 422.751 254.189V307.988C422.751 309.955 421.97 311.842 420.579 313.233C419.188 314.624 417.301 315.405 415.334 315.405H385.679V246.772Z" fill="#FF9595"/>
<path opacity="0.2" d="M401.453 246.772L396.11 315.405H385.69V246.772H401.453Z" fill="black"/>
<g opacity="0.2">
<path d="M398.692 260.641H396.328V301.524H398.692V260.641Z" fill="black"/>
<path d="M405.397 260.641H403.033V301.524H405.397V260.641Z" fill="black"/>
<path d="M412.103 260.641H409.739V301.524H412.103V260.641Z" fill="black"/>
</g>
<path d="M456.749 232.601C460.897 244.239 454.952 286.871 447.921 295.904C437.477 309.291 416.842 321.604 408.955 325.451C405.506 327.128 390.057 302.429 393.422 300.125C400.658 295.169 423.704 283.338 425.658 280.986C427.612 278.634 438.128 256.046 442.337 243.347C447.993 226.294 454.662 226.728 456.749 232.601Z" fill="#EB9481"/>
<path d="M408.931 325.524C397.992 331.771 376.224 330.854 373.257 329.95L369.422 328.744C364.851 327.453 363.621 324.933 363.621 324.933C363.621 324.933 357.905 325.005 357.278 321.556C356.578 317.685 364.743 318.336 369.458 315.948C380.312 310.485 394.085 299.679 397.039 297.798L408.931 325.524Z" fill="#EB9481"/>
<path d="M384.81 318.191C381.67 319.836 378.418 321.259 375.078 322.448C371.351 323.529 367.55 324.335 363.705 324.86C363.687 324.867 363.671 324.879 363.66 324.896C363.649 324.912 363.643 324.931 363.643 324.951C363.643 324.97 363.649 324.99 363.66 325.006C363.671 325.022 363.687 325.034 363.705 325.041C371.251 324.836 378.596 322.567 384.943 318.48C385.1 318.384 384.967 318.119 384.81 318.191Z" fill="#263238"/>
<path d="M389.056 324.233C385.848 325.56 380.192 327.851 369.41 328.647C369.41 328.647 369.41 328.707 369.41 328.719C376.257 329.193 383.101 327.752 389.177 324.559C389.369 324.414 389.273 324.149 389.056 324.233Z" fill="#263238"/>
<path d="M382.061 308.555C383.182 307.349 382.519 306.698 379.552 307.228C376.586 307.759 365.309 312.414 364.019 308.35C362.729 304.286 378.744 297.942 383.749 297.424C388.271 297.19 392.804 297.323 397.305 297.822C394.434 299.679 387.632 304.841 382.061 308.555Z" fill="#EB9481"/>
<path d="M445.11 235.532C452.406 220.179 459.063 224.244 459.703 239.427C459.918 249.971 459.443 260.518 458.28 271L431.832 263.427C431.832 263.427 440.443 245.361 445.11 235.532Z" fill="#DBDBDB"/>
<path d="M451.695 226.583C453.172 227.484 454.413 228.724 455.313 230.201C453.836 229.301 452.595 228.06 451.695 226.583ZM441.215 246.024C441.202 246.878 441.303 247.73 441.516 248.557C441.729 247.73 441.831 246.878 441.818 246.024C441.832 245.174 441.73 244.326 441.516 243.503C441.308 244.327 441.207 245.174 441.215 246.024ZM454.867 249.003C454.013 248.996 453.162 249.097 452.334 249.304C453.999 249.706 455.735 249.706 457.399 249.304C456.572 249.089 455.721 248.98 454.867 248.979V249.003ZM438.863 261.352C439.459 261.963 440.132 262.494 440.865 262.932C439.965 261.455 438.724 260.215 437.247 259.314C437.694 260.062 438.237 260.747 438.863 261.352ZM457.604 263.137C458.221 262.546 458.753 261.873 459.184 261.135C457.707 262.036 456.467 263.276 455.566 264.753C456.316 264.31 457.002 263.766 457.604 263.137Z" fill="white"/>
<path d="M442.602 240.211C441.613 242.225 440.576 244.203 439.538 246.241C439.715 245.3 439.86 244.348 439.973 243.383H439.9C439.756 244.13 439.575 244.878 439.43 245.626C439.37 245.988 439.297 246.35 439.225 246.711C439.225 246.784 439.225 246.856 439.225 246.94C438.417 248.484 437.621 250.04 436.813 251.608C435.896 253.489 435.04 255.382 434.172 257.276C433.303 259.169 432.495 261.485 431.519 263.402C432.35 263.748 433.215 264.007 434.099 264.174C434.329 264.259 434.449 264.029 434.208 263.993C433.967 263.957 431.989 263.173 431.965 263.161C432.833 261.244 433.906 259.435 434.823 257.553C435.74 255.672 436.68 253.815 437.561 251.921C439.346 248.086 440.913 244.143 442.686 240.295C442.686 240.199 442.602 240.163 442.602 240.211Z" fill="#263238"/>
<path d="M460.8 249.352C460.559 250.136 460.282 250.92 460.077 251.764C460.005 252.102 459.92 252.428 459.836 252.765C459.932 250.016 460.021 247.274 460.101 244.541C459.727 249.027 459.341 253.501 459.052 257.987C458.632 262.284 458.435 266.599 458.461 270.916C457.668 270.728 456.861 270.603 456.049 270.542C456.926 270.914 457.845 271.178 458.786 271.326C459.45 266.984 459.498 262.184 459.715 257.819C459.775 256.613 459.812 255.407 459.86 254.116C460.005 253.356 460.222 252.609 460.427 251.861C460.632 251.113 460.788 250.245 460.957 249.449C460.897 249.328 460.813 249.304 460.8 249.352Z" fill="#263238"/>
<path d="M457.207 266.996C453.48 265.67 438.043 260.798 434.642 259.965C434.401 259.905 434.305 260.038 434.546 260.122C441.945 262.872 449.49 265.211 457.146 267.129C457.243 267.165 457.303 267.021 457.207 266.996Z" fill="#263238"/>
<path d="M327.55 262.908C331.168 264.017 330.432 259.073 330.432 259.073C330.432 259.073 333.266 265.923 337.475 265.621C341.684 265.32 340.382 259.374 340.309 258.94C340.454 259.302 343.228 265.525 347.425 264.789C351.622 264.054 349.608 258.241 349.463 257.879C349.716 258.168 353.081 262.015 356.168 260.725C361.426 258.506 353.033 248.424 353.648 243.841L361.04 244.058C361.283 244.035 361.525 243.998 361.764 243.95L362.041 240.175C359.679 239.216 357.396 238.07 355.215 236.75C352.43 235.182 349.74 233.759 347.738 233.711C346.84 233.663 345.95 233.905 345.201 234.403C344.451 234.9 343.882 235.626 343.578 236.472C343.578 236.472 341.407 233.047 338.078 233.53C336.378 233.783 335.268 236.738 335.268 236.738C334.734 235.981 334 235.388 333.148 235.024C332.296 234.66 331.36 234.539 330.444 234.675C328.105 235.158 327.357 238.052 327.357 238.052C327.357 238.052 324.39 236.304 322.159 237.582C317.685 240.066 319.735 260.496 327.55 262.908Z" fill="#EB9481"/>
<path d="M354.564 243.407L361.004 243.998C361.247 243.975 361.489 243.938 361.728 243.889C369.857 242.418 374.922 233.108 368.964 232.444C364.49 231.926 359.642 237.871 355.119 236.678L354.564 243.407Z" fill="#EB9481"/>
<path d="M327.2 238.426H327.092C326.067 245.56 327.236 252.837 330.444 259.29C330.553 259.495 330.927 259.399 330.854 259.157C328.635 252.461 327.404 245.478 327.2 238.426Z" fill="#263238"/>
<path d="M335.268 236.581C335.268 236.496 335.136 236.496 335.123 236.581C334.037 244.446 335.8 252.441 340.092 259.121C340.249 259.35 340.623 259.398 340.454 259.121C337.777 254.466 335.268 243.202 335.268 236.581Z" fill="#263238"/>
<path d="M349.945 258.168C345.784 251.608 344.132 244.372 343.517 236.702C343.517 236.605 343.372 236.629 343.348 236.702C342.636 240.537 343.541 245.385 344.554 249.099C345.439 252.563 347.214 255.735 349.704 258.301C349.824 258.41 350.041 258.313 349.945 258.168Z" fill="#263238"/>
<path d="M248.075 533.052C245.578 533.884 174.098 533.679 171.373 531.954C170.348 531.303 169.769 520.883 169.431 508.281C169.347 505.567 169.299 502.757 169.25 499.899C169.25 496.522 169.154 493.097 169.13 489.769C169.045 474.838 169.25 461.693 169.25 461.693H215.79V489.769V499.899L215.549 508.281C215.549 508.281 242.877 520.606 245.699 522.825C248.521 525.044 250.571 532.28 248.075 533.052Z" fill="#AD6359"/>
<path d="M248.075 533.052C245.578 533.884 174.099 533.679 171.373 531.954C170.348 531.303 169.769 520.883 169.431 508.281C169.347 505.567 169.299 502.757 169.25 499.899C169.25 496.522 169.154 493.097 169.13 489.769H215.766V499.899L215.525 508.281C215.525 508.281 242.853 520.606 245.675 522.825C248.497 525.044 250.571 532.28 248.075 533.052Z" fill="white"/>
<path d="M248.291 533.209C246.663 533.751 216.223 533.86 194.021 533.402C188.883 533.281 184.192 533.148 180.417 532.98C175.195 532.738 171.698 532.461 171.131 532.099C169.865 531.291 169.274 515.999 168.984 499.863H215.741L215.5 508.305C215.5 508.305 242.985 520.702 245.782 522.934C248.58 525.165 250.848 532.364 248.291 533.209Z" fill="#FF9595"/>
<path d="M247.23 530.338C235.17 530.001 186.568 529.808 174.629 530.399C174.533 530.399 174.533 530.459 174.629 530.471C186.568 531.062 235.182 530.857 247.23 530.531C247.52 530.519 247.532 530.338 247.23 530.338Z" fill="#263238"/>
<path d="M217.249 505.627C212.509 504.735 206.708 505.446 203.078 508.811C202.933 508.944 203.078 509.137 203.283 509.089C207.818 507.636 212.496 506.677 217.236 506.23C217.316 506.232 217.394 506.202 217.451 506.146C217.509 506.091 217.542 506.015 217.544 505.935C217.546 505.855 217.515 505.778 217.46 505.72C217.405 505.662 217.329 505.629 217.249 505.627Z" fill="#263238"/>
<path d="M220.698 507.726C215.958 506.821 210.157 507.533 206.515 510.91C206.383 511.03 206.515 511.235 206.72 511.187C211.262 509.726 215.948 508.759 220.698 508.305C220.76 508.286 220.815 508.248 220.855 508.196C220.894 508.144 220.915 508.08 220.915 508.015C220.915 507.95 220.894 507.887 220.855 507.834C220.815 507.782 220.76 507.744 220.698 507.726Z" fill="#263238"/>
<path d="M224.087 509.776C219.347 508.872 213.546 509.583 209.916 512.948C209.771 513.08 209.916 513.286 210.109 513.237C214.645 511.789 219.323 510.826 224.063 510.367C224.132 510.356 224.195 510.322 224.241 510.27C224.287 510.218 224.314 510.151 224.317 510.081C224.32 510.012 224.299 509.943 224.257 509.888C224.215 509.832 224.155 509.792 224.087 509.776Z" fill="#263238"/>
<path d="M227.5 511.851C222.76 510.946 216.959 511.658 213.329 515.022C213.184 515.155 213.329 515.36 213.534 515.312C218.064 513.856 222.739 512.894 227.475 512.441C227.544 512.431 227.607 512.396 227.654 512.344C227.7 512.292 227.727 512.226 227.73 512.156C227.733 512.086 227.711 512.018 227.669 511.962C227.627 511.906 227.567 511.867 227.5 511.851Z" fill="#263238"/>
<path d="M226.041 494.689C224.183 492.12 220.71 493.266 218.732 494.918C215.379 497.831 212.85 501.574 211.4 505.772C211.392 505.79 211.388 505.81 211.39 505.83C211.392 505.85 211.398 505.869 211.409 505.886C211.42 505.902 211.434 505.916 211.452 505.926C211.469 505.936 211.488 505.941 211.508 505.941C211.508 506.303 211.846 506.689 212.244 506.532C216.163 505.097 220.541 504.048 223.894 501.443C225.86 499.923 227.801 497.125 226.041 494.689ZM217.743 503.131C215.838 503.879 213.896 504.542 212.015 505.362C213.383 503.21 214.86 501.129 216.441 499.127C217.214 498.167 218.057 497.264 218.961 496.426C220.372 495.135 225.968 492.422 225.112 497.632C224.642 500.49 220.023 502.227 217.743 503.131Z" fill="#263238"/>
<path d="M199.352 504.482C203.247 506.158 207.794 506.086 211.894 506.508C211.986 506.507 212.077 506.486 212.16 506.444C212.243 506.403 212.315 506.344 212.37 506.27C212.426 506.197 212.465 506.112 212.483 506.021C212.5 505.931 212.497 505.837 212.473 505.748C212.488 505.737 212.5 505.722 212.509 505.705C212.517 505.689 212.521 505.67 212.521 505.652C212.521 505.633 212.517 505.614 212.509 505.598C212.5 505.581 212.488 505.566 212.473 505.555C210.039 501.859 206.68 498.865 202.729 496.872C200.389 495.762 196.699 495.521 195.589 498.476C194.48 501.431 197.072 503.505 199.352 504.482ZM197.217 501.105C195.095 496.281 201.185 497.487 202.873 498.391C203.956 498.992 204.999 499.661 205.997 500.393C208.027 501.935 209.975 503.581 211.834 505.326C209.808 505 207.77 504.844 205.732 504.59C203.295 504.289 198.387 503.758 197.217 501.105Z" fill="#263238"/>
<path d="M222.398 496.582L164.727 497.62C164.727 497.62 156.876 446.594 151.714 414.864C149.761 402.936 148.217 393.723 147.59 390.949C146.094 384.328 116.873 279.237 116.873 279.237L158.794 279.177H173.121C173.121 279.177 172.204 296.748 172.747 298.593C180.224 324.028 195.504 369.132 200.28 384.846C207.6 409.003 222.398 496.582 222.398 496.582Z" fill="#A6A6A6"/>
<path d="M217.152 487.742C208.879 487.682 179.525 487.356 168.502 488.382C168.487 488.388 168.473 488.399 168.464 488.413C168.454 488.427 168.449 488.443 168.449 488.46C168.449 488.477 168.454 488.493 168.464 488.507C168.473 488.521 168.487 488.532 168.502 488.538C172.301 489.081 208.879 488.237 217.164 487.972C217.183 487.976 217.202 487.977 217.221 487.973C217.239 487.969 217.257 487.961 217.271 487.949C217.286 487.937 217.298 487.921 217.306 487.904C217.313 487.887 217.317 487.868 217.316 487.849C217.315 487.83 217.309 487.811 217.3 487.795C217.29 487.778 217.277 487.764 217.261 487.754C217.245 487.744 217.227 487.737 217.208 487.735C217.189 487.733 217.17 487.736 217.152 487.742Z" fill="#263238"/>
<path d="M165.668 444.254C163.674 431.06 161.451 417.899 158.999 404.77C157.793 398.318 156.479 391.878 154.79 385.474C153.102 379.07 150.955 372.738 148.76 366.455C144.443 353.961 140.318 341.406 136.447 328.768C132.576 316.129 128.97 303.442 125.593 290.646C125.159 289.03 124.737 287.414 124.266 285.822C124.266 285.689 124.037 285.75 124.061 285.822C125.376 292.262 127.076 298.642 128.704 305.009C130.333 311.377 132.081 317.721 133.902 324.04C137.569 336.727 141.544 349.326 145.83 361.836C147.964 368.059 150.183 374.27 152.077 380.577C153.97 386.885 155.441 393.276 156.756 399.717C159.421 412.79 161.689 425.947 163.787 439.104C165.885 452.262 167.682 465.636 169.443 478.902C169.672 480.579 169.889 482.267 170.106 483.956C170.167 484.426 170.914 484.426 170.866 483.956C169.503 470.726 167.634 457.472 165.668 444.254Z" fill="#263238"/>
<path d="M158.794 279.153L151.714 414.864C149.761 402.937 148.217 393.723 147.59 390.949C146.094 384.328 116.873 279.237 116.873 279.237L158.794 279.153Z" fill="#263238"/>
<path d="M176.546 544.485C174.05 545.317 102.57 545.112 99.8446 543.375C98.8195 542.736 98.2406 532.316 97.9029 519.714C97.8185 516.988 97.7703 514.19 97.722 511.332C97.722 507.943 97.6256 504.53 97.6014 501.201C97.517 486.271 97.722 473.126 97.722 473.126H144.25V511.344L144.008 519.726C144.008 519.726 171.336 532.051 174.158 534.27C176.98 536.489 179.043 543.665 176.546 544.485Z" fill="#AD6359"/>
<path d="M176.546 544.485C174.05 545.317 102.57 545.112 99.8447 543.375C98.8196 542.736 98.2407 532.316 97.9031 519.714C97.8186 516.988 97.7704 514.19 97.7222 511.332C97.7222 507.943 97.6257 504.53 97.6016 501.201H144.238V511.344L143.996 519.726C143.996 519.726 171.324 532.051 174.146 534.27C176.968 536.489 179.043 543.665 176.546 544.485Z" fill="white"/>
<path d="M176.763 544.593C175.135 545.124 144.684 545.233 122.493 544.774C117.368 544.666 112.676 544.521 108.89 544.364C103.68 544.123 100.182 543.834 99.6034 543.472C98.3974 542.664 97.7461 527.384 97.4688 511.248H144.225L143.984 519.69C143.984 519.69 171.493 532.075 174.291 534.258C177.089 536.441 179.272 543.749 176.763 544.593Z" fill="#FF9595"/>
<path d="M175.738 541.711C163.678 541.385 115.064 541.18 103.137 541.771C103.04 541.771 103.04 541.844 103.137 541.856C115.064 542.435 163.69 542.242 175.738 541.916C175.991 541.904 175.991 541.723 175.738 541.711Z" fill="#263238"/>
<path d="M145.721 517.012C140.981 516.108 135.18 516.819 131.55 520.184C131.405 520.317 131.55 520.522 131.743 520.473C136.279 519.025 140.957 518.063 145.696 517.603C145.765 517.592 145.828 517.558 145.875 517.506C145.921 517.454 145.948 517.387 145.951 517.318C145.954 517.248 145.932 517.179 145.89 517.124C145.848 517.068 145.788 517.029 145.721 517.012Z" fill="#263238"/>
<path d="M149.134 519.086C144.395 518.182 138.594 518.893 134.964 522.258C134.819 522.391 134.964 522.596 135.169 522.548C139.703 521.091 144.381 520.129 149.122 519.677C149.191 519.665 149.253 519.629 149.298 519.576C149.343 519.523 149.369 519.456 149.37 519.387C149.371 519.317 149.349 519.249 149.306 519.194C149.263 519.14 149.202 519.102 149.134 519.086Z" fill="#263238"/>
<path d="M152.559 521.149C147.819 520.256 142.019 520.968 138.377 524.332C138.244 524.465 138.377 524.658 138.582 524.61C143.118 523.164 147.795 522.206 152.535 521.752C152.615 521.755 152.693 521.726 152.752 521.672C152.81 521.618 152.845 521.542 152.849 521.462C152.852 521.382 152.823 521.304 152.769 521.245C152.714 521.187 152.639 521.152 152.559 521.149Z" fill="#263238"/>
<path d="M155.972 523.223C151.233 522.331 145.432 523.042 141.802 526.407C141.657 526.54 141.802 526.733 141.995 526.684C146.532 525.24 151.209 524.281 155.948 523.826C156.028 523.829 156.106 523.801 156.165 523.746C156.224 523.692 156.259 523.617 156.262 523.537C156.265 523.457 156.236 523.379 156.182 523.32C156.128 523.261 156.052 523.226 155.972 523.223Z" fill="#263238"/>
<path d="M154.512 506.074C152.655 503.493 149.182 504.639 147.192 506.303C143.838 509.215 141.31 512.958 139.86 517.157C139.854 517.176 139.853 517.196 139.856 517.216C139.86 517.235 139.868 517.254 139.879 517.27C139.891 517.287 139.906 517.3 139.923 517.309C139.941 517.319 139.96 517.325 139.98 517.326C139.975 517.418 139.991 517.51 140.029 517.594C140.066 517.679 140.124 517.753 140.196 517.811C140.268 517.869 140.352 517.909 140.443 517.927C140.533 517.945 140.627 517.942 140.716 517.917C144.635 516.481 149.001 515.432 152.366 512.827C154.368 511.344 156.261 508.498 154.512 506.074ZM146.215 514.516C144.298 515.275 142.368 515.927 140.487 516.759C141.922 514.648 143.26 512.49 144.901 510.524C145.681 509.565 146.523 508.659 147.421 507.81C148.844 506.532 154.428 503.818 153.584 509.016C153.162 511.875 148.495 513.611 146.215 514.504V514.516Z" fill="#263238"/>
<path d="M127.836 515.866C131.744 517.543 136.278 517.47 140.391 517.892C140.484 517.893 140.577 517.872 140.66 517.83C140.744 517.788 140.816 517.727 140.871 517.651C140.927 517.576 140.963 517.489 140.978 517.396C140.993 517.304 140.986 517.21 140.958 517.121C140.976 517.114 140.994 517.104 141.008 517.09C141.022 517.077 141.033 517.06 141.04 517.041C141.047 517.023 141.049 517.003 141.048 516.983C141.046 516.964 141.04 516.945 141.03 516.928C138.573 513.236 135.193 510.251 131.225 508.269C128.886 507.159 125.195 506.918 124.086 509.873C122.976 512.827 125.533 514.89 127.836 515.866ZM125.714 512.478C123.591 507.654 129.682 508.86 131.37 509.776C132.455 510.368 133.499 511.033 134.494 511.766C136.521 513.315 138.469 514.966 140.331 516.711C138.292 516.373 136.254 516.228 134.216 515.975C131.768 515.673 126.86 515.143 125.69 512.478H125.714Z" fill="#263238"/>
<path d="M150.75 507.28H94.3213C94.3213 507.28 106.586 332.313 104.608 322.509C101.364 306.457 103.523 288.017 111.121 279.093H161.327C161.327 279.093 162.328 293.179 157.142 301.596C157.142 301.596 152.426 304.575 150.147 305.89L150.75 507.28Z" fill="#A6A6A6"/>
<path d="M145.491 498.15C137.677 497.957 139.932 497.897 132.105 497.788C128.282 497.728 103.161 497.378 99.5428 497.945C99.4584 497.945 99.4584 498.09 99.5428 498.102C103.161 498.717 128.27 498.633 132.105 498.608C139.92 498.608 137.677 498.5 145.491 498.379C145.516 498.371 145.537 498.356 145.551 498.335C145.566 498.315 145.574 498.29 145.574 498.265C145.574 498.239 145.566 498.215 145.551 498.194C145.537 498.173 145.516 498.158 145.491 498.15Z" fill="#263238"/>
<path d="M160.277 299.389C155.341 301.769 150.617 304.565 146.155 307.747C146.118 307.769 146.092 307.805 146.082 307.847C146.072 307.889 146.078 307.933 146.101 307.97C146.123 308.007 146.159 308.033 146.201 308.043C146.243 308.054 146.287 308.047 146.324 308.024C151.148 305.383 155.972 302.826 160.603 299.932C160.675 299.889 160.727 299.819 160.747 299.737C160.768 299.656 160.755 299.57 160.712 299.498C160.668 299.426 160.598 299.374 160.517 299.354C160.435 299.333 160.349 299.346 160.277 299.389Z" fill="#263238"/>
<path d="M153.873 298.666C153.587 299.64 153.362 300.631 153.198 301.632C152.993 302.419 152.94 303.238 153.041 304.044C153.041 304.201 153.294 304.189 153.367 304.044C153.745 303.284 154.006 302.471 154.139 301.632C154.38 300.704 154.645 299.787 154.85 298.859C154.995 298.268 154.066 298.063 153.873 298.666Z" fill="#263238"/>
<path d="M153.428 293.83C153.56 292.986 153.693 292.153 153.85 291.321C154.007 290.489 154.224 289.585 154.308 288.716C154.308 288.572 154.549 288.62 154.525 288.716C154.393 289.561 154.38 290.429 154.308 291.273C154.236 292.117 154.163 292.974 154.079 293.818C153.909 295.409 153.66 296.991 153.331 298.557C154.164 298.416 154.955 298.09 155.647 297.605C156.288 296.944 156.709 296.102 156.853 295.193C157.094 294.228 157.311 293.263 157.564 292.298C157.906 291.253 158.152 290.18 158.3 289.09C158.3 288.945 158.541 288.994 158.517 289.09C158.321 291.383 157.893 293.65 157.239 295.856C157.098 296.731 156.649 297.526 155.972 298.099C155.102 298.564 154.146 298.847 153.162 298.931C153.054 298.931 152.885 298.931 152.897 298.798C152.991 297.134 153.169 295.476 153.428 293.83Z" fill="#263238"/>
<path d="M112.761 321.869C112.399 318.179 111.796 314.513 111.398 310.822C110.644 303.434 111.092 295.973 112.724 288.728C112.724 288.596 112.544 288.535 112.519 288.728C111.092 295.091 110.428 301.601 110.542 308.121C110.867 314.633 112.025 321.049 112.121 327.574C112.218 334.098 111.711 340.779 111.289 347.364C110.867 353.949 110.433 360.63 110.011 367.251C108.298 393.892 106.719 420.532 105.091 447.185C104.64 454.614 104.206 462.051 103.788 469.496C103.354 477.057 102.823 484.631 102.582 492.217C102.582 492.868 103.523 492.82 103.583 492.217C104.717 478.842 105.368 465.419 106.224 452.045C107.08 438.67 107.84 425.513 108.636 412.247C109.432 398.981 110.24 385.715 111.048 372.449C111.434 365.824 111.836 359.199 112.254 352.574C112.64 345.977 113.122 339.368 113.219 332.759C113.272 329.124 113.119 325.488 112.761 321.869Z" fill="#263238"/>
<path d="M130.538 288.234C130.527 288.216 130.512 288.202 130.494 288.192C130.476 288.182 130.456 288.177 130.435 288.177C130.415 288.177 130.394 288.182 130.376 288.192C130.358 288.202 130.343 288.216 130.333 288.234C130.033 289.108 129.874 290.024 129.862 290.947C129.706 291.936 129.476 292.911 129.175 293.866C128.621 295.785 127.583 297.529 126.16 298.931C123 301.886 118.767 302.983 114.691 303.972C114.664 303.981 114.64 303.997 114.623 304.02C114.607 304.043 114.598 304.07 114.598 304.099C114.598 304.127 114.607 304.155 114.623 304.177C114.64 304.2 114.664 304.217 114.691 304.225C117.113 304.334 119.532 303.957 121.806 303.116C123.835 302.496 125.706 301.447 127.293 300.041C128.809 298.598 129.845 296.725 130.26 294.674C130.476 293.602 130.589 292.511 130.598 291.418C130.598 290.899 130.598 290.38 130.598 289.85C130.684 289.312 130.664 288.763 130.538 288.234Z" fill="#263238"/>
<path d="M154.175 220.553C155.212 228.754 171.276 259.242 188.377 272.749C194.648 277.705 227.897 280.636 236.219 279.985C245.951 279.237 247.411 256.07 241.959 254.261C235.146 252.006 203.621 249.22 197.434 247.025C189.908 244.299 176.208 226.8 163.184 215.97C156.49 210.362 153.379 214.246 154.175 220.553Z" fill="#AD6359"/>
<path d="M236.219 279.997C239.294 279.912 253.368 278.296 257.191 276.97C261.014 275.643 271.663 271.036 270.988 268.009C270.313 264.982 267.032 266.08 267.032 266.08C267.032 266.08 271.241 263.414 270.24 260.436C269.239 257.457 264.21 259.338 264.21 259.338C264.21 259.338 268.335 256.287 267.117 253.38C265.899 250.474 261.207 253.212 261.207 253.212C261.207 253.212 265.115 250.595 263.113 248.617C260.701 246.205 254.044 251.885 249.726 253.031C248.737 253.296 229.441 256.902 229.441 256.902L236.219 279.997Z" fill="#AD6359"/>
<path d="M261.702 252.983C256.793 257.107 253.935 258.072 247.688 258.928C247.667 258.936 247.648 258.949 247.635 258.968C247.622 258.986 247.615 259.008 247.615 259.031C247.615 259.053 247.622 259.075 247.635 259.094C247.648 259.112 247.667 259.126 247.688 259.133C253.875 258.844 257.638 258.156 261.907 253.212C262.088 252.971 261.895 252.79 261.702 252.983Z" fill="#263238"/>
<path d="M264.632 259C259.169 262.908 256.082 263.909 249.642 265.32C249.557 265.32 249.581 265.501 249.642 265.489C256.106 264.657 259.844 263.885 264.801 259.326C265.006 259.097 264.885 258.82 264.632 259Z" fill="#263238"/>
<path d="M266.695 266.14C261.135 269.481 257.795 270.795 251.331 271.338C251.299 271.338 251.268 271.351 251.245 271.373C251.223 271.396 251.21 271.427 251.21 271.459C251.21 271.491 251.223 271.521 251.245 271.544C251.268 271.566 251.299 271.579 251.331 271.579C256.967 271.919 262.51 270.03 266.767 266.321C267.093 266.068 267.045 265.935 266.695 266.14Z" fill="#263238"/>
<path d="M224.979 254.369C228.228 252.27 231.626 250.412 235.146 248.81C238.547 247.604 252.898 247.604 253.055 250.715C253.272 254.719 244.987 256.323 240.826 256.588C240.826 256.588 241.345 265.838 235.641 268.287C229.936 270.735 224.979 254.369 224.979 254.369Z" fill="#AD6359"/>
<path d="M252.766 251.837C250.354 255.624 244.842 255.612 240.826 256.166C240.765 256.169 240.706 256.188 240.655 256.22C240.603 256.252 240.56 256.296 240.53 256.349C240.5 256.402 240.484 256.462 240.483 256.522C240.482 256.583 240.496 256.643 240.525 256.697C240.525 260.592 239.319 266.068 235.882 268.371C235.773 268.443 235.882 268.6 235.966 268.54C239.958 266.562 241.574 261.304 241.345 256.999C245.469 256.504 250.993 256.275 252.802 251.849C252.814 251.825 252.778 251.813 252.766 251.837Z" fill="#263238"/>
<path d="M207.492 279.551C207.492 279.551 190.463 274.896 188.389 273.267C186.125 271.488 183.967 269.58 181.925 267.551C166.428 252.319 157.069 231.552 154.536 224.316C151.859 216.61 154.319 209.229 161.495 214.198C162.072 214.606 162.628 215.045 163.159 215.512C171.601 222.869 194.178 245.24 196.927 246.386C199.677 247.531 212.931 249.268 212.931 249.268L207.492 279.551Z" fill="#455A64"/>
<path d="M181.925 267.551C166.428 252.319 157.069 231.552 154.536 224.316C151.859 216.61 154.319 209.229 161.495 214.198L181.925 267.551Z" fill="#263238"/>
<path d="M207.432 248.737C206.639 251.065 205.983 253.437 205.466 255.841C204.875 258.253 204.26 260.665 203.766 263.077C202.692 267.807 201.886 272.595 201.354 277.416C201.354 277.445 201.365 277.473 201.385 277.493C201.406 277.513 201.433 277.525 201.462 277.525C201.491 277.525 201.518 277.513 201.539 277.493C201.559 277.473 201.571 277.445 201.571 277.416C202.873 272.689 203.838 267.853 204.827 263.053C205.321 260.641 205.767 258.301 206.262 255.937C206.756 253.574 207.347 251.113 207.613 248.774C207.617 248.75 207.613 248.725 207.599 248.704C207.585 248.684 207.564 248.67 207.54 248.665C207.516 248.66 207.491 248.665 207.471 248.679C207.451 248.692 207.437 248.713 207.432 248.737Z" fill="#263238"/>
<path d="M170.697 237.256C171.095 239.041 171.409 240.874 171.65 242.756C171.644 242.683 171.644 242.611 171.65 242.539C171.746 241.513 171.819 240.464 171.999 239.451C171.999 239.451 172.096 239.391 172.096 239.451C172.158 240.494 172.118 241.54 171.975 242.575C171.915 243.069 171.855 243.564 171.782 244.046C171.867 244.878 171.939 245.71 171.987 246.53C172.084 248.098 172.385 254.791 172.349 255.937C172.349 256.178 172.072 256.203 172.012 255.937C171.782 254.731 171.179 247.869 171.011 246.289C170.695 243.277 170.542 240.249 170.552 237.22C170.576 237.184 170.673 237.196 170.697 237.256Z" fill="#263238"/>
<path d="M172.614 287.354C170.202 289.524 167.26 292.696 150.328 293.878C149.266 293.878 148.181 293.962 147.096 293.878C130.79 293.42 107.913 280.612 106.55 279.599C106.55 279.599 124.121 232.058 147.361 213.812C150.677 211.195 157.793 212.485 162.243 215.174C163.835 216.139 169.093 224.931 170.154 232.939C171.216 240.947 175.014 285.183 172.614 287.354Z" fill="#455A64"/>
<path d="M159.409 227.09C155.308 227.427 149.435 220.336 147.505 215.03C147.373 214.668 148.434 211.207 149.519 206.938C150.171 204.345 150.834 201.45 151.244 198.761C151.328 198.206 153.053 199.509 153.053 199.509L156.406 200.883L167.501 205.442C166.018 208.658 164.937 212.044 164.281 215.524C164.245 215.901 164.245 216.281 164.281 216.658C164.286 216.718 164.286 216.779 164.281 216.839C164.245 218.973 163.364 226.728 159.409 227.09Z" fill="#AD6359"/>
<path d="M164.233 216.646C164.238 216.706 164.238 216.767 164.233 216.827C163.646 216.819 163.061 216.763 162.484 216.658C151.148 214.668 151.956 199.991 151.956 199.991L156.418 200.871L167.513 205.43C166.031 208.646 164.949 212.032 164.293 215.512C164.238 215.887 164.217 216.267 164.233 216.646Z" fill="#263238"/>
<path d="M150.099 181.093C147.94 187.05 150.244 204.682 154.344 208.831C160.29 214.861 170.481 215.862 175.654 208.602C180.683 201.583 177.27 178.645 172.651 174.834C165.838 169.25 153.283 172.301 150.099 181.093Z" fill="#AD6359"/>
<path d="M166.162 193.298C166.162 193.298 166.078 193.37 166.09 193.418C166.271 194.624 166.295 195.987 165.258 196.518C165.258 196.518 165.258 196.59 165.258 196.578C166.572 196.228 166.536 194.383 166.162 193.298Z" fill="#263238"/>
<path d="M164.944 192.188C163.015 192.285 163.352 196.132 165.137 196.047C166.922 195.963 166.56 192.104 164.944 192.188Z" fill="#263238"/>
<path d="M173.471 192.502C173.471 192.502 173.567 192.502 173.567 192.598C173.639 193.804 173.917 195.155 175.026 195.468C173.664 195.456 173.338 193.647 173.471 192.502Z" fill="#263238"/>
<path d="M174.436 191.163C176.341 190.861 176.848 194.696 175.051 194.986C173.254 195.275 172.832 191.428 174.436 191.163Z" fill="#263238"/>
<path d="M163.45 189.342C163.956 189.161 164.402 188.908 164.897 188.679C165.435 188.522 165.906 188.191 166.235 187.738C166.316 187.576 166.339 187.391 166.302 187.214C166.265 187.037 166.169 186.877 166.03 186.761C165.717 186.58 165.361 186.485 164.999 186.485C164.637 186.485 164.282 186.58 163.968 186.761C163.276 187.022 162.708 187.535 162.376 188.196C162.316 188.349 162.3 188.516 162.331 188.678C162.362 188.839 162.438 188.989 162.55 189.109C162.663 189.229 162.807 189.315 162.966 189.356C163.125 189.397 163.293 189.392 163.45 189.342Z" fill="#263238"/>
<path d="M175.642 189.86C175.114 189.802 174.591 189.714 174.074 189.595C173.51 189.577 172.967 189.374 172.53 189.016C172.422 188.874 172.364 188.7 172.364 188.522C172.364 188.343 172.422 188.17 172.53 188.027C172.778 187.764 173.093 187.573 173.442 187.475C173.79 187.377 174.159 187.376 174.508 187.473C175.246 187.549 175.93 187.897 176.425 188.449C176.53 188.586 176.592 188.749 176.604 188.92C176.617 189.091 176.579 189.262 176.496 189.412C176.412 189.562 176.287 189.684 176.136 189.764C175.984 189.843 175.812 189.877 175.642 189.86Z" fill="#263238"/>
<path d="M171.795 198.99C171.916 199.858 171.992 200.731 172.024 201.607C170.393 201.614 168.77 201.841 167.2 202.282C166.838 202.403 166.838 202.089 167.2 201.848C168.428 201.117 169.85 200.776 171.276 200.871C171.276 200.642 170.866 198.146 170.999 198.134C171.647 198.2 172.283 198.35 172.892 198.58C172.519 194.865 171.554 191.235 171.228 187.533C171.228 187.4 171.409 187.352 171.445 187.473C172.61 191.328 173.382 195.292 173.749 199.304C173.857 199.774 172.133 199.123 171.795 198.99Z" fill="#263238"/>
<path d="M151.377 195.794C154.416 195.577 154.03 188.148 154.03 188.148C154.03 188.148 158.661 187.256 160.844 180.912C160.844 180.912 166.874 184.53 171.855 183.613C179.67 182.094 179.332 171.903 176.377 169.865C172.18 166.971 164.824 171.348 164.824 171.348C164.824 171.348 153.584 168.37 150.352 175.992C148.901 176.11 147.549 176.775 146.568 177.852C145.588 178.928 145.052 180.337 145.069 181.792C144.78 187.28 149.122 195.951 151.377 195.794Z" fill="#263238"/>
<path d="M152.957 189.04C155.206 188.624 157.251 187.47 158.77 185.76C159.586 184.836 160.167 183.728 160.463 182.531C160.759 181.335 160.761 180.084 160.471 178.886C160.478 178.865 160.492 178.846 160.51 178.833C160.529 178.82 160.551 178.813 160.573 178.813C160.596 178.813 160.618 178.82 160.636 178.833C160.654 178.846 160.668 178.865 160.676 178.886C161.036 180.14 161.116 181.459 160.907 182.747C160.699 184.036 160.208 185.262 159.47 186.339C158.732 187.359 157.741 188.17 156.595 188.69C155.449 189.21 154.187 189.423 152.933 189.306C152.861 189.245 152.825 189.064 152.957 189.04Z" fill="#263238"/>
<path d="M164.523 171.686C165.491 170.087 167.009 168.895 168.792 168.333C170.96 167.718 173.279 167.924 175.304 168.912C176.11 169.335 176.79 169.961 177.277 170.73C177.764 171.498 178.04 172.381 178.078 173.29C178.102 175.399 177.4 177.451 176.088 179.103C176.088 179.103 175.98 179.103 176.016 179.103C177.062 177.544 177.598 175.698 177.547 173.821C177.515 172.928 177.23 172.062 176.727 171.324C176.223 170.585 175.521 170.004 174.701 169.648C171.469 168.261 166.766 168.55 164.692 171.843C164.631 171.915 164.45 171.795 164.523 171.686Z" fill="#263238"/>
<path d="M153.162 195.517C153.162 195.517 149.387 189.74 146.77 191.078C144.153 192.417 146.891 200.726 149.869 201.932C150.24 202.114 150.644 202.218 151.056 202.239C151.468 202.261 151.88 202.198 152.267 202.056C152.655 201.914 153.01 201.696 153.31 201.413C153.611 201.131 153.852 200.791 154.018 200.413L153.162 195.517Z" fill="#AD6359"/>
<path d="M147.554 193.43C147.554 193.43 147.554 193.49 147.554 193.515C148.507 194.027 149.342 194.734 150.005 195.59C150.668 196.446 151.143 197.432 151.401 198.483C151.285 198.267 151.124 198.078 150.928 197.93C150.732 197.782 150.506 197.679 150.266 197.627C150.027 197.576 149.778 197.577 149.539 197.631C149.299 197.685 149.075 197.791 148.88 197.941C148.88 197.941 148.88 198.061 148.88 198.049C149.255 197.943 149.653 197.955 150.021 198.085C150.388 198.214 150.706 198.455 150.931 198.773C151.305 199.308 151.62 199.882 151.871 200.485C151.968 200.678 152.305 200.582 152.245 200.365C152.414 197.627 150.436 193.792 147.554 193.43Z" fill="#263238"/>
<path d="M39.4 567.206H0V559.97H39.4C70.6113 559.97 79.5116 533.257 81.4774 510.85C83.021 493.302 83.9617 471.932 84.9627 449.344C88.7134 364.706 92.5967 277.187 126.654 277.187H157.865V284.423H126.63C99.495 284.423 95.274 379.926 92.1746 449.645C91.1615 472.354 90.2088 493.797 88.6651 511.513C85.5295 547.415 68.0305 567.206 39.4 567.206Z" fill="#FF9595"/>
<path opacity="0.2" d="M157.865 277.151V284.387H132.973L131.43 277.151H157.865Z" fill="black"/>
<path d="M266.141 327.513H279.431V234.676H266.141V327.513Z" fill="#FF9595"/>
<path d="M266.14 239.077H215.633V322.147H266.14V239.077Z" fill="#FF9595"/>
<path opacity="0.2" d="M266.14 239.077V322.147H253.598L247.966 239.077H266.14Z" fill="black"/>
<path d="M139.124 288.162H176.595V273.364H139.124V288.162Z" fill="#FF9595"/>
<path d="M176.594 273.376H139.124V288.174H176.594V273.376Z" fill="#FF9595"/>
<path opacity="0.2" d="M163.438 288.162L164.668 273.376H176.595V288.162H163.438Z" fill="black"/>
<path d="M215.633 317.226H184.011C182.044 317.226 180.158 316.445 178.767 315.054C177.376 313.663 176.595 311.776 176.595 309.809V252.355C176.595 250.388 177.376 248.502 178.767 247.111C180.158 245.72 182.044 244.938 184.011 244.938H215.633V317.226Z" fill="#FF9595"/>
<path opacity="0.2" d="M199.014 317.226L204.646 244.951H215.632V317.226H199.014Z" fill="black"/>
<g opacity="0.2">
<path d="M201.921 302.609H204.417V259.555H201.921V302.609Z" fill="black"/>
<path d="M194.865 302.609H197.361V259.555H194.865V302.609Z" fill="black"/>
<path d="M187.798 302.609H190.294V259.555H187.798V302.609Z" fill="black"/>
</g>
<path d="M136.821 230.527C135.615 247.941 134.24 283.41 141.934 293.818C152.029 307.47 180.526 315.755 188.968 318.239C192.586 319.312 201.258 295.325 199.111 291.876C196.964 288.427 167.55 281.022 165.234 278.996C162.919 276.97 155.586 248.701 152.101 234.302C147.591 216.139 137.315 223.653 136.821 230.527Z" fill="#AD6359"/>
<path d="M220.843 301.09C225.486 302.199 232.529 299.812 232.758 303.369C232.963 306.529 227.934 307.699 227.934 307.699C227.934 307.699 234.037 308.217 233.289 311.679C232.541 315.14 226.753 315.297 226.753 315.297C226.753 315.297 232.348 316.056 231.347 319.457C230.346 322.858 224.98 323.329 224.98 323.329C224.98 323.329 226.391 324.378 224.606 326.464C222.061 329.455 213.571 329.105 209.193 327.875C204.815 326.645 189.656 318.878 187.353 317.636L195.035 289.416C195.035 289.416 203.851 288.017 208.409 287.848C212.968 287.679 228.127 291.297 227.488 295.084C226.849 298.871 216.176 296.169 213.414 296.073C210.652 295.976 210.17 296.591 211.376 297.605C212.16 298.316 218.781 300.595 220.843 301.09Z" fill="#AD6359"/>
<path d="M227.657 307.638C220.529 308.844 217.201 308.048 210.664 305.226C210.531 305.166 210.423 305.347 210.555 305.419C216.706 308.736 220.746 310.243 227.729 307.964C228.079 307.868 228.006 307.59 227.657 307.638Z" fill="#263238"/>
<path d="M227.029 315.176C219.516 315.719 215.91 314.959 208.843 312.523C208.746 312.523 208.674 312.655 208.77 312.704C215.512 315.658 219.564 317.093 227.005 315.562C227.343 315.502 227.379 315.152 227.029 315.176Z" fill="#263238"/>
<path d="M224.883 323.28C217.562 323.28 213.571 322.605 207.01 319.373C206.98 319.358 206.945 319.355 206.913 319.365C206.88 319.375 206.853 319.396 206.836 319.425C206.819 319.454 206.814 319.489 206.822 319.522C206.829 319.555 206.849 319.583 206.877 319.602C213.245 323.558 218.226 324.426 224.859 323.51C225.305 323.437 225.341 323.28 224.883 323.28Z" fill="#263238"/>
<path d="M166.717 312.583C166.717 312.583 143.719 301.03 140.185 292.178C135.844 281.131 134.071 248.918 135.759 232.396C137.448 215.874 148.953 217.924 152.643 232.529C156.261 246.784 164.426 275.257 165.27 276.596C166.343 278.321 179.465 281.565 179.465 281.565" fill="#455A64"/>
<path d="M164.414 272.906C164.016 271.543 163.316 268.468 162.918 267.141C162.11 264.488 161.302 261.822 160.506 259.169C159.711 256.516 158.854 253.851 157.974 251.21C157.817 250.763 157.672 250.305 157.528 249.859C157.6 249.569 157.274 246.072 157.299 245.216C157.299 245.083 157.081 245.071 157.093 245.216C157.126 246.073 157.097 246.931 157.009 247.785C157.009 247.941 157.009 248.11 157.009 248.267C156.454 246.53 155.9 244.806 155.333 243.117C155.333 242.997 155.092 243.045 155.128 243.117C156.213 246.735 156.744 249.015 157.54 251.945C158.336 254.876 159.156 257.601 159.952 260.387C160.748 263.173 161.676 266.007 162.557 268.829C163.052 270.502 163.632 272.148 164.293 273.762C164.8 274.847 164.824 274.341 164.414 272.906Z" fill="#263238"/>
<path d="M138.473 282.638C138.003 279.659 137.533 276.608 137.171 273.666C136.435 267.636 135.965 261.702 135.699 255.672C135.543 252.223 135.289 248.798 135.096 245.361C135.096 245.326 135.083 245.292 135.058 245.267C135.033 245.242 134.999 245.228 134.964 245.228C134.929 245.228 134.895 245.242 134.87 245.267C134.845 245.292 134.831 245.326 134.831 245.361C134.831 248.424 134.723 251.475 134.831 254.538C134.831 254.985 134.831 255.431 134.831 255.877L134.686 255.25C134.24 253.501 133.613 251.789 133.227 250.016C133.217 249.995 133.199 249.979 133.178 249.971C133.156 249.962 133.133 249.961 133.111 249.968C133.089 249.976 133.071 249.991 133.059 250.01C133.047 250.03 133.042 250.053 133.046 250.076C133.48 251.837 133.71 253.694 134.12 255.419C134.337 256.299 134.554 257.179 134.795 258.06L134.916 258.434C134.988 260.194 135.072 261.955 135.193 263.716C135.52 269.759 136.217 275.776 137.279 281.734C138.008 285.63 139.061 289.458 140.427 293.179C140.434 293.197 140.446 293.213 140.462 293.224C140.479 293.235 140.498 293.241 140.517 293.241C140.537 293.241 140.556 293.235 140.573 293.224C140.589 293.213 140.601 293.197 140.608 293.179C139.896 290.2 138.956 285.617 138.473 282.638Z" fill="#263238"/>
<path d="M175.196 281.553C173.936 283.718 172.809 285.957 171.819 288.258C170.758 290.525 169.684 292.793 168.683 295.084C166.654 299.596 164.878 304.218 163.365 308.929C163.362 308.955 163.368 308.982 163.382 309.004C163.396 309.027 163.416 309.045 163.441 309.054C163.466 309.064 163.493 309.065 163.519 309.058C163.544 309.05 163.566 309.035 163.582 309.013C165.825 304.551 167.743 299.908 169.696 295.313C170.661 293.046 171.59 290.754 172.543 288.487C173.495 286.22 174.581 283.941 175.316 281.601C175.341 281.529 175.232 281.492 175.196 281.553Z" fill="#263238"/>
<path d="M301.693 219.142C301.533 219.142 301.38 219.079 301.266 218.966C301.153 218.852 301.09 218.699 301.09 218.539V201.571C301.09 201.411 301.153 201.257 301.266 201.144C301.38 201.031 301.533 200.968 301.693 200.968C301.853 200.968 302.006 201.031 302.119 201.144C302.232 201.257 302.296 201.411 302.296 201.571V218.539C302.296 218.699 302.232 218.852 302.119 218.966C302.006 219.079 301.853 219.142 301.693 219.142Z" fill="#263238"/>
<path d="M270.988 227.271C270.881 227.271 270.776 227.243 270.683 227.19C270.59 227.137 270.512 227.061 270.458 226.969L262.016 212.268C261.966 212.2 261.931 212.122 261.914 212.039C261.896 211.957 261.896 211.872 261.913 211.789C261.931 211.706 261.965 211.628 262.015 211.56C262.064 211.492 262.127 211.434 262.2 211.392C262.273 211.35 262.354 211.323 262.438 211.314C262.522 211.305 262.607 211.313 262.687 211.339C262.768 211.365 262.842 211.407 262.905 211.463C262.968 211.519 263.018 211.588 263.053 211.665L271.495 226.366C271.536 226.434 271.562 226.509 271.574 226.587C271.585 226.666 271.58 226.746 271.56 226.822C271.54 226.899 271.504 226.97 271.456 227.033C271.407 227.095 271.347 227.147 271.278 227.186C271.191 227.24 271.091 227.269 270.988 227.271Z" fill="#263238"/>
<path d="M262.16 348.256C262.054 348.257 261.95 348.228 261.859 348.172C261.791 348.128 261.734 348.071 261.689 348.005C261.644 347.938 261.613 347.863 261.599 347.784C261.584 347.705 261.586 347.623 261.603 347.545C261.621 347.467 261.655 347.393 261.702 347.328L270.144 332.639C270.184 332.57 270.237 332.509 270.299 332.461C270.362 332.412 270.434 332.377 270.511 332.356C270.588 332.335 270.668 332.33 270.747 332.34C270.825 332.35 270.901 332.376 270.97 332.416C271.039 332.455 271.1 332.508 271.148 332.571C271.197 332.634 271.232 332.706 271.253 332.783C271.274 332.859 271.279 332.939 271.269 333.018C271.259 333.097 271.233 333.173 271.193 333.242L262.751 347.931C262.697 348.038 262.611 348.126 262.506 348.184C262.4 348.242 262.28 348.267 262.16 348.256Z" fill="#263238"/>
<path d="M301.307 358.845C301.147 358.845 300.994 358.782 300.881 358.669C300.768 358.555 300.704 358.402 300.704 358.242V341.298C300.704 341.138 300.768 340.985 300.881 340.871C300.994 340.758 301.147 340.695 301.307 340.695C301.466 340.698 301.618 340.762 301.73 340.875C301.842 340.987 301.907 341.139 301.91 341.298V358.266C301.904 358.422 301.838 358.569 301.725 358.677C301.613 358.785 301.463 358.845 301.307 358.845Z" fill="#263238"/>
<path d="M340.502 348.45C340.397 348.449 340.294 348.421 340.203 348.368C340.112 348.315 340.036 348.239 339.983 348.148L331.541 333.459C331.502 333.39 331.476 333.314 331.466 333.235C331.456 333.157 331.461 333.077 331.482 333C331.503 332.923 331.538 332.851 331.587 332.788C331.635 332.725 331.696 332.673 331.765 332.633C331.833 332.593 331.909 332.568 331.988 332.558C332.067 332.547 332.147 332.553 332.224 332.573C332.3 332.594 332.372 332.63 332.435 332.678C332.498 332.727 332.551 332.787 332.591 332.856L341.033 347.545C341.073 347.613 341.1 347.688 341.111 347.767C341.123 347.845 341.118 347.925 341.098 348.001C341.077 348.078 341.042 348.149 340.994 348.212C340.945 348.274 340.885 348.326 340.816 348.365C340.722 348.423 340.612 348.453 340.502 348.45Z" fill="#263238"/>
<path d="M332.349 227.464C332.243 227.464 332.138 227.435 332.048 227.379C331.979 227.34 331.918 227.288 331.87 227.226C331.821 227.163 331.786 227.092 331.766 227.015C331.746 226.939 331.741 226.859 331.752 226.78C331.763 226.702 331.79 226.627 331.831 226.559L340.273 211.858C340.361 211.737 340.49 211.653 340.636 211.623C340.782 211.592 340.934 211.616 341.064 211.691C341.193 211.766 341.289 211.887 341.335 212.029C341.38 212.171 341.371 212.325 341.31 212.461L332.868 227.162C332.814 227.252 332.738 227.326 332.647 227.379C332.556 227.432 332.454 227.461 332.349 227.464Z" fill="#263238"/>
<path d="M238.36 167V147.32H197.32V133.64L237.4 77.6H254.44V133.64H267.52V147.32H254.44V167H238.36ZM209.32 139.52L206.44 133.64H238.36V90.44L242.56 91.76L209.32 139.52ZM313.996 168.44C306.876 168.44 300.636 166.52 295.276 162.68C289.916 158.84 285.716 153.44 282.676 146.48C279.716 139.52 278.236 131.44 278.236 122.24C278.236 112.96 279.716 104.88 282.676 98C285.636 91.12 289.796 85.76 295.156 81.92C300.516 78.08 306.756 76.16 313.876 76.16C321.156 76.16 327.436 78.08 332.716 81.92C338.076 85.76 342.276 91.16 345.316 98.12C348.356 105 349.876 113.04 349.876 122.24C349.876 131.44 348.356 139.52 345.316 146.48C342.356 153.36 338.196 158.76 332.836 162.68C327.476 166.52 321.196 168.44 313.996 168.44ZM314.116 153.56C318.196 153.56 321.676 152.32 324.556 149.84C327.436 147.28 329.636 143.68 331.156 139.04C332.756 134.32 333.556 128.72 333.556 122.24C333.556 115.76 332.756 110.2 331.156 105.56C329.636 100.84 327.396 97.24 324.436 94.76C321.556 92.28 318.036 91.04 313.876 91.04C309.876 91.04 306.436 92.28 303.556 94.76C300.676 97.24 298.436 100.84 296.836 105.56C295.316 110.2 294.556 115.76 294.556 122.24C294.556 128.64 295.316 134.2 296.836 138.92C298.436 143.56 300.676 147.16 303.556 149.72C306.516 152.28 310.036 153.56 314.116 153.56ZM401.837 167V147.32H360.797V133.64L400.877 77.6H417.917V133.64H430.997V147.32H417.917V167H401.837ZM372.797 139.52L369.917 133.64H401.837V90.44L406.037 91.76L372.797 139.52Z" fill="#344767"/>
</svg>
