<svg width="692" height="692" viewBox="0 0 692 692" fill="none" xmlns="http://www.w3.org/2000/svg">
    <path d="M512.08 509.312C507.148 512.014 502.065 514.431 496.856 516.55C452.056 534.764 392.876 532.812 354.304 501.562C331.357 482.947 323.731 451.738 307.677 426.923C287.526 395.824 253.161 375.064 222.824 354.968C181.899 327.856 145.555 298.723 134.94 248.899C126.096 207.475 136.878 161.195 170.011 133.362C201.538 106.886 241.826 89.1712 281.644 79.6216C315.912 71.4006 346.374 76.0508 368.435 105.918C382.856 125.418 389.956 149.181 397.817 172.114C406.702 198.05 418.383 230.505 442.382 246.214C465.301 261.216 496.358 260.718 521.27 271.679C562.236 289.782 588.352 334.568 588.947 379.354C589.653 432.528 558.209 484.082 512.08 509.312Z" fill="#FF9595"/>
    <path opacity="0.9" d="M512.08 509.312C507.148 512.014 502.065 514.431 496.856 516.55C452.056 534.764 392.876 532.812 354.304 501.562C331.357 482.947 323.731 451.738 307.677 426.923C287.526 395.824 253.161 375.064 222.824 354.968C181.899 327.856 145.555 298.723 134.94 248.899C126.096 207.475 136.878 161.195 170.011 133.362C201.538 106.886 241.826 89.1712 281.644 79.6216C315.912 71.4006 346.374 76.0508 368.435 105.918C382.856 125.418 389.956 149.181 397.817 172.114C406.702 198.05 418.383 230.505 442.382 246.214C465.301 261.216 496.358 260.718 521.27 271.679C562.236 289.782 588.352 334.568 588.947 379.354C589.653 432.528 558.209 484.082 512.08 509.312Z" fill="white"/>
    <path d="M346 591.743C494.202 591.743 614.344 584.729 614.344 576.076C614.344 567.423 494.202 560.409 346 560.409C197.798 560.409 77.6562 567.423 77.6562 576.076C77.6562 584.729 197.798 591.743 346 591.743Z" fill="#F5F5F5"/>
    <path d="M587.161 277.561C586.843 272.648 586.317 267.68 585.611 262.808L587.161 262.586C587.867 267.5 588.393 272.51 588.725 277.464L587.161 277.561Z" fill="#FF9595"/>
    <path d="M581.709 243.28C578.013 228.855 572.624 214.918 565.654 201.76L567.038 201.026C574.062 214.295 579.492 228.348 583.217 242.892L581.709 243.28Z" fill="#FF9595"/>
    <path d="M529.167 421.871C601.847 349.191 601.847 231.355 529.167 158.676C456.488 85.9972 338.652 85.9972 265.973 158.676C193.294 231.355 193.294 349.191 265.973 421.871C338.652 494.55 456.488 494.55 529.167 421.871Z" fill="#FF9595"/>
    <g opacity="0.2">
    <path opacity="0.4" d="M412.834 473.854H412.654L411.367 473.951L413.761 473.522C411.284 473.688 407.976 473.868 405.457 473.978L404.073 474.366L400.876 474.449C401.405 474.132 401.873 473.725 402.26 473.245C405.471 473.162 409.775 472.982 412.986 472.83L411.989 473.342L416.612 472.996L412.806 473.84" fill="white"/>
    <path d="M381.347 472.774C378.662 472.567 375.078 472.262 372.393 471.999C366.012 468.609 365.763 468.47 360.49 462.906C364.462 463.28 369.763 463.751 373.735 464.041C377.513 469.854 377.666 470.076 381.347 472.774Z" fill="white"/>
    <path d="M364.933 468.982C357.528 468.041 356.393 467.889 350.415 466.837C337.446 459.28 332.035 454.672 321.115 438.714C332.464 440.624 334.208 440.929 344.74 442.202C351.799 456.443 355.3 461.689 364.933 468.982Z" fill="white"/>
    <path d="M376.323 473.328C374.635 473.106 372.379 472.83 370.69 472.581L368.144 472.193L366.137 471.819C368.365 472.138 371.327 472.553 373.555 472.83L376.323 473.328Z" fill="white"/>
    <path opacity="0.4" d="M399.395 474.477H396.142C390.925 474.38 390.814 474.38 388.157 474.241C382.718 473.909 382.621 473.895 379.853 473.632L378.178 473.452C376.236 473.116 374.317 472.654 372.435 472.068C375.12 472.331 378.704 472.636 381.389 472.843C388.005 473.203 391.644 473.397 400.253 473.355C400.045 473.743 399.852 474.463 399.436 474.546" fill="white"/>
    <path d="M386.136 472.096C386.136 472.221 386.399 472.774 384.42 472.705C381.984 472.539 380.268 471.667 380.932 471.183C381.845 470.491 385.638 471.183 386.136 472.096Z" fill="white"/>
    <path opacity="0.4" d="M394.343 472.332C394.343 472.401 394.218 472.996 392.101 472.982C389.983 472.968 388.724 472.207 389.236 471.695C390.136 470.823 394.426 471.349 394.343 472.332Z" fill="white"/>
    <path opacity="0.4" d="M402.661 472.304C402.661 472.373 402.108 472.982 399.893 473.037C397.969 473.037 397.125 472.484 397.61 471.999C398.509 471.003 402.813 471.113 402.717 472.124C402.702 472.187 402.679 472.247 402.647 472.304" fill="white"/>
    <path opacity="0.4" d="M421.829 456.319C416.957 456.526 410.466 456.789 405.595 456.9C406.467 448.956 406.619 447.516 407.325 438.23C413.207 438.064 421.026 437.801 426.895 437.524C425.638 443.897 423.946 450.177 421.829 456.319Z" fill="white"/>
    <path opacity="0.4" d="M402.204 450.949C396.972 450.949 389.983 450.879 384.752 450.769C383.658 441.731 383.465 440.098 382.606 429.898C388.751 430.009 396.959 430.106 403.103 430.106C402.702 440.832 402.633 442.769 402.204 450.949Z" fill="white"/>
    <path opacity="0.4" d="M425.787 462.56C421.469 462.823 415.712 463.155 411.394 463.335L412.39 459.848C417.013 459.64 423.171 459.322 427.794 459.017L425.787 462.56Z" fill="white"/>
    <path opacity="0.4" d="M470.062 418.563C464.872 419.227 457.952 420.099 452.748 420.653L454.838 411.56C460.236 410.937 467.418 410.107 472.83 409.387L470.062 418.563Z" fill="white"/>
    <path opacity="0.4" d="M403.131 429.427C396.958 429.427 388.724 429.344 382.551 429.22C381.679 416.529 381.638 416.03 381.25 408.045C387.99 408.155 396.958 408.266 403.698 408.266C403.352 422.549 403.352 422.549 403.131 429.427Z" fill="white"/>
    <path d="M379.908 445.025C367.521 444.43 360.033 444.07 344.989 442.409C340.422 431.13 338.526 426.466 334.609 409.193C348.768 410.716 357.335 411.588 376.448 412.432C377.486 425.538 378.012 432.126 379.852 445.067" fill="white"/>
    <path opacity="0.4" d="M446.63 434.354C433.344 435.476 425.317 436.154 407.671 436.541C408.404 424.902 408.778 419.061 409.429 400.709C425.386 400.253 435.033 399.976 454.768 398.177C452.36 412.46 451.156 419.629 446.63 434.354Z" fill="white"/>
    <path opacity="0.4" d="M328.894 403.519C315.153 401.851 301.511 399.453 288.025 396.336C286.447 390.8 284.398 383.34 283.111 377.707C297.204 380.973 311.461 383.482 325.822 385.222C326.666 390.758 327.842 398.052 328.894 403.519Z" fill="white"/>
    <path opacity="0.3" d="M301.047 379.216C289.695 377.155 278.456 374.513 267.375 371.299C264.302 354.941 262.766 346.733 262.489 326.389C273.997 329.731 285.67 332.47 297.463 334.596C297.864 349.958 298.155 361.044 301.047 379.216Z" fill="white"/>
    <path d="M460.346 453.814C450.534 455.364 447.89 455.779 435.545 457.066L437.413 453.758C448.485 452.596 451.392 452.277 463.419 450.354L460.346 453.814Z" fill="white"/>
    <path d="M449.8 463.031C441.191 464.415 439.862 464.595 432.181 465.439L432.458 465.176L429.399 465.481L431.212 463.363C440.527 462.367 443.032 462.104 453.204 460.484L449.8 463.031Z" fill="white"/>
    <path d="M314.334 377.071C314.334 378.593 313.448 381.07 309.808 380.669C304.494 379.576 302.293 373.542 305.338 371.355C308.383 369.168 314.251 372.739 314.334 377.071Z" fill="white"/>
    <path d="M439.628 441.025C439.03 441.956 438.212 442.725 437.246 443.266C436.281 443.807 435.198 444.102 434.092 444.126C430.383 444.292 429.386 442.077 431.033 440.153C433.455 437.385 439.448 437.053 439.822 439.78C439.867 440.209 439.785 440.642 439.586 441.025" fill="white"/>
    <path d="M312.784 360.601C312.787 361.201 312.654 361.794 312.395 362.335C312.137 362.876 311.759 363.351 311.29 363.726C310.821 364.1 310.274 364.363 309.689 364.495C309.104 364.628 308.496 364.626 307.912 364.49C302.515 363.369 300.605 356.947 303.871 354.595C307.137 352.242 312.936 355.979 312.784 360.601Z" fill="white"/>
    <path opacity="0.4" d="M505.658 437.441C500.271 439.871 494.722 441.925 489.05 443.586C492.468 439.946 496.98 435.046 500.122 431.13C505.823 429.471 511.416 427.46 516.868 425.109L518.737 424.251C514.917 428.293 510.35 434.382 505.686 437.399" fill="white"/>
    <path opacity="0.4" d="M549.794 393.956C547.303 397.333 544.092 401.927 541.49 405.208L536.424 411.269C534.19 413.713 531.628 415.837 528.812 417.58C532.466 412.93 537.296 406.675 540.646 401.789C546.901 397.291 547.026 397.208 550.624 392.765L549.808 393.956" fill="white"/>
    <path opacity="0.4" d="M578.761 323.51C577.017 331.316 574.401 341.654 572.09 349.294C574.318 341.654 576.948 331.302 578.567 323.565L579.176 321.212L578.761 323.51Z" fill="white"/>
    <path opacity="0.4" d="M522.848 425.248C525.699 422.369 529.615 418.646 532.342 415.657L533.934 414.065C530.626 417.442 526.294 422.009 522.862 425.248" fill="white"/>
    <path opacity="0.4" d="M507.941 437.69L511.374 435.047L512.19 434.41L507.941 437.69Z" fill="white"/>
    <path opacity="0.4" d="M523.886 342.581C523.29 348.948 522.502 357.446 521.533 363.784C515.872 365.168 508.302 366.898 502.6 368.089C504.62 349.751 504.731 348.713 505.022 332.298C510.834 331.053 518.585 329.323 524.398 327.897C524.259 332.298 524.259 338.18 523.913 342.581" fill="white"/>
    <path opacity="0.4" d="M547.233 355.342C538.867 358.733 530.28 361.554 521.532 363.784C522.349 357.432 523.373 348.962 523.885 342.581C538.417 338.429 538.694 338.429 550.084 333.987C549.351 340.409 548.326 348.976 547.233 355.342Z" fill="white"/>
    <path opacity="0.4" d="M537.671 387.658C533.519 389.208 528.093 391.215 523.955 392.585C529.367 376.351 529.699 375.382 532.591 360.615C537.006 359.106 542.888 357.044 547.234 355.342C543.151 372.988 542.902 374.04 537.671 387.658Z" fill="white"/>
    <path opacity="0.4" d="M567.661 318.431C562.762 321.129 556.133 324.603 551.053 326.998C548.368 298.072 548.285 296.951 543.206 273.617C548.064 271.264 554.513 268.081 559.205 265.313C565.295 293.09 565.655 294.75 567.648 318.403" fill="white"/>
    <path opacity="0.4" d="M572.048 348.021C568.464 352.948 564.395 358.539 547.399 366.192C548.783 360.047 550.638 351.827 551.69 345.612C555.136 343.938 559.703 341.64 563.039 339.744C569.959 335.052 573.114 332.907 577.031 326.915C575.647 333.281 574.886 342.139 572.048 348.021Z" fill="white"/>
    <path opacity="0.4" d="M525.629 420.611C523.927 421.553 521.671 422.854 519.913 423.712L518.709 424.293L516.841 425.151C525.532 414.079 530.335 407.948 537.13 393.9C540.258 392.392 544.396 390.302 547.413 388.586C542.957 396.544 531.899 415.588 525.629 420.611Z" fill="white"/>
    <path opacity="0.4" d="M519 397.319C514.059 398.703 507.443 400.377 502.461 401.554C507.305 385.873 507.596 384.946 510.281 370.538C515.623 369.237 522.737 367.452 528.023 365.985C524.093 383.174 523.871 384.198 519 397.319Z" fill="white"/>
    <path opacity="0.4" d="M473.106 447.516L469.521 448.236C477.161 438.396 477.825 437.593 483.361 427.476L487.624 426.632C477.742 443.24 474.296 446.866 473.12 447.558" fill="white"/>
    <path opacity="0.4" d="M467.28 448.665L463.502 449.329C470.505 439.641 471.072 438.811 476.179 428.735L480.677 427.947C471.488 444.555 468.332 448.028 467.28 448.707" fill="white"/>
    <path opacity="0.4" d="M461.149 449.717L457.204 450.326C463.667 440.513 464.055 439.918 468.677 429.926L473.383 429.192C467.487 440.735 467.017 441.648 461.149 449.717Z" fill="white"/>
    <path opacity="0.4" d="M569.599 328.977C569.336 330.748 568.437 334.098 566.831 335.399C565.032 336.437 564.714 332.894 565.641 329.267C566.568 325.641 568.478 323.206 569.35 324.742C569.839 326.1 569.921 327.572 569.585 328.977" fill="white"/>
    <path opacity="0.4" d="M553.13 375.936C551.746 378.981 548.507 384.752 544.632 387.008C540.923 388.655 541.518 383.991 542.833 380.462C545.78 372.517 552.963 365.155 554.486 368.518C555.081 369.902 554.569 372.67 553.102 375.922" fill="white"/>
    <path opacity="0.4" d="M432.168 465.439L428.016 468.982C425.706 470.363 423.301 471.579 420.819 472.622L420.252 472.691L416.667 473.01L412.045 473.356L413.041 472.844L413.72 472.415C417.539 469.065 417.539 469.065 419.366 466.256L423.518 465.979L429.456 465.481L432.514 465.176L432.237 465.439" fill="white"/>
    <path opacity="0.4" d="M411.367 473.965C409.208 474.103 406.329 474.269 404.17 474.366L405.554 473.978C408.045 473.868 411.353 473.688 413.858 473.522L411.464 473.951" fill="white"/>
    <path opacity="0.4" d="M575.191 323.856C574.928 325.641 574.18 329.018 573.004 330.361C571.869 331.316 571.814 328.741 571.966 327.067C572.354 322.915 574.111 318.334 575.011 319.303C575.454 319.773 575.523 321.572 575.191 323.856Z" fill="white"/>
    <path opacity="0.4" d="M578.789 318.514C578.55 320.76 578.02 322.965 577.211 325.074C577.087 325.254 576.838 325.6 576.727 324.88C576.298 322.334 578.111 313.185 578.886 313.808C579.163 314.057 579.135 315.967 578.789 318.445" fill="white"/>
    <path d="M330.582 457.467C327.399 456.692 323.164 455.627 320.008 454.699C309.019 446.299 308.355 445.786 300.217 436.901C304.203 437.981 309.517 439.365 313.517 440.306C322.042 450.326 322.555 450.935 330.582 457.412" fill="white"/>
    <path d="M311.746 448.416C306.208 446.799 300.789 444.801 295.526 442.437C291.374 438.852 285.769 434.022 281.824 430.161C284.952 431.545 289.146 433.233 292.343 434.424C294.709 435.185 297.879 436.25 300.218 436.942C303.595 440.472 308.12 445.15 311.746 448.416Z" fill="white"/>
    <path opacity="0.7" d="M279.568 417.968C283.222 423.061 288.301 429.704 292.356 434.479C289.173 433.261 284.952 431.6 281.838 430.216C270.987 418.023 270.337 417.29 262.78 405.567L267.015 407.463C269.423 408.391 272.551 409.678 275.029 410.536L279.568 417.968Z" fill="white"/>
    <path opacity="0.7" d="M296.771 423.019C299.346 427.088 302.792 432.5 305.629 436.389C301.726 435.323 296.55 433.87 292.689 432.666C289.561 428.625 285.423 423.199 282.572 418.951C280.689 415.726 278.087 411.505 276.357 408.211C280.828 409.595 286.807 411.311 291.332 412.501C292.952 415.67 294.945 419.975 296.771 423.019Z" fill="white"/>
    <path d="M280.329 403.38C280.772 404.681 280.855 406.688 278.295 406.038C273.977 404.502 270.752 398.453 272.966 397.471C274.904 396.627 279.167 400.045 280.329 403.38Z" fill="white"/>
    <path d="M261.064 371.452C262.517 376.462 264.413 383.16 266.102 388.06L260.469 386.136C256.317 384.392 250.698 381.984 246.629 379.908C240.096 361.708 239.972 361.362 236.276 341.682C242.99 345.155 249.964 348.103 257.133 350.498C258.185 356.823 259.5 365.307 261.091 371.521" fill="white"/>
    <path d="M247.335 386.385L243.28 383.797C235.958 367.106 232.941 360.186 228.706 337.045L233.149 339.883C236.692 358.248 238.159 365.846 247.335 386.385Z" fill="white"/>
    <path d="M229.246 365.224L227.045 360.103L222.201 346.844L222.838 348.491C224.692 353.529 227.114 360.283 229.246 365.224Z" fill="white"/>
    <path opacity="0.7" d="M222.824 283.277L220.706 281.215L220.637 281.81C216.485 276.551 216.485 276.551 215.544 273.852L216.997 264.261C216.567 262.484 216.294 260.674 216.181 258.849L217.468 252.497V254.462C219.571 246.573 222.755 236.152 225.467 228.457C226.644 233.342 227.183 235.571 232.982 241.148C227.778 257.078 224.914 265.852 222.768 283.277" fill="white"/>
    <path d="M215.53 273.852C214.022 292.259 213.897 293.754 214.534 305.85C214.174 304.536 213.901 303.2 213.717 301.85L213.357 289.976C214.202 270.088 214.215 269.7 216.029 258.905L216.388 256.884L216.167 258.85C216.286 260.673 216.559 262.484 216.983 264.261L215.53 273.852Z" fill="white"/>
    <path d="M218.603 334.111L217.925 331.219L215.835 320.617L216.07 321.697L218.603 334.111Z" fill="white"/>
    <path d="M215.475 316.078C215.599 317.171 215.807 319.067 215.765 319.538C215.719 319.471 215.686 319.396 215.669 319.317C215.669 319.054 215.502 318.555 215.253 316.853L214.451 310.473C214.338 309.67 214.273 308.861 214.257 308.051C214.492 308.369 215.226 313.988 215.475 316.078Z" fill="white"/>
    <path d="M399.879 110.72C401.216 110.793 402.547 110.95 403.865 111.191L397.886 113.322L399.879 110.72Z" fill="white"/>
    <path d="M355.536 113.696L359.868 113.114L355.536 113.696Z" fill="white"/>
    <path opacity="0.7" d="M359.729 113.211L359.868 113.114L360.74 112.616C377.721 111.564 379.908 111.44 397.886 113.363C379.479 111.883 377.555 111.717 359.729 113.211Z" fill="white"/>
    <path opacity="0.7" d="M359.48 128.933C358.456 128.56 357.072 128.061 356.062 127.646C350.692 130.65 343.606 134.705 338.388 138.012C339.841 138.566 341.779 139.396 343.246 139.825L342.028 140.767C340.243 140.13 337.876 139.23 336.104 138.497C351.633 129.016 352.56 128.449 366.22 122.498C366.995 122.816 368.033 123.245 368.836 123.522L367.244 124.297L367.687 124.449L359.48 128.933Z" fill="white"/>
    <path opacity="0.4" d="M318.417 138.967C317.484 138.005 316.619 136.978 315.829 135.895C334.029 126.996 334.735 126.65 352.09 120.989C352.511 121.593 352.973 122.166 353.474 122.705C334.818 129.93 334.098 130.207 318.348 138.967" fill="white"/>
    <path d="M353.543 122.705L362.096 119.993L353.543 122.705Z" fill="white"/>
    <path opacity="0.4" d="M293.85 173.637C290.175 171.949 286.702 169.85 283.498 167.381C303.718 149.015 313.517 141.735 339.439 128.989C341.073 130.254 342.847 131.326 344.726 132.186C324.215 144.642 314.514 151.562 293.85 173.637Z" fill="white"/>
    <path opacity="0.7" d="M364.518 121.667C363.882 121.28 363.051 120.754 362.456 120.283C380.836 115.508 382.33 115.121 397.886 113.363C380.144 116.602 378.69 116.865 364.518 121.667Z" fill="white"/>
    <path opacity="0.4" d="M287.983 161.139C286.696 159.807 285.503 158.387 284.412 156.89C299.775 145.209 300.688 144.434 314.736 136.476C315.532 137.575 316.406 138.616 317.351 139.59C301.242 150.081 300.273 150.662 287.983 161.139Z" fill="white"/>
    <path opacity="0.4" d="M298.806 145.555C297.712 142.69 297.228 141.403 298.723 137.749C316.466 128.241 316.798 128.061 335.274 121.543C334.872 122.302 334.661 123.147 334.661 124.006C334.661 124.865 334.872 125.711 335.274 126.47C316.133 134.774 315.774 134.981 298.75 145.555" fill="white"/>
    <path opacity="0.7" d="M371.618 121.557C370.87 121.252 369.888 120.837 369.154 120.491C385.942 115.412 386.953 115.107 397.886 113.363C389.764 115.265 381.771 117.682 373.957 120.602C373.238 121.052 372.447 121.375 371.618 121.557Z" fill="white"/>
    <path opacity="0.7" d="M386.136 117.363L384.918 116.99C381.167 118.374 376.116 120.228 372.462 121.861L371.908 121.654C387.132 115.896 388.018 115.55 397.914 113.35L390.108 115.606L390.468 115.716L386.136 117.363Z" fill="white"/>
    <path d="M343.951 123.314C342.567 123.757 339.315 124.781 338.955 124.435C339.024 123.577 348.934 120.283 349.667 120.961C349.584 121.46 344.007 123.287 343.951 123.314Z" fill="white"/>
    <path d="M343.426 121.681C341.71 122.193 338.789 123.065 338.596 122.664C338.942 121.833 348.09 119.121 349.349 119.481V119.564C347.429 120.414 345.45 121.121 343.426 121.681Z" fill="white"/>
    <path d="M343.536 120.062C342.053 120.586 340.5 120.889 338.928 120.961C339.578 120.103 348.616 117.681 349.626 118.097C349.488 118.484 345.322 119.633 343.536 120.117" fill="white"/>
    <path opacity="0.4" d="M269.312 159.547C270.349 157.917 271.5 156.363 272.759 154.897C286.46 143.452 287.277 142.76 300.051 134.94C299.069 136.087 298.172 137.303 297.366 138.58C281.838 148.752 280.91 149.361 269.312 159.547Z" fill="white"/>
    <path d="M225.509 228.457C222.81 236.166 219.586 246.573 217.51 254.462V252.497L217.842 249.978C219.489 243.778 221.717 235.501 223.724 229.412L225.412 224.775L229.924 214.091C229.408 216.129 229.111 218.217 229.038 220.319L225.565 228.457" fill="white"/>
    <path d="M236.567 232.941C232.027 228.235 229.951 226.104 228.982 220.319C229.061 218.218 229.358 216.13 229.868 214.091C232.775 208.416 236.719 200.887 239.985 195.421C238.864 200.002 237.619 205.206 246.282 213.136C243.251 219.018 239.266 226.893 236.594 232.941" fill="white"/>
    <path opacity="0.4" d="M315.414 128.117C316.326 127.071 317.296 126.077 318.32 125.141L325.171 122.373L324.202 123.217C340.963 117.681 341.295 117.585 350.36 115.813C350.028 116.173 349.557 116.63 349.267 117.017C330.943 121.75 329.891 122.041 315.428 128.089" fill="white"/>
    <path opacity="0.4" d="M304.826 133.279C305.844 132.096 306.935 130.977 308.092 129.93L315.995 126.138C314.944 127.098 313.951 128.12 313.019 129.196L304.826 133.348" fill="white"/>
    <path opacity="0.4" d="M240.982 198.355C241.06 196.404 241.334 194.466 241.799 192.57C252.262 177.913 252.47 177.636 259.196 170.301C258.773 171.982 258.527 173.703 258.462 175.436C246.698 189.608 246.477 189.871 240.982 198.355Z" fill="white"/>
    <path opacity="0.4" d="M237.674 198.853L238.227 197.843C242.379 191.393 247.915 182.937 252.496 176.792C264.081 163.077 264.302 162.814 271.554 156.032C270.029 157.713 268.64 159.513 267.402 161.416C254.545 174.633 249.23 180.1 237.715 198.922" fill="white"/>
    <path d="M295.304 219.253C293.27 223.17 288.966 224.153 287.859 220.969C286.751 217.786 290.336 212.098 294.17 212.873C296.758 213.8 296.384 217.163 295.304 219.253ZM306.598 228.374C308.798 222.478 311.774 214.631 314.182 208.818C311.414 208.195 307.622 207.434 304.826 206.742L309.394 197.718L306.293 196.929C304.273 200.818 301.505 205.953 299.609 209.897C295.567 208.762 290.184 207.199 286.198 205.925C288.468 202.105 291.402 196.971 293.796 193.234C289.32 191.763 284.95 189.988 280.717 187.919C270.365 202.756 269.521 203.96 263.486 214.866C271.79 218.603 282.198 223.253 306.598 228.374Z" fill="white"/>
    <path d="M232.554 208.347L235.114 203.406L234.879 203.863L232.554 208.347Z" fill="white"/>
    <path opacity="0.4" d="M262.254 214.257C259.486 212.693 255.805 210.534 253.161 208.721C263.596 192.542 264.233 191.573 274.544 179.228C276.814 180.723 279.914 182.619 282.294 183.92C270.932 199.338 270.254 200.265 262.254 214.243" fill="white"/>
    <path d="M378.538 107.052L382.469 106.679C384.656 106.526 387.562 106.333 389.749 106.222C390.644 106.353 391.522 106.585 392.364 106.914C389.015 107.094 388.406 107.122 385.444 107.412C383.15 107.125 380.837 107.004 378.524 107.052" fill="white"/>
    <path d="M392.212 106.43C396.364 106.333 396.751 106.319 399.838 106.347L399.672 106.582L403.256 106.679L401.54 107.98L400.557 109.087C399.893 109.087 399.007 109.087 398.329 109.087C396.419 109.087 396.35 109.087 395.312 109.087C394.395 108.078 393.353 107.19 392.212 106.443" fill="white"/>
    <path d="M292.55 252.94C283.648 250.974 274.868 248.492 266.254 245.508C268.621 239.294 271.79 231.017 274.461 224.914C282.566 227.661 290.813 229.97 299.165 231.834C297.117 238.117 294.418 246.532 292.591 252.898" fill="white"/>
    <path opacity="0.3" d="M268.413 298.432C258.786 295.749 249.384 292.32 240.29 288.176C243.335 270.613 244.857 261.797 251.874 242.504C260.296 246.354 269.01 249.528 277.935 251.999C273.215 269.396 270.863 278.129 268.413 298.432Z" fill="white"/>
    <path d="M411.56 106.568L415.311 106.9L419.033 107.288C415.615 107.271 412.202 107.553 408.833 108.132L405.263 107.786C407.293 107.081 409.413 106.671 411.56 106.568Z" fill="white"/>
    <path opacity="0.4" d="M301.519 133.182L303.83 131.798L311.802 127.328C310.487 128.075 308.702 129.072 307.414 129.902L301.519 133.238" fill="white"/>
    <path opacity="0.4" d="M311.096 127.937C312.743 126.94 314.985 125.667 316.701 124.781L324.756 121.072C322.137 122.15 319.629 123.48 317.268 125.044L311.096 127.937Z" fill="white"/>
    <path opacity="0.4" d="M321.088 123.411C323.822 121.646 326.735 120.175 329.779 119.024L335.468 116.934C333.027 117.879 330.675 119.037 328.437 120.394L327.703 120.643L326.762 121.252L321.088 123.411Z" fill="white"/>
    <path d="M247.612 247.196C246.934 248.829 245.231 251.348 243.183 250.435C239.931 248.234 242.546 240.401 245.757 239.778C248.165 239.321 249.176 243.404 247.612 247.196Z" fill="white"/>
    <path opacity="0.4" d="M278.392 149.887L276.357 151.617L284.136 145.195C284.136 145.195 281.077 147.631 278.392 149.887Z" fill="white"/>
    <path d="M242.422 264.344C241.882 266.019 240.415 268.607 238.27 267.679C234.893 265.41 236.886 257.327 239.93 256.677C242.283 256.192 243.626 260.413 242.366 264.344" fill="white"/>
    <path d="M238.712 282.045C238.324 283.748 237.093 286.391 234.975 285.436C231.612 283.208 232.802 274.821 235.681 274.198C237.965 273.7 239.625 278.032 238.712 282.045Z" fill="white"/>
    <path d="M353.419 115.273L350.346 115.855C332.714 120.007 332.714 120.007 324.188 123.259L325.157 122.415L326.763 121.224L327.704 120.616L328.437 120.366C344.243 115.578 345.184 115.301 355.536 113.696L359.868 113.114L359.73 113.211L358.885 113.792L357.972 114.54L353.419 115.273Z" fill="white"/>
    <path d="M227.668 302.681C227.668 309.448 227.737 318.472 228.152 325.226C225.322 323.135 222.601 320.899 220.001 318.527C219.198 300.951 219.059 297.767 220.623 281.81L220.693 281.215L222.81 283.277C224.595 284.661 226.962 286.612 228.817 287.9C228.471 292.328 227.751 298.238 227.668 302.681Z" fill="white"/>
    <path opacity="0.3" d="M248.926 335.578C237.204 330.651 236.747 330.458 228.166 325.226C227.876 318.472 227.557 309.448 227.682 302.681C236.955 308.217 237.135 308.341 248.511 313.075C248.511 319.828 248.511 328.838 248.94 335.578" fill="white"/>
    <path d="M393.194 119.356L394.578 117.474L392.89 117.308L388.239 121.792H388.585L391.076 119.204L393.194 119.384" fill="white"/>
    <path d="M398.758 114.055H397.955L397.886 113.336L398.758 114.028" fill="white"/>
    <path d="M403.201 118.083C401.706 118.207 401.485 118.235 400.115 118.29L398.828 115.287H398.066V114.941C398.64 114.943 399.212 114.916 399.783 114.858L403.229 118.069" fill="white"/>
    <path d="M393.623 116.325C392.549 116.203 391.485 116.005 390.44 115.73L390.08 115.619L397.886 113.363L393.623 116.325Z" fill="white"/>
    <path opacity="0.3" d="M281.16 311.704C271.498 309.531 261.973 306.786 252.636 303.483L253.189 297.698C262.489 300.984 271.977 303.711 281.603 305.864L281.16 311.69" fill="white"/>
    <path d="M434.881 126.844L431.103 124.934L434.881 126.844Z" fill="white"/>
    <path d="M463.404 119.024C464.539 119.744 466.048 120.74 467.127 121.557C449.8 116.256 448.692 115.979 433.399 113.792C432.846 113.377 432.084 112.851 431.489 112.491C442.342 113.441 453.051 115.633 463.404 119.024Z" fill="white"/>
    <path opacity="0.3" d="M512.467 150.122C512.619 151.535 512.619 152.959 512.467 154.371C496.98 143.036 496.053 142.358 481.895 134.635C482.012 133.601 482.012 132.556 481.895 131.521C498.682 140.393 499.693 140.919 512.481 150.122" fill="white"/>
    <path d="M452.152 122.609C454.353 123.342 456.706 124.339 456.733 124.754C456.235 125.21 446.132 121.875 446.035 121.225C446.367 120.962 449.606 121.75 452.152 122.609Z" fill="white"/>
    <path d="M451.35 124.2C453.578 125.017 455.765 126.068 455.654 126.484C454.948 126.913 445.039 123.273 445.149 122.636C445.606 122.387 448.803 123.259 451.35 124.2Z" fill="white"/>
    <path d="M449.952 125.75C452.111 126.65 454.173 127.757 453.924 128.158C453.01 128.573 444.042 124.975 443.71 124.006C443.918 123.619 447.308 124.615 449.952 125.695" fill="white"/>
    <path opacity="0.4" d="M327.413 159.063C323.455 163.727 318.21 169.969 314.473 174.813C311.414 173.858 307.345 172.529 304.328 171.45C316.784 157.831 317.601 157.015 329.06 147.202C331.275 147.991 334.264 149.001 336.52 149.693C333.752 152.461 330.001 156.115 327.413 159.063Z" fill="white"/>
    <path opacity="0.4" d="M319.884 209.925L314.182 208.818C311.414 208.195 307.622 207.434 304.826 206.742L309.393 197.718C313.006 191.352 317.96 182.951 321.849 176.778C325.531 177.609 330.444 178.674 334.153 179.394C326.154 194.909 325.683 195.836 319.856 209.925" fill="white"/>
    <path opacity="0.3" d="M519 177.595C516.91 178.979 514.087 180.709 511.9 181.913C499.444 167.505 498.683 166.689 486.988 156.073C488.677 155.105 490.919 153.79 492.524 152.697C507.153 165.042 508.025 165.789 518.931 177.609" fill="white"/>
    <path d="M336.838 225.066C331.579 224.332 324.562 223.322 319.316 222.478C325.531 205.095 325.904 204.057 331.966 190.535C336.367 191.227 342.249 192.113 346.678 192.708C341.696 207.572 340.796 210.243 336.838 225.066Z" fill="white"/>
    <path d="M574.222 263.569C572.261 265.809 570.172 267.935 567.966 269.935C563.399 251.085 563.122 249.964 557.24 234.795C559.309 232.93 561.263 230.943 563.095 228.844C570.098 246.836 570.513 247.888 574.167 263.569" fill="white"/>
    <path opacity="0.4" d="M581.764 290.64L581.307 303.456L580.615 306.957C581.169 287.194 581.211 286.004 579.231 269.7C579.641 267.543 579.831 265.349 579.799 263.154C580.671 271.375 581.792 282.364 581.778 290.64" fill="white"/>
    <path opacity="0.4" d="M306.293 196.929C304.272 200.818 301.504 205.953 299.608 209.897C295.567 208.763 290.183 207.199 286.197 205.925C288.467 202.106 291.401 196.971 293.795 193.234C297.297 188.113 302.016 181.29 305.753 176.335C309.061 177.373 313.476 178.702 316.825 179.616C313.587 184.764 309.199 191.587 306.293 196.929Z" fill="white"/>
    <path d="M484.317 149.569C482.573 150.538 480.165 151.783 478.435 152.641L471.349 146.856C472.982 146.053 475.141 144.96 476.719 144.088L484.317 149.624" fill="white"/>
    <path opacity="0.3" d="M512.357 202.521C509.27 203.586 505.146 204.984 502.032 205.939C493.216 190.397 489.189 183.311 476.885 167.893C479.238 167.146 482.421 166.149 484.704 165.305C496.233 178.619 501.492 184.681 512.384 202.521" fill="white"/>
    <path opacity="0.3" d="M520.024 216.499C516.73 217.634 512.343 219.129 508.952 220.139L503.596 209.067C506.751 208.057 510.959 206.714 514.073 205.607L519.968 216.541" fill="white"/>
    <path opacity="0.3" d="M551.413 206.285C549.703 208.228 547.887 210.077 545.974 211.821C536.079 195.877 535.899 195.573 529.519 187.407C531.228 185.866 532.842 184.22 534.349 182.48" fill="white"/>
    <path opacity="0.3" d="M548.715 221.44C542.497 225.701 535.769 229.165 528.688 231.751C520.661 214.243 517.353 206.991 504.523 188.155C511.139 185.387 515.139 183.726 520.813 179.768C532.895 194.798 537.892 201.012 548.687 221.454" fill="white"/>
    <path opacity="0.7" d="M373.514 126.013C370.746 125.349 370.109 125.21 367.687 124.449L367.244 124.297L368.836 123.522L372.434 121.861C376.171 120.38 381.112 118.277 384.89 116.99L386.108 117.363L387.492 117.709C383.216 120.09 377.527 123.328 373.431 126.013" fill="white"/>
    <path opacity="0.3" d="M559.537 202.465L563.869 210.977L564.035 211.337C561.073 205.801 557.046 198.272 553.738 192.86L552.465 190.549L559.537 202.465Z" fill="white"/>
    <path d="M562.568 257.133C554.804 262.199 554.652 262.296 544.341 266.932C537.56 269.673 530.629 272.025 523.581 273.977L522.487 269.022C520.439 261.036 517.464 250.435 515 242.56C525.961 239.224 539.608 235.072 551.302 226.865C558.61 244.082 559.039 245.12 562.54 257.133" fill="white"/>
    <path d="M406.384 137.777C401.083 137.943 399.81 137.971 393.734 137.902C394.205 134.428 394.814 129.819 395.34 126.359C398.675 126.359 399.27 126.359 402.343 126.359C403.159 129.639 404.239 133.999 404.972 137.293H406.246L406.384 137.86" fill="white"/>
    <path d="M394.052 129.39C390.094 129.238 389.596 129.21 386.634 128.989L387.589 127.3C386.565 127.203 385.209 127.093 384.185 126.982L388.586 121.792L391.077 119.204L393.194 119.384C395.077 119.508 395.118 119.508 396.142 119.536C395.478 122.498 394.62 126.456 394.052 129.418" fill="white"/>
    <path d="M354.664 159.658C351.536 159.146 347.37 158.44 344.256 157.859C357.196 141.555 364.172 133.75 381.278 121.875C382.247 122.055 383.534 122.29 384.503 122.442C373.749 132.393 367.535 138.566 354.664 159.631" fill="white"/>
    <path d="M389.734 141.029C387.755 140.933 385.112 140.794 383.133 140.67L381.832 144.185L379.451 144.005C381.14 140.241 383.409 135.244 385.25 131.549C387.215 131.687 389.845 131.854 391.81 131.937C391.174 134.705 390.316 138.289 389.734 141.029Z" fill="white"/>
    <path d="M400.115 118.29L400.627 119.591H400.322L401.706 123.854C398.855 123.854 398.343 123.854 395.589 123.854C395.976 121.958 396.447 119.425 396.876 117.543L397.43 115.26H398.883L400.17 118.263" fill="white"/>
    <path d="M295.304 219.253C294.487 220.817 292.398 223.308 289.671 222.755C285.879 221.371 287.969 214.88 291.802 213.15C294.944 211.766 297.076 214.534 295.747 218.243C295.619 218.588 295.471 218.926 295.304 219.253Z" fill="white"/>
    <path opacity="0.3" d="M505.921 177.872C506.903 179.131 508.343 181.761 506.834 182.646C503.748 183.643 498.53 176.903 499.499 174.758C500.246 173.235 503.651 174.854 505.921 177.872Z" fill="white"/>
    <path d="M451.863 166.993C443.379 168.377 441.109 168.682 430.452 169.761C428.681 165.028 426.3 158.689 424.349 154.025C431.988 153.223 433.372 153.084 439.753 152.102L441.759 155.049L443.863 154.703C446.285 158.371 449.565 163.229 451.863 166.98" fill="white"/>
    <path opacity="0.3" d="M428.722 169.927C419.366 170.633 417.152 170.799 406.218 171.131C405.775 166.343 405.166 159.935 404.668 155.146C412.225 154.897 414.259 154.842 422.951 154.177C424.736 158.883 427.103 165.166 428.722 169.927Z" fill="white"/>
    <path opacity="0.4" d="M454.174 189.442C443.213 190.826 440.611 191.172 427.532 192.21C426.342 186.84 424.764 179.754 423.38 174.356C432.957 173.595 435.531 173.387 446.299 172.003C448.721 177.207 451.904 184.183 454.132 189.469" fill="white"/>
    <path d="M357.321 191.172C347.01 190.037 344.242 189.788 332.963 187.92C335.62 182.702 339.177 175.768 342.028 170.647C350.332 172.031 352.574 172.322 362.996 173.415C361.238 178.716 358.927 185.788 357.321 191.13" fill="white"/>
    <path opacity="0.3" d="M367.092 232.415C361.265 232 353.501 231.418 347.716 230.893C350.332 218.437 352.809 206.769 357.404 191.172C359.051 185.843 361.279 178.716 363.078 173.457C367.119 173.803 372.517 174.232 376.572 174.508C372.42 195.005 370.413 206.839 367.175 232.415" fill="white"/>
    <path opacity="0.3" d="M425.427 192.376C414.009 192.957 411.297 193.096 398.121 193.206C398.121 187.809 398.121 180.612 398.121 175.214C407.809 175.117 410.383 175.09 421.649 174.495C422.839 179.851 424.417 186.951 425.483 192.376" fill="white"/>
    <path opacity="0.3" d="M380.324 215.281L372.338 214.921C373.141 209.081 374.22 201.303 375.106 195.545L382.233 195.864C381.652 201.704 380.849 209.496 380.337 215.35" fill="white"/>
    <path opacity="0.3" d="M416.584 260.759C395.118 261.161 388.904 261.147 366.192 260.123C367.272 248.262 368.504 234.809 370.649 218.284C389.845 219.143 395.118 219.212 414.023 218.838C414.826 230.187 415.74 243.058 416.584 260.759Z" fill="white"/>
    <path opacity="0.3" d="M404.46 170.979C391.368 170.979 387.603 170.979 373.874 170.19C377.348 157.651 378.026 155.049 381.832 144.185L383.133 140.67C385.112 140.78 387.756 140.946 389.735 141.03C395.589 141.182 396.655 141.209 401.942 141.154C402.675 148.711 403.505 157.264 404.46 170.979Z" fill="white"/>
    <path opacity="0.4" d="M511.194 303.996C504.98 305.241 496.69 306.764 490.434 307.926C488.787 290.225 488.552 287.042 485.784 270.738C491.708 269.686 499.624 268.233 505.492 267.015C509.243 286.391 509.464 287.581 511.194 303.996Z" fill="white"/>
    <path opacity="0.4" d="M485.493 365.625L484.109 365.833C467.376 368.088 465.217 368.379 451.447 369.625L451.696 364.933C452.698 343.405 452.527 321.838 451.184 300.328C467.875 298.695 470.892 298.404 484.995 296.37C487.389 325.115 487.5 340.007 485.534 365.57" fill="white"/>
    <path opacity="0.7" d="M490.988 266.365C480.414 267.596 466.297 269.133 455.682 270.129C452.623 243.017 452.07 238.131 448.277 213.62C457.965 212.679 470.712 211.351 480.303 210.202C486.005 236.498 487.043 241.176 490.988 266.365Z" fill="white"/>
    <path opacity="0.7" d="M429.885 371.673C406.08 372.144 391.714 372.434 361.363 371.272L356.906 371.064C356.906 362.954 356.975 352.131 357.072 344.007C357.28 334.153 357.584 320.991 357.903 311.137C386.15 312.175 397.527 312.521 429.359 311.732C429.788 336.174 429.912 342.748 429.885 371.673Z" fill="white"/>
    <path d="M438.243 230.796C432.181 231.183 424.099 231.654 418.023 231.917C417.082 220.651 416.016 207.891 414.286 192.86C419.213 192.639 425.787 192.293 430.714 191.961C432.998 202.355 435.6 214.105 438.243 230.796Z" fill="white"/>
    <path d="M482.324 197.483L478.657 198.286C470.353 182.3 469.855 181.345 462.049 169.222L464.969 168.585C474.657 183.131 475.197 184.003 482.338 197.441" fill="white"/>
    <path opacity="0.3" d="M488.012 196.14L484.51 196.985C475.611 181.138 475.072 180.183 466.685 168.225L469.453 167.547C479.75 181.954 480.358 182.771 487.998 196.14" fill="white"/>
    <path opacity="0.3" d="M493.368 194.715L490.074 195.615C480.594 179.906 480.026 179.007 471.1 167.132L473.715 166.426C484.621 180.654 485.272 181.498 493.368 194.715Z" fill="white"/>
    <path opacity="0.7" d="M418.535 294.474C418.39 295.918 417.711 297.257 416.631 298.227C415.55 299.198 414.147 299.73 412.695 299.719C406.909 299.553 404.958 293.463 408.335 290.128C412.016 286.502 418.41 288.868 418.549 293.906C418.563 294.095 418.563 294.285 418.549 294.474" fill="white"/>
    <path d="M440.624 247.501C440.685 250.159 439.707 252.736 437.898 254.685C436.089 256.633 433.591 257.8 430.936 257.936C419.864 257.936 415.781 245.48 422.438 239.169C429.095 232.858 440.43 238.172 440.679 247.473" fill="white"/>
    <path d="M438.244 125.418L441.012 126.691C456.997 134.912 456.997 134.912 464.72 140.061L463.114 140.808L460.554 141.888L459.17 142.414L458.533 141.929C444.762 132.241 443.932 131.674 434.895 126.844L431.116 124.934L431.324 124.851L432.639 124.338L434.133 123.646L438.285 125.418" fill="white"/>
    <path d="M428.763 130.802L427.766 130.027L423.697 127.01L428.763 130.802Z" fill="white"/>
    <path d="M423.698 127.01L429.234 131.162C427.504 131.508 425.206 131.95 423.463 132.241C419.504 132.822 416.64 133.238 411.007 133.625C409.332 130.4 407.09 126.11 405.235 122.982C408.653 122.744 412.051 122.282 415.408 121.598L423.712 127.01" fill="white"/>
    <path opacity="0.3" d="M417.442 147.811C417.774 148.863 417.913 150.925 416.058 151.188C412.75 151.188 411.311 145.887 412.903 144.49C414.287 143.327 416.709 145.444 417.442 147.811Z" fill="white"/>
    <path opacity="0.3" d="M409.553 148.282C409.733 149.416 409.553 151.409 407.671 151.603C404.584 151.492 403.796 146.51 405.387 144.974C406.979 143.438 409.152 145.763 409.539 148.282" fill="white"/>
    <path opacity="0.7" d="M399.381 294.792C399.196 296.225 398.484 297.538 397.384 298.474C396.283 299.41 394.874 299.904 393.43 299.857C387.658 299.525 385.873 293.38 389.347 290.169C393.111 286.668 399.409 289.228 399.409 294.321C399.422 294.51 399.422 294.7 399.409 294.889" fill="white"/>
    <path opacity="0.7" d="M380.337 294.515C380.128 295.93 379.397 297.214 378.288 298.116C377.178 299.018 375.771 299.471 374.344 299.387C373.21 299.373 372.106 299.02 371.176 298.371C370.246 297.723 369.531 296.811 369.126 295.752C368.72 294.693 368.642 293.537 368.901 292.433C369.16 291.329 369.745 290.328 370.58 289.56C371.423 288.799 372.47 288.3 373.592 288.122C374.714 287.944 375.864 288.096 376.902 288.559C377.939 289.022 378.82 289.777 379.437 290.731C380.055 291.685 380.381 292.798 380.378 293.934C380.378 294.114 380.378 294.349 380.378 294.515" fill="white"/>
    </g>
    <path opacity="0.8" d="M351.632 279.776C349.944 288.799 341.155 305.449 319.994 303.816C290.847 298.28 289.02 262.42 310.915 248.622C331.675 235.571 356.379 254.49 351.632 279.776Z" fill="white"/>
    <path d="M319.109 301.297C318.168 301.297 317.199 301.297 316.189 301.186C303.373 298.764 294.404 290.114 292.121 278.087C290.943 271.676 291.706 265.06 294.312 259.085C296.919 253.111 301.249 248.05 306.75 244.553C311.136 241.643 316.294 240.117 321.557 240.171C326.82 240.226 331.945 241.858 336.27 244.857C346.304 251.68 351.052 263.804 348.726 276.509C347.01 285.353 338.72 301.297 319.109 301.297ZM321.392 241.785C316.477 241.818 311.674 243.258 307.552 245.937C302.313 249.261 298.186 254.076 295.703 259.763C293.219 265.45 292.493 271.749 293.616 277.852C295.775 289.228 304.272 297.394 316.355 299.691C336.866 301.255 345.419 285.062 347.079 276.274C349.349 264.192 344.851 252.663 335.343 246.214C331.253 243.346 326.388 241.787 321.392 241.743V241.785Z" fill="white"/>
    <path d="M325.24 233.19C325.162 233.203 325.083 233.203 325.005 233.19C324.907 233.159 324.817 233.108 324.739 233.042C324.661 232.975 324.597 232.894 324.551 232.803C324.504 232.711 324.476 232.612 324.469 232.51C324.461 232.407 324.474 232.305 324.506 232.208C343.882 171.934 377.278 124.532 413.885 105.405C413.977 105.357 414.077 105.328 414.181 105.318C414.284 105.309 414.388 105.32 414.487 105.351C414.586 105.382 414.678 105.432 414.757 105.498C414.837 105.564 414.903 105.646 414.951 105.738C415.04 105.922 415.056 106.134 414.994 106.33C414.932 106.525 414.798 106.69 414.619 106.789C378.358 125.736 345.225 172.792 326.043 232.733C325.976 232.886 325.861 233.012 325.717 233.094C325.572 233.177 325.405 233.21 325.24 233.19Z" fill="white"/>
    <path d="M313.033 394.135C312.854 394.136 312.68 394.074 312.541 393.96C312.402 393.847 312.307 393.688 312.272 393.513C307.289 368.379 306.03 340.838 308.535 311.635C308.544 311.533 308.573 311.434 308.62 311.344C308.668 311.253 308.733 311.173 308.811 311.107C308.889 311.042 308.98 310.992 309.077 310.962C309.175 310.931 309.277 310.92 309.379 310.929C309.481 310.938 309.58 310.967 309.671 311.015C309.761 311.062 309.841 311.127 309.907 311.205C309.973 311.284 310.022 311.374 310.053 311.472C310.083 311.569 310.094 311.672 310.085 311.774C307.608 340.838 308.853 368.227 313.808 393.208C313.845 393.412 313.8 393.621 313.683 393.792C313.567 393.963 313.388 394.081 313.185 394.122L313.033 394.135Z" fill="white"/>
    <path d="M348.768 469.342C348.667 469.343 348.568 469.324 348.475 469.286C348.383 469.248 348.298 469.192 348.228 469.121C334.263 455.405 323.164 434.797 316.119 409.609C316.068 409.409 316.098 409.197 316.201 409.018C316.305 408.84 316.474 408.709 316.673 408.654C316.771 408.624 316.874 408.615 316.976 408.627C317.077 408.638 317.176 408.67 317.265 408.72C317.354 408.771 317.432 408.839 317.495 408.92C317.557 409.001 317.602 409.094 317.628 409.193C324.548 434.188 335.551 454.547 349.321 468.069C349.467 468.216 349.548 468.415 349.548 468.622C349.548 468.83 349.467 469.028 349.321 469.176C349.164 469.298 348.966 469.357 348.768 469.342Z" fill="white"/>
    <path d="M528.508 345.654L514.668 335.869C514.205 335.542 513.675 335.324 513.117 335.231C512.559 335.137 511.986 335.171 511.443 335.329L482.158 343.938C481.684 344.076 481.242 344.307 480.857 344.616C480.472 344.925 480.152 345.308 479.916 345.741C479.679 346.174 479.53 346.65 479.478 347.141C479.426 347.632 479.471 348.128 479.611 348.602L494.738 400.087C495.02 401.042 495.67 401.846 496.544 402.323C497.418 402.801 498.446 402.912 499.402 402.633L568.256 382.399C568.729 382.259 569.169 382.028 569.553 381.718C569.936 381.408 570.254 381.025 570.489 380.592C570.725 380.159 570.872 379.684 570.923 379.193C570.975 378.703 570.929 378.208 570.789 377.735L560.215 341.751C560.077 341.277 559.846 340.835 559.537 340.45C559.228 340.066 558.845 339.746 558.412 339.509C557.979 339.273 557.503 339.124 557.012 339.072C556.521 339.019 556.024 339.065 555.551 339.205L531.691 346.221C531.151 346.369 530.586 346.395 530.035 346.297C529.485 346.199 528.963 345.979 528.508 345.654Z" fill="#263238"/>
    <path d="M555.738 305.576L494.971 311.845L501.544 375.558L562.311 369.289L555.738 305.576Z" fill="white"/>
    <path d="M492.15 355.148L499.167 398.8C499.227 399.266 499.388 399.714 499.639 400.112C499.89 400.51 500.225 400.848 500.621 401.102C501.017 401.357 501.463 401.522 501.929 401.585C502.395 401.649 502.87 401.61 503.319 401.471L572.173 381.237C573.158 380.921 573.999 380.267 574.549 379.391C575.098 378.514 575.321 377.472 575.176 376.448L568.16 332.797C568.1 332.33 567.939 331.882 567.688 331.484C567.436 331.087 567.101 330.749 566.706 330.494C566.31 330.24 565.863 330.075 565.397 330.011C564.931 329.947 564.457 329.987 564.007 330.126L495.153 350.36C494.169 350.676 493.327 351.33 492.778 352.206C492.228 353.082 492.006 354.124 492.15 355.148Z" fill="#FF9595"/>
    <g opacity="0.3">
    <path d="M492.15 355.148L499.167 398.8C499.227 399.266 499.388 399.714 499.639 400.112C499.89 400.51 500.225 400.848 500.621 401.102C501.017 401.357 501.463 401.522 501.929 401.585C502.395 401.649 502.87 401.61 503.319 401.471L572.173 381.237C573.158 380.921 573.999 380.267 574.549 379.391C575.098 378.514 575.321 377.472 575.176 376.448L568.16 332.797C568.1 332.33 567.939 331.882 567.688 331.484C567.436 331.087 567.101 330.749 566.706 330.494C566.31 330.24 565.863 330.075 565.397 330.011C564.931 329.947 564.457 329.987 564.007 330.126L495.153 350.36C494.169 350.676 493.327 351.33 492.778 352.206C492.228 353.082 492.006 354.124 492.15 355.148Z" fill="white"/>
    </g>
    <path d="M377.99 358.73L338.727 333.994L315.157 371.408L354.421 396.143L377.99 358.73Z" fill="white"/>
    <path d="M328.451 133.473L317.794 124.062C317.438 123.746 317.015 123.515 316.557 123.388C316.099 123.261 315.618 123.241 315.15 123.328L289.92 127.896C289.512 127.967 289.123 128.119 288.774 128.342C288.425 128.564 288.124 128.854 287.887 129.193C287.651 129.533 287.484 129.916 287.395 130.32C287.307 130.724 287.3 131.142 287.373 131.549L295.401 175.92C295.472 176.327 295.624 176.716 295.847 177.065C296.07 177.413 296.36 177.713 296.699 177.949C297.039 178.184 297.422 178.35 297.826 178.437C298.231 178.523 298.648 178.529 299.054 178.453L358.456 167.727C358.864 167.654 359.254 167.501 359.602 167.276C359.951 167.052 360.253 166.762 360.489 166.421C360.726 166.08 360.893 165.697 360.981 165.291C361.069 164.886 361.076 164.467 361.002 164.059L355.383 133.03C355.235 132.209 354.767 131.48 354.082 131.002C353.397 130.525 352.551 130.338 351.729 130.484L331.094 134.248C330.624 134.33 330.14 134.303 329.682 134.169C329.224 134.034 328.802 133.796 328.451 133.473Z" fill="#FF9595"/>
    <path opacity="0.3" d="M328.451 133.473L317.794 124.062C317.438 123.746 317.015 123.515 316.557 123.388C316.099 123.261 315.618 123.241 315.15 123.328L289.92 127.896C289.512 127.967 289.123 128.119 288.774 128.342C288.425 128.564 288.124 128.854 287.887 129.193C287.651 129.533 287.484 129.916 287.395 130.32C287.307 130.724 287.3 131.142 287.373 131.549L295.401 175.92C295.472 176.327 295.624 176.716 295.847 177.065C296.07 177.413 296.36 177.713 296.699 177.949C297.039 178.184 297.422 178.35 297.826 178.437C298.231 178.523 298.648 178.529 299.054 178.453L358.456 167.727C358.864 167.654 359.254 167.501 359.602 167.276C359.951 167.052 360.253 166.762 360.489 166.421C360.726 166.08 360.893 165.697 360.981 165.291C361.069 164.886 361.076 164.467 361.002 164.059L355.383 133.03C355.235 132.209 354.767 131.48 354.082 131.002C353.397 130.525 352.551 130.338 351.729 130.484L331.094 134.248C330.624 134.33 330.14 134.303 329.682 134.169C329.224 134.034 328.802 133.796 328.451 133.473Z" fill="white"/>
    <path d="M327.08 135.923L316.423 126.525C316.069 126.208 315.646 125.976 315.188 125.846C314.73 125.716 314.248 125.693 313.78 125.778L288.55 130.345C287.728 130.494 286.999 130.961 286.522 131.646C286.045 132.331 285.858 133.177 286.003 133.999L294.03 178.37C294.179 179.191 294.647 179.921 295.331 180.398C296.016 180.875 296.862 181.062 297.684 180.917L357.072 170.232C357.479 170.16 357.868 170.009 358.217 169.786C358.566 169.563 358.867 169.274 359.104 168.934C359.341 168.595 359.508 168.212 359.596 167.808C359.684 167.403 359.692 166.986 359.618 166.578L353.999 135.535C353.847 134.716 353.378 133.991 352.694 133.516C352.01 133.042 351.165 132.857 350.345 133.003L329.779 136.726C329.298 136.809 328.804 136.78 328.336 136.64C327.867 136.501 327.438 136.255 327.08 135.923Z" fill="#FF9595"/>
    <path opacity="0.6" d="M327.08 135.923L316.423 126.525C316.069 126.208 315.646 125.976 315.188 125.846C314.73 125.716 314.248 125.693 313.78 125.778L288.55 130.345C287.728 130.494 286.999 130.961 286.522 131.646C286.045 132.331 285.858 133.177 286.003 133.999L294.03 178.37C294.179 179.191 294.647 179.921 295.331 180.398C296.016 180.875 296.862 181.062 297.684 180.917L357.072 170.232C357.479 170.16 357.868 170.009 358.217 169.786C358.566 169.563 358.867 169.274 359.104 168.934C359.341 168.595 359.508 168.212 359.596 167.808C359.684 167.403 359.692 166.986 359.618 166.578L353.999 135.535C353.847 134.716 353.378 133.991 352.694 133.516C352.01 133.042 351.165 132.857 350.345 133.003L329.779 136.726C329.298 136.809 328.804 136.78 328.336 136.64C327.867 136.501 327.438 136.255 327.08 135.923Z" fill="white"/>
    <path d="M352.187 363.715L348.547 351.951C348.423 351.558 348.214 351.198 347.934 350.896C347.654 350.595 347.31 350.359 346.927 350.207L326.167 342.208C325.49 341.958 324.741 341.984 324.082 342.279C323.422 342.573 322.904 343.114 322.638 343.786L308.632 380.24C308.382 380.916 308.405 381.663 308.697 382.322C308.989 382.982 309.527 383.501 310.196 383.769L358.954 402.578C359.63 402.828 360.377 402.805 361.036 402.513C361.696 402.221 362.215 401.683 362.483 401.014L372.296 375.507C372.546 374.831 372.523 374.084 372.231 373.425C371.939 372.766 371.401 372.247 370.732 371.978L353.833 365.459C353.446 365.311 353.096 365.077 352.811 364.775C352.526 364.473 352.313 364.111 352.187 363.715Z" fill="#FF9595"/>
    <path opacity="0.6" d="M352.187 363.715L348.547 351.951C348.423 351.558 348.214 351.198 347.934 350.896C347.654 350.595 347.31 350.359 346.927 350.207L326.167 342.208C325.49 341.958 324.741 341.984 324.082 342.279C323.422 342.573 322.904 343.114 322.638 343.786L308.632 380.24C308.382 380.916 308.405 381.663 308.697 382.322C308.989 382.982 309.527 383.501 310.196 383.769L358.954 402.578C359.63 402.828 360.377 402.805 361.036 402.513C361.696 402.221 362.215 401.683 362.483 401.014L372.296 375.507C372.546 374.831 372.523 374.084 372.231 373.425C371.939 372.766 371.401 372.247 370.732 371.978L353.833 365.459C353.446 365.311 353.096 365.077 352.811 364.775C352.526 364.473 352.313 364.111 352.187 363.715Z" fill="black"/>
    <path d="M377.99 358.73L338.727 333.994L315.157 371.408L354.421 396.143L377.99 358.73Z" fill="white"/>
    <path opacity="0.3" d="M377.978 358.732L348.328 340.053L324.758 377.467L354.408 396.146L377.978 358.732Z" fill="#FF9595"/>
    <path d="M400.731 357.162L365.756 326.662L330.326 367.291L365.301 397.79L400.731 357.162Z" fill="white"/>
    <path d="M350.069 364.919L346.429 353.155C346.304 352.761 346.093 352.4 345.81 352.098C345.527 351.796 345.181 351.562 344.796 351.411L324.036 343.412C323.359 343.162 322.612 343.185 321.953 343.477C321.294 343.769 320.775 344.307 320.506 344.976L306.431 381.444C306.182 382.122 306.207 382.87 306.502 383.53C306.797 384.189 307.337 384.707 308.009 384.973L356.767 403.782C357.443 404.032 358.19 404.009 358.849 403.717C359.508 403.425 360.028 402.887 360.296 402.218L370.137 376.711C370.387 376.035 370.363 375.288 370.071 374.629C369.779 373.97 369.242 373.45 368.573 373.182L351.66 366.663C351.283 366.508 350.944 366.271 350.669 365.969C350.394 365.668 350.189 365.309 350.069 364.919Z" fill="#FF9595"/>
    <path opacity="0.4" d="M350.069 364.919L346.429 353.155C346.304 352.761 346.093 352.4 345.81 352.098C345.527 351.796 345.181 351.562 344.796 351.411L324.036 343.412C323.359 343.162 322.612 343.185 321.953 343.477C321.294 343.769 320.775 344.307 320.506 344.976L306.431 381.444C306.182 382.122 306.207 382.87 306.502 383.53C306.797 384.189 307.337 384.707 308.009 384.973L356.767 403.782C357.443 404.032 358.19 404.009 358.849 403.717C359.508 403.425 360.028 402.887 360.296 402.218L370.137 376.711C370.387 376.035 370.363 375.288 370.071 374.629C369.779 373.97 369.242 373.45 368.573 373.182L351.66 366.663C351.283 366.508 350.944 366.271 350.669 365.969C350.394 365.668 350.189 365.309 350.069 364.919Z" fill="black"/>
    <path d="M521.144 190.203C517.99 183.199 512.897 177.245 506.468 173.042C500.038 168.839 492.54 166.564 484.859 166.486C477.179 166.407 469.636 168.528 463.121 172.598C456.607 176.669 451.394 182.518 448.097 189.456C447.434 189.393 446.769 189.365 446.104 189.373C441.568 189.372 437.097 190.444 433.054 192.5C429.011 194.556 425.512 197.539 422.842 201.206C420.171 204.872 418.405 209.117 417.688 213.596C416.971 218.074 417.323 222.659 418.715 226.976H541.655C542.866 223.217 543.289 219.25 542.9 215.321C542.511 211.391 541.317 207.584 539.393 204.136C537.469 200.688 534.856 197.673 531.717 195.278C528.577 192.884 524.978 191.161 521.144 190.217V190.203Z" fill="white"/>
    <path d="M439.724 390.786C442.896 383.738 448.02 377.744 454.489 373.514C460.958 369.283 468.503 366.993 476.232 366.913C483.962 366.833 491.553 368.966 498.108 373.062C504.664 377.157 509.91 383.044 513.228 390.025C513.878 390.025 514.612 389.942 515.235 389.942C519.796 389.949 524.292 391.032 528.356 393.103C532.421 395.175 535.939 398.176 538.625 401.863C541.311 405.549 543.09 409.818 543.816 414.322C544.542 418.825 544.195 423.436 542.804 427.781H419.074C417.862 423.997 417.44 420.006 417.835 416.053C418.229 412.1 419.432 408.27 421.368 404.801C423.305 401.332 425.933 398.298 429.091 395.887C432.248 393.477 435.867 391.74 439.724 390.786Z" fill="white"/>
    <path d="M314.03 173.332C313.449 173.331 312.87 173.387 312.3 173.498C311.335 170.397 309.442 167.666 306.877 165.674C304.311 163.682 301.196 162.525 297.953 162.359C294.709 162.193 291.492 163.026 288.737 164.746C285.981 166.466 283.82 168.989 282.544 171.976C282.022 171.893 281.494 171.852 280.966 171.851C278.173 171.851 275.494 172.961 273.518 174.936C271.543 176.911 270.434 179.59 270.434 182.384C270.433 183.479 270.605 184.567 270.946 185.608H323.039C323.324 184.69 323.469 183.733 323.468 182.771C323.468 180.268 322.474 177.867 320.704 176.097C318.934 174.327 316.533 173.332 314.03 173.332Z" fill="white"/>
    <path d="M303.095 421.47C302.342 421.467 301.591 421.541 300.853 421.691C299.607 417.673 297.157 414.135 293.835 411.554C290.514 408.973 286.48 407.473 282.279 407.257C278.077 407.041 273.911 408.12 270.343 410.347C266.774 412.574 263.975 415.843 262.323 419.712C261.645 419.606 260.96 419.555 260.274 419.56C258.126 419.556 256.008 420.06 254.091 421.03C252.175 422 250.515 423.41 249.247 425.143C247.979 426.877 247.138 428.886 246.794 431.006C246.449 433.126 246.611 435.298 247.265 437.344H314.735C315.301 435.516 315.432 433.581 315.115 431.693C314.799 429.806 314.045 428.019 312.913 426.475C311.782 424.932 310.304 423.675 308.599 422.806C306.894 421.937 305.009 421.479 303.095 421.47Z" fill="white"/>
    <path d="M170.716 245.729C168.516 249.701 166.149 254.033 163.935 258.185C161.72 262.337 159.52 266.572 157.444 270.738C155.368 274.904 153.458 279.042 151.908 283.194C151.091 285.215 150.427 287.222 149.873 289.035C149.437 290.436 149.118 291.871 148.918 293.325L148.738 291.761C149.049 294.42 149.696 297.029 150.662 299.525C151.786 302.461 153.103 305.318 154.606 308.078C156.129 310.985 157.873 313.864 159.7 316.756C160.613 318.14 161.54 319.649 162.468 321.074L165.319 325.226L165.582 325.614C166.329 326.772 166.659 328.15 166.518 329.52C166.377 330.891 165.773 332.173 164.806 333.155C163.839 334.136 162.566 334.759 161.198 334.92C159.829 335.082 158.447 334.772 157.278 334.042C155.506 332.866 154.011 331.786 152.461 330.582C150.911 329.378 149.444 328.146 147.991 326.859C145.041 324.24 142.267 321.429 139.687 318.445C136.993 315.322 134.584 311.964 132.49 308.411C130.141 304.469 128.387 300.202 127.286 295.747C127.202 295.411 127.151 295.068 127.134 294.723V294.183C126.982 290.72 127.261 287.252 127.964 283.858C128.527 281.051 129.253 278.278 130.137 275.554C131.744 270.495 133.629 265.528 135.784 260.676C137.846 255.902 140.102 251.321 142.441 246.836C144.78 242.352 147.23 237.951 150.025 233.439C151.71 230.812 154.346 228.938 157.38 228.209C160.415 227.479 163.614 227.951 166.309 229.526C169.004 231.1 170.986 233.655 171.841 236.657C172.696 239.658 172.357 242.874 170.896 245.632L170.716 245.729Z" fill="#263238"/>
    <path d="M167.118 326.527L173.346 333.06L158.994 340.464C157.465 338.34 156.244 336.01 155.368 333.544C154.803 331.78 154.958 329.865 155.797 328.214C156.637 326.563 158.094 325.311 159.852 324.728C161.109 324.31 162.459 324.257 163.745 324.575C165.031 324.894 166.201 325.57 167.118 326.527Z" fill="#FFB573"/>
    <path d="M173.111 347.052L167.658 348.768C166.611 349.095 165.482 349.043 164.469 348.62C163.457 348.198 162.625 347.432 162.122 346.457L158.994 340.464L173.346 333.046L176.114 341.073C176.319 341.662 176.403 342.287 176.363 342.909C176.322 343.532 176.156 344.14 175.876 344.697C175.596 345.255 175.207 345.75 174.732 346.155C174.257 346.559 173.706 346.864 173.111 347.052Z" fill="#FFB573"/>
    <path d="M295.18 272.911L306.252 265.299L311.4 280.634C311.4 280.634 300.508 286.322 296.564 281.021L295.18 272.911Z" fill="#FFB573"/>
    <path d="M320.064 267.735L320.922 273.409C321.087 274.506 320.858 275.625 320.275 276.568C319.692 277.511 318.793 278.216 317.739 278.558L311.331 280.634L306.293 265.299L314.597 263.846C315.212 263.731 315.845 263.741 316.456 263.876C317.067 264.011 317.645 264.268 318.156 264.63C318.666 264.993 319.098 265.455 319.425 265.989C319.753 266.522 319.97 267.116 320.064 267.735Z" fill="#FFB573"/>
    <path d="M155.728 577.322H165.651L166.869 576.187L168.696 577.322C174.758 577.322 182.937 577.1 186.826 575.772C186.942 575.318 186.929 574.841 186.79 574.394C186.65 573.947 186.39 573.547 186.037 573.239C186.037 573.239 169.997 568.27 168.543 564.935H156.392" fill="#263238"/>
    <path d="M160.89 436.956C160.502 385.596 159.63 345.059 164.502 325.365L209.897 318.029C209.897 318.029 201.593 404.972 191.476 440.942C181.359 476.913 170.495 565.738 170.495 565.738H155.008C155.008 565.738 149.472 479.653 160.89 436.956Z" fill="#FF9595"/>
    <path opacity="0.2" d="M193.76 361.086L202.202 382.967C199.517 402.149 196.292 421.719 192.818 435.863C189.123 410.259 191.794 368.296 193.76 361.086Z" fill="black"/>
    <path d="M277.201 562.596C277.201 562.596 254.365 564.34 251.86 561.586L239.875 565.267L243.238 577.322L250.615 575.066L251.445 573.599L253.618 574.139C259.597 572.312 275.416 567.219 278.821 564.783C278.777 564.305 278.603 563.848 278.318 563.462C278.032 563.077 277.646 562.777 277.201 562.596Z" fill="#263238"/>
    <path d="M208.983 440.112C193.707 402.658 183.589 363.301 178.909 323.123L228.498 314.999C228.498 314.999 235.847 404.668 239.044 441.524C242.393 479.847 255.264 561.447 255.264 561.447L239.293 566.347C239.293 566.347 210.589 487.722 208.983 440.112Z" fill="#FF9595"/>
    <path d="M172.197 190.162C174.426 199.85 175.298 213.441 171.865 220.9C177.069 225.052 185.373 230.118 195.878 229.204C206.382 228.291 203.933 221.302 200.846 217.855C193.027 214.603 192.459 210.783 194.051 207.268L172.197 190.162Z" fill="#FFB573"/>
    <path d="M162.232 223.987C162.232 223.987 168.211 217.897 170.758 216.375C173.304 214.852 193.718 213.814 198.521 214.34C203.323 214.866 209.593 221.509 209.593 221.509L162.232 223.987Z" fill="#FF9595"/>
    <path d="M202.064 183.228C202.202 184.197 202.839 184.902 203.448 184.805C204.057 184.709 204.486 183.837 204.334 182.868C204.181 181.899 203.559 181.207 202.95 181.304C202.341 181.401 201.925 182.273 202.064 183.228Z" fill="#263238"/>
    <path d="M202.202 184.598C203.797 187.365 205.767 189.899 208.056 192.127C207.468 192.699 206.762 193.138 205.988 193.413C205.214 193.687 204.39 193.792 203.572 193.718L202.202 184.598Z" fill="#ED893E"/>
    <path d="M203.171 176.931C203.113 177.007 203.038 177.068 202.951 177.109C202.864 177.15 202.769 177.17 202.673 177.166C201.957 177.112 201.239 177.23 200.579 177.512C199.919 177.794 199.337 178.231 198.881 178.785C198.783 178.883 198.653 178.943 198.515 178.954C198.376 178.964 198.239 178.925 198.127 178.843C198.015 178.761 197.936 178.642 197.904 178.507C197.872 178.372 197.89 178.23 197.954 178.107C198.525 177.403 199.256 176.845 200.087 176.481C200.918 176.118 201.824 175.959 202.728 176.017C202.803 176.021 202.876 176.039 202.944 176.071C203.011 176.103 203.072 176.148 203.122 176.203C203.172 176.258 203.211 176.323 203.236 176.393C203.261 176.463 203.272 176.538 203.268 176.612C203.263 176.725 203.23 176.834 203.171 176.931Z" fill="#263238"/>
    <path d="M169.069 185.581C171.56 197.331 172.418 204.334 179.324 209.482C189.69 217.219 203.53 209.482 204.596 197.179C205.551 186.107 201.316 168.765 188.998 165.886C186.275 165.265 183.439 165.34 180.753 166.106C178.066 166.871 175.616 168.301 173.63 170.265C171.643 172.228 170.183 174.661 169.386 177.338C168.589 180.015 168.48 182.85 169.069 185.581Z" fill="#FFB573"/>
    <path d="M194.272 190.162C201.4 184.446 197.746 176.142 195.836 174.688C201.663 173.83 207.171 166.149 203.268 159.368C201.884 159.727 201.483 161.831 201.483 161.831C201.483 161.831 192.653 156.406 184.875 157.153C185.518 158.066 186.314 158.862 187.228 159.506C181.583 158.269 175.697 158.751 170.329 160.89C171.713 161.416 174.633 162.523 174.633 162.523C174.633 162.523 159.174 167.27 164.945 173.595C152.323 174.633 165.111 200.376 175.643 204.818C186.176 209.261 198.189 195.019 194.272 190.162Z" fill="#263238"/>
    <path d="M168.156 174.246C161.236 169.872 156.793 172.28 156.793 172.28C156.793 172.28 163.519 174.702 168.156 174.246Z" fill="#263238"/>
    <path d="M189.608 188.847C190.397 191.287 192.091 193.332 194.341 194.563C197.22 196.044 199.033 193.262 198.493 189.899C198.064 186.882 196.057 182.48 193.026 182.411C189.995 182.342 188.5 185.747 189.608 188.847Z" fill="#FFB573"/>
    <path d="M162.813 222.603C178.964 219.405 202.105 217.883 217.647 219.433C221.497 219.833 225.106 221.498 227.908 224.167C230.711 226.837 232.549 230.361 233.134 234.187C236.746 257.465 234.518 298.778 233.134 340.312C197.911 355.079 160.336 345.488 160.336 345.488C158.952 337.184 161.401 309.67 163.104 294.917C159.948 280.052 153.416 263.251 149.084 243.529C148.581 241.251 148.539 238.896 148.961 236.602C149.382 234.308 150.258 232.122 151.538 230.172C152.817 228.222 154.474 226.547 156.41 225.247C158.347 223.947 160.524 223.048 162.813 222.603Z" fill="#263238"/>
    <path d="M230.062 228.277L237.19 239.349C239.598 243.072 242.061 246.74 244.525 250.338C245.77 252.183 247.03 253.941 248.303 255.611C249.549 257.355 250.822 259.043 252.109 260.635C253.396 262.227 254.711 263.763 255.957 265.119C256.993 266.265 258.113 267.334 259.306 268.316L257.922 267.583C260.35 268.829 262.947 269.714 265.631 270.212C268.858 270.858 272.129 271.269 275.416 271.444C278.862 271.693 282.336 271.721 285.989 271.693C287.789 271.693 289.602 271.693 291.401 271.569L296.757 271.347H297.144C298.556 271.282 299.946 271.714 301.073 272.567C302.199 273.42 302.992 274.64 303.313 276.016C303.633 277.393 303.462 278.838 302.828 280.101C302.194 281.364 301.138 282.365 299.843 282.931C296.112 284.584 292.269 285.972 288.342 287.083C284.398 288.206 280.385 289.07 276.329 289.671C274.267 289.976 272.177 290.183 270.018 290.322C267.825 290.475 265.626 290.502 263.43 290.405C258.555 290.266 253.735 289.331 249.161 287.637C248.881 287.524 248.609 287.395 248.345 287.249L247.763 286.903C245.136 285.293 242.666 283.44 240.387 281.367C238.311 279.54 236.511 277.672 234.754 275.831C231.376 272.211 228.189 268.419 225.204 264.469C222.242 260.649 219.502 256.718 216.831 252.76C214.16 248.802 211.696 244.843 209.26 240.525C207.827 237.793 207.491 234.617 208.322 231.645C209.154 228.674 211.089 226.132 213.732 224.541C216.376 222.95 219.528 222.429 222.542 223.085C225.557 223.74 228.208 225.524 229.951 228.069L230.062 228.277Z" fill="#263238"/>
    <path d="M526.833 560.603C526.665 560.604 526.502 560.542 526.376 560.43C526.251 560.317 526.172 560.162 526.155 559.994C522.695 533.698 531.193 510.558 548.299 499.707C548.376 499.657 548.462 499.623 548.552 499.607C548.642 499.591 548.734 499.593 548.824 499.614C548.913 499.634 548.997 499.673 549.071 499.727C549.145 499.781 549.207 499.85 549.254 499.929C549.302 500.006 549.335 500.092 549.35 500.182C549.365 500.271 549.362 500.363 549.341 500.452C549.321 500.541 549.283 500.624 549.23 500.699C549.177 500.773 549.11 500.835 549.032 500.883C532.424 511.443 524.12 534.016 527.511 559.814C527.535 559.996 527.485 560.179 527.374 560.325C527.262 560.47 527.098 560.565 526.916 560.589L526.833 560.603Z" fill="#263238"/>
    <path d="M557.987 505.644V494.946L548.714 489.59L539.428 494.946V505.644L548.714 511L557.987 505.644Z" fill="white"/>
    <path d="M548.715 511.692C548.594 511.695 548.475 511.666 548.369 511.609L539.082 506.253C538.978 506.19 538.891 506.1 538.83 505.994C538.77 505.887 538.737 505.767 538.736 505.644V494.946C538.737 494.823 538.77 494.703 538.83 494.597C538.891 494.49 538.978 494.401 539.082 494.337L548.369 488.981C548.474 488.92 548.593 488.888 548.715 488.888C548.836 488.888 548.956 488.92 549.061 488.981L558.334 494.337C558.439 494.401 558.525 494.49 558.586 494.597C558.646 494.703 558.679 494.823 558.68 494.946V505.644C558.679 505.767 558.646 505.887 558.586 505.994C558.525 506.1 558.439 506.19 558.334 506.253L549.061 511.609C548.953 511.663 548.835 511.691 548.715 511.692ZM540.12 505.257L548.715 510.211L557.296 505.257V495.333L548.715 490.379L540.12 495.333V505.257Z" fill="#FF9595"/>
    <path d="M566.555 488.884V484.524L562.776 482.338L558.998 484.524V488.884L562.776 491.057L566.555 488.884Z" fill="white"/>
    <path d="M562.776 491.749C562.656 491.75 562.537 491.721 562.43 491.666L558.652 489.479C558.547 489.419 558.46 489.332 558.399 489.228C558.339 489.123 558.306 489.005 558.306 488.884V484.524C558.307 484.402 558.339 484.282 558.4 484.175C558.46 484.068 558.547 483.979 558.652 483.916L562.43 481.743C562.535 481.682 562.655 481.65 562.776 481.65C562.897 481.65 563.017 481.682 563.122 481.743L566.9 483.916C567.005 483.979 567.092 484.068 567.152 484.175C567.213 484.282 567.245 484.402 567.246 484.524V488.884C567.246 489.005 567.213 489.123 567.153 489.228C567.092 489.332 567.005 489.419 566.9 489.479L563.122 491.666C563.015 491.721 562.896 491.75 562.776 491.749ZM559.69 488.552L562.776 490.337L565.862 488.552V484.995L562.776 483.21L559.69 484.995V488.552Z" fill="#FF9595"/>
    <path d="M476.844 505.935V501.589L473.065 499.402L469.287 501.589V505.935L473.065 508.122L476.844 505.935Z" fill="white"/>
    <path d="M473.065 508.814C472.943 508.816 472.822 508.782 472.719 508.717L468.941 506.544C468.838 506.481 468.752 506.394 468.692 506.29C468.632 506.186 468.598 506.069 468.595 505.949V501.589C468.596 501.467 468.628 501.346 468.689 501.24C468.749 501.133 468.836 501.044 468.941 500.98L472.719 498.807C472.824 498.747 472.944 498.715 473.065 498.715C473.187 498.715 473.306 498.747 473.411 498.807L477.189 500.98C477.294 501.044 477.381 501.133 477.441 501.24C477.502 501.346 477.534 501.467 477.535 501.589V505.949C477.532 506.069 477.499 506.186 477.438 506.29C477.378 506.394 477.292 506.481 477.189 506.544L473.411 508.717C473.308 508.782 473.187 508.816 473.065 508.814ZM469.979 505.547L473.065 507.319L476.151 505.547V501.977L473.065 500.205L469.979 501.977V505.547Z" fill="#FF9595"/>
    <path d="M514.336 473.466V469.107L510.571 466.934L506.793 469.107V473.466L510.571 475.653L514.336 473.466Z" fill="white"/>
    <path d="M510.571 476.331C510.45 476.333 510.331 476.305 510.225 476.248L506.447 474.061C506.34 474.003 506.252 473.917 506.191 473.812C506.13 473.707 506.099 473.588 506.101 473.466V469.176C506.099 469.054 506.13 468.935 506.191 468.83C506.252 468.725 506.34 468.639 506.447 468.581L510.225 466.394C510.33 466.333 510.45 466.301 510.571 466.301C510.693 466.301 510.812 466.333 510.917 466.394L514.682 468.581C514.788 468.639 514.877 468.725 514.938 468.83C514.999 468.935 515.03 469.054 515.028 469.176V473.535C515.03 473.657 514.999 473.776 514.938 473.881C514.877 473.986 514.788 474.072 514.682 474.131L510.917 476.317C510.804 476.347 510.686 476.352 510.571 476.331ZM507.485 473.065L510.571 474.85L513.644 473.065V469.508L510.571 467.792L507.485 469.577V473.065Z" fill="#FF9595"/>
    <path d="M537.283 469.66V463.543L531.996 460.484L526.695 463.543V469.66L531.996 472.719L537.283 469.66Z" fill="white"/>
    <path d="M531.996 473.411C531.873 473.415 531.752 473.381 531.65 473.314L526.349 470.255C526.243 470.197 526.154 470.111 526.093 470.006C526.032 469.901 526.001 469.782 526.003 469.66V463.543C526.001 463.42 526.032 463.299 526.093 463.192C526.154 463.084 526.242 462.996 526.349 462.934L531.65 459.875C531.755 459.815 531.874 459.783 531.996 459.783C532.117 459.783 532.237 459.815 532.342 459.875L537.642 462.934C537.747 462.998 537.834 463.087 537.895 463.194C537.955 463.3 537.987 463.42 537.988 463.543V469.66C537.988 469.781 537.955 469.9 537.895 470.004C537.834 470.108 537.747 470.195 537.642 470.255L532.342 473.328C532.236 473.387 532.117 473.416 531.996 473.411ZM527.387 469.259L531.996 471.916L536.604 469.259V463.944L531.996 461.273L527.387 463.944V469.259Z" fill="#FF9595"/>
    <path d="M519.844 554.375C519.66 554.375 519.484 554.302 519.355 554.172C519.225 554.043 519.152 553.867 519.152 553.683C519.152 527.664 508.08 506.336 490.088 498.046C490.005 498.008 489.93 497.953 489.868 497.885C489.807 497.818 489.759 497.738 489.728 497.652C489.697 497.566 489.684 497.474 489.688 497.383C489.693 497.291 489.716 497.202 489.756 497.119C489.793 497.036 489.846 496.962 489.913 496.9C489.979 496.839 490.057 496.791 490.142 496.76C490.228 496.729 490.318 496.716 490.408 496.72C490.499 496.725 490.588 496.747 490.669 496.787C509.063 505.312 520.481 527.11 520.481 553.683C520.481 553.857 520.416 554.025 520.298 554.154C520.18 554.282 520.018 554.361 519.844 554.375Z" fill="#263238"/>
    <path d="M499.707 502.765V492.053L490.434 486.697L481.161 492.053V502.765L490.434 508.122L499.707 502.765Z" fill="white"/>
    <path d="M490.435 508.814C490.312 508.816 490.192 508.782 490.089 508.717L480.816 503.361C480.709 503.303 480.621 503.216 480.56 503.111C480.499 503.007 480.468 502.887 480.47 502.766V492.053C480.468 491.932 480.499 491.812 480.56 491.708C480.621 491.603 480.709 491.516 480.816 491.458L490.089 486.102C490.194 486.041 490.313 486.01 490.435 486.01C490.556 486.01 490.675 486.041 490.781 486.102L500.053 491.458C500.16 491.516 500.249 491.603 500.31 491.708C500.371 491.812 500.402 491.932 500.399 492.053V502.766C500.402 502.887 500.371 503.007 500.31 503.111C500.249 503.216 500.16 503.303 500.053 503.361L490.781 508.717C490.677 508.782 490.557 508.816 490.435 508.814ZM481.854 502.364L490.435 507.319L499.015 502.364V492.455L490.435 487.5L481.854 492.455V502.364Z" fill="#FF9595"/>
    <path d="M525.255 548.977C525.106 548.977 524.96 548.929 524.84 548.839C524.72 548.749 524.633 548.623 524.591 548.479L524.508 548.202C519.18 529.463 513.658 510.087 522.584 483.805C522.647 483.632 522.775 483.491 522.94 483.41C523.105 483.33 523.296 483.318 523.47 483.376C523.642 483.436 523.783 483.561 523.863 483.724C523.944 483.887 523.957 484.075 523.899 484.248C515.111 510.128 520.564 529.283 525.851 547.815L525.92 548.105C525.945 548.193 525.953 548.284 525.943 548.374C525.933 548.465 525.906 548.552 525.862 548.632C525.818 548.712 525.76 548.782 525.689 548.839C525.618 548.896 525.536 548.938 525.449 548.964L525.255 548.977Z" fill="#263238"/>
    <path d="M532.522 489.382V478.67L523.249 473.314L513.977 478.67V489.382L523.249 494.738L532.522 489.382Z" fill="white"/>
    <path d="M523.249 495.472C523.127 495.476 523.006 495.442 522.903 495.375L513.63 490.019C513.524 489.961 513.435 489.875 513.374 489.77C513.313 489.665 513.282 489.545 513.284 489.424V478.712C513.282 478.59 513.313 478.471 513.374 478.366C513.435 478.261 513.524 478.175 513.63 478.117L522.903 472.76C523.008 472.7 523.128 472.668 523.249 472.668C523.371 472.668 523.49 472.7 523.595 472.76L532.868 478.117C532.972 478.177 533.059 478.264 533.12 478.368C533.181 478.472 533.213 478.591 533.214 478.712V489.424C533.213 489.545 533.181 489.663 533.12 489.767C533.059 489.872 532.972 489.959 532.868 490.019L523.595 495.375C523.491 495.439 523.371 495.473 523.249 495.472ZM514.668 489.022L523.249 493.977L531.83 489.022V479.113L523.249 474.158L514.668 479.113V489.022Z" fill="#FF9595"/>
    <path d="M550.832 542.528H494.905C493.356 542.521 491.872 541.901 490.778 540.804C489.684 539.708 489.068 538.223 489.064 536.673C489.068 535.126 489.685 533.642 490.779 532.548C491.874 531.453 493.357 530.837 494.905 530.833H550.832C552.38 530.837 553.864 531.453 554.958 532.548C556.053 533.642 556.669 535.126 556.673 536.673C556.669 538.223 556.053 539.708 554.959 540.804C553.865 541.901 552.382 542.521 550.832 542.528Z" fill="white"/>
    <path d="M550.832 543.247H494.905C493.222 543.17 491.635 542.447 490.471 541.229C489.308 540.011 488.659 538.392 488.659 536.708C488.659 535.024 489.308 533.405 490.471 532.187C491.635 530.969 493.222 530.246 494.905 530.169H550.832C552.514 530.246 554.102 530.969 555.265 532.187C556.428 533.405 557.077 535.024 557.077 536.708C557.077 538.392 556.428 540.011 555.265 541.229C554.102 542.447 552.514 543.17 550.832 543.247ZM494.932 531.553C493.611 531.621 492.367 532.194 491.456 533.154C490.545 534.113 490.037 535.385 490.037 536.708C490.037 538.031 490.545 539.303 491.456 540.263C492.367 541.222 493.611 541.795 494.932 541.863H550.832C552.153 541.795 553.398 541.222 554.308 540.263C555.219 539.303 555.727 538.031 555.727 536.708C555.727 535.385 555.219 534.113 554.308 533.154C553.398 532.194 552.153 531.621 550.832 531.553H494.932Z" fill="#FF9595"/>
    <path d="M542.321 577.322H503.375C502.406 577.324 501.47 576.974 500.739 576.338C500.009 575.701 499.534 574.822 499.403 573.862L495.002 542.528H550.694L546.307 573.834C546.179 574.8 545.704 575.687 544.971 576.329C544.237 576.97 543.295 577.323 542.321 577.322Z" fill="#FF9595"/>
    </svg>
